<?xml version="1.0" encoding="UTF-8" standalone="no"?>
<!DOCTYPE svg PUBLIC "-//W3C//DTD SVG 1.1//EN"
 "http://www.w3.org/Graphics/SVG/1.1/DTD/svg11.dtd">
<!-- Generated by graphviz version 2.36.0 (20140111.2315)
 -->
<!-- Title: Structural Graph Pages: 1 -->
<svg width="360pt" height="347pt"
 viewBox="0.00 0.00 360.00 347.07" xmlns="http://www.w3.org/2000/svg" xmlns:xlink="http://www.w3.org/1999/xlink">
<g id="graph0" class="graph" transform="scale(0.718563 0.718563) rotate(0) translate(4 479)">
<title>Structural Graph</title>
<polygon fill="white" stroke="none" points="-4,4 -4,-479 497,-479 497,4 -4,4"/>
<!-- 0 -->
<g id="node1" class="node"><title>0</title>
<ellipse fill="white" stroke="#00594c" stroke-width="4" cx="453.5" cy="-391.58" rx="21.5" ry="21.5"/>
<text text-anchor="middle" x="453.5" y="-387.98" font-family="Helvetica,sans-Serif" font-size="12.00">SLP</text>
</g>
<!-- 0&#45;&gt;0 -->
<g id="edge1" class="edge"><title>0&#45;&gt;0</title>
<path fill="none" stroke="black" stroke-width="4" d="M474.228,-398.165C484.199,-398.978 493,-396.783 493,-391.58 493,-387.271 486.964,-385.025 479.227,-384.842"/>
<polygon fill="black" stroke="black" stroke-width="4" points="479.173,-383.093 474.228,-384.995 479.279,-386.591 479.173,-383.093"/>
</g>
<!-- 1 -->
<g id="node2" class="node"><title>1</title>
<ellipse fill="white" stroke="#00594c" stroke-width="4" cx="268.46" cy="-83.42" rx="21.5" ry="21.5"/>
<text text-anchor="middle" x="268.46" y="-79.82" font-family="Helvetica,sans-Serif" font-size="12.00">wg</text>
</g>
<!-- 0&#45;&gt;1 -->
<g id="edge2" class="edge"><title>0&#45;&gt;1</title>
<path fill="none" stroke="black" stroke-width="4" d="M442.203,-372.767C409.931,-319.022 317.394,-164.914 282.238,-106.365"/>
<polygon fill="black" stroke="black" stroke-width="4" points="283.683,-105.372 279.609,-101.987 280.682,-107.174 283.683,-105.372"/>
</g>
<!-- 3 -->
<g id="node4" class="node"><title>3</title>
<ellipse fill="white" stroke="#00594c" stroke-width="4" cx="330.38" cy="-391.58" rx="21.5" ry="21.5"/>
<text text-anchor="middle" x="330.38" y="-387.98" font-family="Helvetica,sans-Serif" font-size="12.00">en</text>
</g>
<!-- 0&#45;&gt;3 -->
<g id="edge3" class="edge"><title>0&#45;&gt;3</title>
<path fill="none" stroke="black" stroke-width="4" d="M431.772,-391.58C410.937,-391.58 379.435,-391.58 357.081,-391.58"/>
<polygon fill="black" stroke="black" stroke-width="4" points="356.891,-389.83 351.891,-391.58 356.891,-393.33 356.891,-389.83"/>
</g>
<!-- 1&#45;&gt;1 -->
<g id="edge4" class="edge"><title>1&#45;&gt;1</title>
<path fill="none" stroke="black" stroke-width="4" d="M289.188,-90.0052C299.159,-90.8182 307.96,-88.6231 307.96,-83.42 307.96,-79.1112 301.924,-76.8652 294.187,-76.6822"/>
<polygon fill="black" stroke="black" stroke-width="4" points="294.133,-74.9329 289.188,-76.8348 294.239,-78.4313 294.133,-74.9329"/>
</g>
<!-- 2 -->
<g id="node3" class="node"><title>2</title>
<ellipse fill="white" stroke="#00594c" stroke-width="4" cx="268.46" cy="-21.5" rx="21.5" ry="21.5"/>
<text text-anchor="middle" x="268.46" y="-17.9" font-family="Helvetica,sans-Serif" font-size="12.00">WG</text>
</g>
<!-- 1&#45;&gt;2 -->
<g id="edge5" class="edge"><title>1&#45;&gt;2</title>
<path fill="none" stroke="black" stroke-width="4" d="M268.46,-61.7634C268.46,-57.452 268.46,-52.8752 268.46,-48.4126"/>
<polygon fill="black" stroke="black" stroke-width="4" points="270.21,-48.249 268.46,-43.249 266.71,-48.2491 270.21,-48.249"/>
</g>
<!-- 4 -->
<g id="node5" class="node"><title>4</title>
<ellipse fill="white" stroke="#00594c" stroke-width="4" cx="330.38" cy="-330.38" rx="21.5" ry="21.5"/>
<text text-anchor="middle" x="330.38" y="-326.78" font-family="Helvetica,sans-Serif" font-size="12.00">EN</text>
</g>
<!-- 3&#45;&gt;4 -->
<g id="edge6" class="edge"><title>3&#45;&gt;4</title>
<path fill="none" stroke="black" stroke-width="4" d="M330.38,-369.831C330.38,-365.772 330.38,-361.487 330.38,-357.295"/>
<polygon fill="black" stroke="black" stroke-width="4" points="332.13,-357.059 330.38,-352.059 328.63,-357.059 332.13,-357.059"/>
</g>
<!-- 5 -->
<g id="node6" class="node"><title>5</title>
<ellipse fill="white" stroke="#00594c" stroke-width="4" cx="391.58" cy="-83.42" rx="21.5" ry="21.5"/>
<text text-anchor="middle" x="391.58" y="-79.82" font-family="Helvetica,sans-Serif" font-size="12.00">hh</text>
</g>
<!-- 4&#45;&gt;5 -->
<g id="edge7" class="edge"><title>4&#45;&gt;5</title>
<path fill="none" stroke="black" stroke-width="4" d="M335.598,-309.324C346.754,-264.307 372.9,-158.8 385.099,-109.574"/>
<polygon fill="black" stroke="black" stroke-width="4" points="386.871,-109.697 386.375,-104.422 383.474,-108.855 386.871,-109.697"/>
</g>
<!-- 7 -->
<g id="node8" class="node"><title>7</title>
<ellipse fill="white" stroke="#00594c" stroke-width="4" cx="206.54" cy="-83.42" rx="21.5" ry="21.5"/>
<text text-anchor="middle" x="206.54" y="-79.82" font-family="Helvetica,sans-Serif" font-size="12.00">ptc</text>
</g>
<!-- 4&#45;&gt;7 -->
<g id="edge8" class="edge"><title>4&#45;&gt;7</title>
<path fill="none" stroke="black" stroke-width="4" d="M320.662,-311.001C298.236,-266.279 242.92,-155.968 218.479,-107.229"/>
<polygon fill="black" stroke="black" stroke-width="4" points="220.018,-106.394 216.212,-102.709 216.889,-107.963 220.018,-106.394"/>
</g>
<!-- 11 -->
<g id="node12" class="node"><title>11</title>
<ellipse fill="white" stroke="#00594c" stroke-width="4" cx="268.46" cy="-268.46" rx="21.5" ry="21.5"/>
<text text-anchor="middle" x="268.46" y="-264.86" font-family="Helvetica,sans-Serif" font-size="12.00">ci</text>
</g>
<!-- 4&#45;&gt;11 -->
<g id="edge9" class="edge"><title>4&#45;&gt;11</title>
<path fill="none" stroke="black" stroke-width="4" d="M315.074,-315.074C306.801,-306.801 296.505,-296.505 287.695,-287.695"/>
<polygon fill="black" stroke="black" stroke-width="4" points="288.793,-286.318 284.02,-284.02 286.318,-288.793 288.793,-286.318"/>
</g>
<!-- 6 -->
<g id="node7" class="node"><title>6</title>
<ellipse fill="white" stroke="#00594c" stroke-width="4" cx="391.58" cy="-21.5" rx="21.5" ry="21.5"/>
<text text-anchor="middle" x="391.58" y="-17.9" font-family="Helvetica,sans-Serif" font-size="12.00">HH</text>
</g>
<!-- 5&#45;&gt;6 -->
<g id="edge10" class="edge"><title>5&#45;&gt;6</title>
<path fill="none" stroke="black" stroke-width="4" d="M391.58,-61.7634C391.58,-57.452 391.58,-52.8752 391.58,-48.4126"/>
<polygon fill="black" stroke="black" stroke-width="4" points="393.33,-48.249 391.58,-43.249 389.83,-48.2491 393.33,-48.249"/>
</g>
<!-- 8 -->
<g id="node9" class="node"><title>8</title>
<ellipse fill="white" stroke="#00594c" stroke-width="4" cx="144.62" cy="-206.54" rx="21.5" ry="21.5"/>
<text text-anchor="middle" x="144.62" y="-202.94" font-family="Helvetica,sans-Serif" font-size="12.00">PTC</text>
</g>
<!-- 7&#45;&gt;8 -->
<g id="edge11" class="edge"><title>7&#45;&gt;8</title>
<path fill="none" stroke="black" stroke-width="4" d="M196.865,-102.657C186.023,-124.215 168.432,-159.194 156.697,-182.527"/>
<polygon fill="black" stroke="black" stroke-width="4" points="155.115,-181.778 154.431,-187.031 158.241,-183.351 155.115,-181.778"/>
</g>
<!-- 8&#45;&gt;8 -->
<g id="edge12" class="edge"><title>8&#45;&gt;8</title>
<path fill="none" stroke="black" stroke-width="4" d="M165.348,-213.125C175.319,-213.938 184.12,-211.743 184.12,-206.54 184.12,-202.231 178.084,-199.985 170.347,-199.802"/>
<polygon fill="black" stroke="black" stroke-width="4" points="170.293,-198.053 165.348,-199.955 170.399,-201.551 170.293,-198.053"/>
</g>
<!-- 9 -->
<g id="node10" class="node"><title>9</title>
<ellipse fill="white" stroke="#00594c" stroke-width="4" cx="21.5" cy="-144.62" rx="21.5" ry="21.5"/>
<text text-anchor="middle" x="21.5" y="-141.02" font-family="Helvetica,sans-Serif" font-size="12.00">PH</text>
</g>
<!-- 8&#45;&gt;9 -->
<g id="edge13" class="edge"><title>8&#45;&gt;9</title>
<path fill="none" stroke="black" stroke-width="4" d="M125.382,-196.865C103.825,-186.023 68.8463,-168.432 45.5127,-156.697"/>
<polygon fill="black" stroke="black" stroke-width="4" points="46.2619,-155.115 41.0087,-154.431 44.6893,-158.241 46.2619,-155.115"/>
</g>
<!-- 10 -->
<g id="node11" class="node"><title>10</title>
<ellipse fill="white" stroke="#00594c" stroke-width="4" cx="83.42" cy="-144.62" rx="21.5" ry="21.5"/>
<text text-anchor="middle" x="83.42" y="-141.02" font-family="Helvetica,sans-Serif" font-size="12.00">SMO</text>
</g>
<!-- 8&#45;&gt;10 -->
<g id="edge14" class="edge"><title>8&#45;&gt;10</title>
<path fill="none" stroke="black" stroke-width="4" d="M129.492,-191.234C121.315,-182.961 111.139,-172.665 102.431,-163.855"/>
<polygon fill="black" stroke="black" stroke-width="4" points="103.559,-162.506 98.7991,-160.18 101.069,-164.966 103.559,-162.506"/>
</g>
<!-- 13 -->
<g id="node14" class="node"><title>13</title>
<ellipse fill="white" stroke="#00594c" stroke-width="4" cx="206.54" cy="-144.62" rx="21.5" ry="21.5"/>
<text text-anchor="middle" x="206.54" y="-141.02" font-family="Helvetica,sans-Serif" font-size="12.00">CIA</text>
</g>
<!-- 8&#45;&gt;13 -->
<g id="edge15" class="edge"><title>8&#45;&gt;13</title>
<path fill="none" stroke="black" stroke-width="4" d="M159.926,-191.234C168.199,-182.961 178.495,-172.665 187.305,-163.855"/>
<polygon fill="black" stroke="black" stroke-width="4" points="188.682,-164.953 190.98,-160.18 186.207,-162.478 188.682,-164.953"/>
</g>
<!-- 14 -->
<g id="node15" class="node"><title>14</title>
<ellipse fill="white" stroke="#00594c" stroke-width="4" cx="268.46" cy="-144.62" rx="21.5" ry="21.5"/>
<text text-anchor="middle" x="268.46" y="-141.02" font-family="Helvetica,sans-Serif" font-size="12.00">CIR</text>
</g>
<!-- 8&#45;&gt;14 -->
<g id="edge16" class="edge"><title>8&#45;&gt;14</title>
<path fill="none" stroke="black" stroke-width="4" d="M163.97,-196.865C185.654,-186.023 220.837,-168.432 244.307,-156.697"/>
<polygon fill="black" stroke="black" stroke-width="4" points="245.148,-158.233 248.837,-154.431 243.582,-155.102 245.148,-158.233"/>
</g>
<!-- 12 -->
<g id="node13" class="node"><title>12</title>
<ellipse fill="white" stroke="#00594c" stroke-width="4" cx="268.46" cy="-206.54" rx="21.5" ry="21.5"/>
<text text-anchor="middle" x="268.46" y="-202.94" font-family="Helvetica,sans-Serif" font-size="12.00">CI</text>
</g>
<!-- 11&#45;&gt;12 -->
<g id="edge17" class="edge"><title>11&#45;&gt;12</title>
<path fill="none" stroke="black" stroke-width="4" d="M268.46,-246.803C268.46,-242.492 268.46,-237.915 268.46,-233.453"/>
<polygon fill="black" stroke="black" stroke-width="4" points="270.21,-233.289 268.46,-228.289 266.71,-233.289 270.21,-233.289"/>
</g>
<!-- 12&#45;&gt;13 -->
<g id="edge18" class="edge"><title>12&#45;&gt;13</title>
<path fill="none" stroke="black" stroke-width="4" d="M253.154,-191.234C244.881,-182.961 234.585,-172.665 225.775,-163.855"/>
<polygon fill="black" stroke="black" stroke-width="4" points="226.873,-162.478 222.1,-160.18 224.398,-164.953 226.873,-162.478"/>
</g>
<!-- 12&#45;&gt;14 -->
<g id="edge19" class="edge"><title>12&#45;&gt;14</title>
<path fill="none" stroke="black" stroke-width="4" d="M268.46,-184.883C268.46,-180.572 268.46,-175.995 268.46,-171.533"/>
<polygon fill="black" stroke="black" stroke-width="4" points="270.21,-171.369 268.46,-166.369 266.71,-171.369 270.21,-171.369"/>
</g>
<!-- 13&#45;&gt;1 -->
<g id="edge20" class="edge"><title>13&#45;&gt;1</title>
<path fill="none" stroke="black" stroke-width="4" d="M221.846,-129.492C230.119,-121.315 240.415,-111.139 249.225,-102.431"/>
<polygon fill="black" stroke="black" stroke-width="4" points="250.574,-103.559 252.9,-98.7991 248.114,-101.069 250.574,-103.559"/>
</g>
<!-- 13&#45;&gt;7 -->
<g id="edge21" class="edge"><title>13&#45;&gt;7</title>
<path fill="none" stroke="black" stroke-width="4" d="M206.54,-122.871C206.54,-118.812 206.54,-114.527 206.54,-110.335"/>
<polygon fill="black" stroke="black" stroke-width="4" points="208.29,-110.099 206.54,-105.099 204.79,-110.099 208.29,-110.099"/>
</g>
<!-- 14&#45;&gt;1 -->
<g id="edge22" class="edge"><title>14&#45;&gt;1</title>
<path fill="none" stroke="black" stroke-width="4" d="M268.46,-122.871C268.46,-118.812 268.46,-114.527 268.46,-110.335"/>
<polygon fill="black" stroke="black" stroke-width="4" points="270.21,-110.099 268.46,-105.099 266.71,-110.099 270.21,-110.099"/>
</g>
<!-- 14&#45;&gt;5 -->
<g id="edge23" class="edge"><title>14&#45;&gt;5</title>
<path fill="none" stroke="black" stroke-width="4" d="M287.969,-134.923C309.582,-124.179 344.442,-106.851 367.678,-95.3013"/>
<polygon fill="black" stroke="black" stroke-width="4" points="368.464,-96.8647 372.163,-93.0719 366.906,-93.7305 368.464,-96.8647"/>
</g>
<!-- 14&#45;&gt;7 -->
<g id="edge24" class="edge"><title>14&#45;&gt;7</title>
<path fill="none" stroke="black" stroke-width="4" d="M253.154,-129.492C244.881,-121.315 234.585,-111.139 225.775,-102.431"/>
<polygon fill="black" stroke="black" stroke-width="4" points="226.886,-101.069 222.1,-98.7991 224.426,-103.559 226.886,-101.069"/>
</g>
<!-- 15 -->
<g id="node16" class="node"><title>15</title>
<ellipse fill="white" stroke="#00594c" stroke-width="4" cx="144.62" cy="-330.38" rx="21.5" ry="21.5"/>
<text text-anchor="middle" x="144.62" y="-326.78" font-family="Helvetica,sans-Serif" font-size="12.00">nhhnHH</text>
</g>
<!-- 15&#45;&gt;8 -->
<g id="edge25" class="edge"><title>15&#45;&gt;8</title>
<path fill="none" stroke="black" stroke-width="4" d="M144.62,-308.809C144.62,-287.894 144.62,-256.101 144.62,-233.522"/>
<polygon fill="black" stroke="black" stroke-width="4" points="146.37,-233.28 144.62,-228.28 142.87,-233.28 146.37,-233.28"/>
</g>
<!-- 15&#45;&gt;9 -->
<g id="edge26" class="edge"><title>15&#45;&gt;9</title>
<path fill="none" stroke="black" stroke-width="4" d="M132.591,-312.23C109.914,-278.017 60.9152,-204.089 36.2774,-166.916"/>
<polygon fill="black" stroke="black" stroke-width="4" points="37.618,-165.771 33.397,-162.57 34.7007,-167.704 37.618,-165.771"/>
</g>
<!-- 15&#45;&gt;10 -->
<g id="edge27" class="edge"><title>15&#45;&gt;10</title>
<path fill="none" stroke="black" stroke-width="4" d="M137.837,-309.791C126.578,-275.618 104.063,-207.278 91.8189,-170.113"/>
<polygon fill="black" stroke="black" stroke-width="4" points="93.4604,-169.503 90.2337,-165.302 90.1362,-170.598 93.4604,-169.503"/>
</g>
<!-- 15&#45;&gt;13 -->
<g id="edge28" class="edge"><title>15&#45;&gt;13</title>
<path fill="none" stroke="black" stroke-width="4" d="M151.483,-309.791C162.904,-275.528 185.775,-206.916 198.14,-169.819"/>
<polygon fill="black" stroke="black" stroke-width="4" points="199.82,-170.315 199.741,-165.018 196.499,-169.208 199.82,-170.315"/>
</g>
<!-- 15&#45;&gt;14 -->
<g id="edge29" class="edge"><title>15&#45;&gt;14</title>
<path fill="none" stroke="black" stroke-width="4" d="M156.72,-312.23C179.529,-278.017 228.814,-204.089 253.596,-166.916"/>
<polygon fill="black" stroke="black" stroke-width="4" points="255.176,-167.701 256.493,-162.57 252.264,-165.759 255.176,-167.701"/>
</g>
<!-- 15&#45;&gt;15 -->
<g id="edge30" class="edge"><title>15&#45;&gt;15</title>
<path fill="none" stroke="black" stroke-width="4" d="M165.348,-336.965C175.319,-337.778 184.12,-335.583 184.12,-330.38 184.12,-326.071 178.084,-323.825 170.347,-323.642"/>
<polygon fill="black" stroke="black" stroke-width="4" points="170.293,-321.893 165.348,-323.795 170.399,-325.391 170.293,-321.893"/>
</g>
<!-- 16 -->
<g id="node17" class="node"><title>16</title>
<ellipse fill="white" stroke="#00594c" stroke-width="4" cx="330.38" cy="-453.5" rx="21.5" ry="21.5"/>
<text text-anchor="middle" x="330.38" y="-449.9" font-family="Helvetica,sans-Serif" font-size="12.00">nWG</text>
</g>
<!-- 16&#45;&gt;3 -->
<g id="edge31" class="edge"><title>16&#45;&gt;3</title>
<path fill="none" stroke="black" stroke-width="4" d="M330.38,-431.843C330.38,-427.532 330.38,-422.955 330.38,-418.493"/>
<polygon fill="black" stroke="black" stroke-width="4" points="332.13,-418.329 330.38,-413.329 328.63,-418.329 332.13,-418.329"/>
</g>
<!-- 16&#45;&gt;16 -->
<g id="edge32" class="edge"><title>16&#45;&gt;16</title>
<path fill="none" stroke="black" stroke-width="4" d="M351.108,-460.085C361.079,-460.898 369.88,-458.703 369.88,-453.5 369.88,-449.191 363.844,-446.945 356.107,-446.762"/>
<polygon fill="black" stroke="black" stroke-width="4" points="356.053,-445.013 351.108,-446.915 356.159,-448.511 356.053,-445.013"/>
</g>
</g>
</svg>
