<?xml version="1.0" encoding="UTF-8" standalone="no"?>
<!DOCTYPE svg PUBLIC "-//W3C//DTD SVG 1.1//EN"
 "http://www.w3.org/Graphics/SVG/1.1/DTD/svg11.dtd">
<!-- Generated by graphviz version 2.36.0 (20140111.2315)
 -->
<!-- Title: Structural Graph Pages: 1 -->
<svg width="360pt" height="344pt"
 viewBox="0.00 0.00 360.00 344.44" xmlns="http://www.w3.org/2000/svg" xmlns:xlink="http://www.w3.org/1999/xlink">
<g id="graph0" class="graph" transform="scale(0.723618 0.723618) rotate(0) translate(4 472)">
<title>Structural Graph</title>
<polygon fill="white" stroke="none" points="-4,4 -4,-472 493.5,-472 493.5,4 -4,4"/>
<!-- 0 -->
<g id="node1" class="node"><title>0</title>
<ellipse fill="#d3d3d3" stroke="#00594c" stroke-width="4" cx="453.5" cy="-388.08" rx="18" ry="18"/>
<text text-anchor="middle" x="453.5" y="-384.48" font-family="Helvetica,sans-Serif" font-size="12.00">SLP</text>
</g>
<!-- 0&#45;&gt;0 -->
<g id="edge1" class="edge"><title>0&#45;&gt;0</title>
<path fill="none" stroke="black" stroke-width="4" d="M470.537,-394.459C480.358,-395.761 489.5,-393.635 489.5,-388.08 489.5,-383.567 483.465,-381.317 475.934,-381.33"/>
<polygon fill="black" stroke="black" stroke-width="4" points="475.406,-379.612 470.537,-381.701 475.646,-383.104 475.406,-379.612"/>
</g>
<!-- 1 -->
<g id="node2" class="node"><title>1</title>
<ellipse fill="#eeeeee" stroke="#00594c" stroke-width="4" cx="268.46" cy="-79.92" rx="29" ry="29"/>
<text text-anchor="middle" x="268.46" y="-76.32" font-family="Helvetica,sans-Serif" font-size="12.00">wg</text>
</g>
<!-- 0&#45;&gt;1 -->
<g id="edge2" class="edge"><title>0&#45;&gt;1</title>
<path fill="none" stroke="black" stroke-width="1.71" d="M444.069,-372.375C414.725,-323.506 324.705,-173.588 286.215,-109.488"/>
<polygon fill="black" stroke="black" stroke-width="1.71" points="287.608,-108.409 283.534,-105.024 284.608,-110.211 287.608,-108.409"/>
</g>
<!-- 3 -->
<g id="node4" class="node"><title>3</title>
<ellipse fill="#ffffff" stroke="#00594c" stroke-width="4" cx="330.38" cy="-388.08" rx="21.5" ry="21.5"/>
<text text-anchor="middle" x="330.38" y="-384.48" font-family="Helvetica,sans-Serif" font-size="12.00">en</text>
</g>
<!-- 0&#45;&gt;3 -->
<g id="edge3" class="edge"><title>0&#45;&gt;3</title>
<path fill="none" stroke="black" stroke-width="2.5" d="M435.333,-388.08C414.687,-388.08 380.792,-388.08 357.124,-388.08"/>
<polygon fill="black" stroke="black" stroke-width="2.5" points="356.94,-386.33 351.94,-388.08 356.94,-389.83 356.94,-386.33"/>
</g>
<!-- 1&#45;&gt;1 -->
<g id="edge4" class="edge"><title>1&#45;&gt;1</title>
<path fill="none" stroke="black" stroke-width="1.71" d="M296.911,-86.6634C307.129,-86.8084 315.46,-84.5606 315.46,-79.92 315.46,-76.077 309.747,-73.8749 301.98,-73.3139"/>
<polygon fill="black" stroke="black" stroke-width="1.71" points="301.957,-71.5627 296.911,-73.1766 301.862,-75.0614 301.957,-71.5627"/>
</g>
<!-- 2 -->
<g id="node3" class="node"><title>2</title>
<ellipse fill="#ffffff" stroke="#00594c" stroke-width="4" cx="268.46" cy="-18" rx="18" ry="18"/>
<text text-anchor="middle" x="268.46" y="-14.4" font-family="Helvetica,sans-Serif" font-size="12.00">WG</text>
</g>
<!-- 1&#45;&gt;2 -->
<g id="edge5" class="edge"><title>1&#45;&gt;2</title>
<path fill="none" stroke="black" stroke-width="4" d="M268.46,-50.7731C268.46,-47.6364 268.46,-44.4747 268.46,-41.4176"/>
<polygon fill="black" stroke="black" stroke-width="4" points="270.21,-41.0554 268.46,-36.0555 266.71,-41.0555 270.21,-41.0554"/>
</g>
<!-- 4 -->
<g id="node5" class="node"><title>4</title>
<ellipse fill="#d3d3d3" stroke="#00594c" stroke-width="4" cx="330.38" cy="-326.88" rx="18" ry="18"/>
<text text-anchor="middle" x="330.38" y="-323.28" font-family="Helvetica,sans-Serif" font-size="12.00">EN</text>
</g>
<!-- 3&#45;&gt;4 -->
<g id="edge6" class="edge"><title>3&#45;&gt;4</title>
<path fill="none" stroke="black" stroke-width="4" d="M330.38,-366.331C330.38,-361.074 330.38,-355.436 330.38,-350.115"/>
<polygon fill="black" stroke="black" stroke-width="4" points="332.13,-349.924 330.38,-344.924 328.63,-349.924 332.13,-349.924"/>
</g>
<!-- 5 -->
<g id="node6" class="node"><title>5</title>
<ellipse fill="#ffffff" stroke="#00594c" stroke-width="4" cx="391.58" cy="-79.92" rx="21.5" ry="21.5"/>
<text text-anchor="middle" x="391.58" y="-76.32" font-family="Helvetica,sans-Serif" font-size="12.00">hh</text>
</g>
<!-- 4&#45;&gt;5 -->
<g id="edge7" class="edge"><title>4&#45;&gt;5</title>
<path fill="none" stroke="black" stroke-width="2.5" d="M334.781,-309.119C345.433,-266.135 372.642,-156.341 385.133,-105.934"/>
<polygon fill="black" stroke="black" stroke-width="2.5" points="386.863,-106.23 386.367,-100.956 383.466,-105.388 386.863,-106.23"/>
</g>
<!-- 7 -->
<g id="node8" class="node"><title>7</title>
<ellipse fill="#ffffff" stroke="#00594c" stroke-width="4" cx="206.54" cy="-79.92" rx="21.5" ry="21.5"/>
<text text-anchor="middle" x="206.54" y="-76.32" font-family="Helvetica,sans-Serif" font-size="12.00">ptc</text>
</g>
<!-- 4&#45;&gt;7 -->
<g id="edge8" class="edge"><title>4&#45;&gt;7</title>
<path fill="none" stroke="black" stroke-width="1.67" d="M322.255,-310.676C300.986,-268.263 243.596,-153.816 218.529,-103.827"/>
<polygon fill="black" stroke="black" stroke-width="1.67" points="220.012,-102.881 216.206,-99.1957 216.883,-104.45 220.012,-102.881"/>
</g>
<!-- 11 -->
<g id="node12" class="node"><title>11</title>
<ellipse fill="#ffffff" stroke="#00594c" stroke-width="4" cx="268.46" cy="-264.96" rx="18" ry="18"/>
<text text-anchor="middle" x="268.46" y="-261.36" font-family="Helvetica,sans-Serif" font-size="12.00">ci</text>
</g>
<!-- 4&#45;&gt;11 -->
<g id="edge9" class="edge"><title>4&#45;&gt;11</title>
<path fill="none" stroke="black" stroke-width="4" d="M317.55,-314.05C308.085,-304.585 295.13,-291.63 284.905,-281.405"/>
<polygon fill="black" stroke="black" stroke-width="4" points="286.046,-280.072 281.273,-277.773 283.572,-282.546 286.046,-280.072"/>
</g>
<!-- 6 -->
<g id="node7" class="node"><title>6</title>
<ellipse fill="#ffffff" stroke="#00594c" stroke-width="4" cx="391.58" cy="-18" rx="18" ry="18"/>
<text text-anchor="middle" x="391.58" y="-14.4" font-family="Helvetica,sans-Serif" font-size="12.00">HH</text>
</g>
<!-- 5&#45;&gt;6 -->
<g id="edge10" class="edge"><title>5&#45;&gt;6</title>
<path fill="none" stroke="black" stroke-width="4" d="M391.58,-58.2634C391.58,-52.7096 391.58,-46.7154 391.58,-41.0921"/>
<polygon fill="black" stroke="black" stroke-width="4" points="393.33,-41.0554 391.58,-36.0555 389.83,-41.0555 393.33,-41.0554"/>
</g>
<!-- 8 -->
<g id="node9" class="node"><title>8</title>
<ellipse fill="#858585" stroke="#00594c" stroke-width="4" cx="144.62" cy="-203.04" rx="25" ry="25"/>
<text text-anchor="middle" x="144.62" y="-199.44" font-family="Helvetica,sans-Serif" font-size="12.00">PTC</text>
</g>
<!-- 7&#45;&gt;8 -->
<g id="edge11" class="edge"><title>7&#45;&gt;8</title>
<path fill="none" stroke="black" stroke-width="3.25" d="M196.865,-99.1575C186.47,-119.827 169.869,-152.836 158.175,-176.087"/>
<polygon fill="black" stroke="black" stroke-width="3.25" points="156.588,-175.348 155.905,-180.601 159.715,-176.92 156.588,-175.348"/>
</g>
<!-- 8&#45;&gt;8 -->
<g id="edge12" class="edge"><title>8&#45;&gt;8</title>
<path fill="none" stroke="black" stroke-width="1.5" d="M168.933,-209.731C179.047,-210.192 187.62,-207.962 187.62,-203.04 187.62,-198.964 181.74,-196.734 173.975,-196.35"/>
<polygon fill="black" stroke="black" stroke-width="1.5" points="173.933,-194.6 168.933,-196.349 173.932,-198.1 173.933,-194.6"/>
</g>
<!-- 9 -->
<g id="node10" class="node"><title>9</title>
<ellipse fill="#ffffff" stroke="#00594c" stroke-width="4" cx="21.5" cy="-141.12" rx="21.5" ry="21.5"/>
<text text-anchor="middle" x="21.5" y="-137.52" font-family="Helvetica,sans-Serif" font-size="12.00">PH</text>
</g>
<!-- 8&#45;&gt;9 -->
<g id="edge13" class="edge"><title>8&#45;&gt;9</title>
<path fill="none" stroke="black" stroke-width="2.5" d="M122.038,-191.683C100.391,-180.796 67.8205,-164.416 45.6609,-153.271"/>
<polygon fill="black" stroke="black" stroke-width="2.5" points="46.3512,-151.659 41.098,-150.976 44.7786,-154.786 46.3512,-151.659"/>
</g>
<!-- 10 -->
<g id="node11" class="node"><title>10</title>
<ellipse fill="#ffffff" stroke="#00594c" stroke-width="4" cx="83.42" cy="-141.12" rx="21.5" ry="21.5"/>
<text text-anchor="middle" x="83.42" y="-137.52" font-family="Helvetica,sans-Serif" font-size="12.00">SMO</text>
</g>
<!-- 8&#45;&gt;10 -->
<g id="edge14" class="edge"><title>8&#45;&gt;10</title>
<path fill="none" stroke="black" stroke-width="2.5" d="M126.918,-185.13C119.273,-177.395 110.313,-168.33 102.519,-160.443"/>
<polygon fill="black" stroke="black" stroke-width="2.5" points="103.556,-159.004 98.7967,-156.678 101.067,-161.464 103.556,-159.004"/>
</g>
<!-- 13 -->
<g id="node14" class="node"><title>13</title>
<ellipse fill="#eeeeee" stroke="#00594c" stroke-width="4" cx="206.54" cy="-141.12" rx="25" ry="25"/>
<text text-anchor="middle" x="206.54" y="-137.52" font-family="Helvetica,sans-Serif" font-size="12.00">CIA</text>
</g>
<!-- 8&#45;&gt;13 -->
<g id="edge15" class="edge"><title>8&#45;&gt;13</title>
<path fill="none" stroke="black" stroke-width="1.5" d="M162.53,-185.13C169.401,-178.259 177.322,-170.338 184.534,-163.126"/>
<polygon fill="black" stroke="black" stroke-width="1.5" points="186.158,-163.977 188.456,-159.204 183.683,-161.502 186.158,-163.977"/>
</g>
<!-- 14 -->
<g id="node15" class="node"><title>14</title>
<ellipse fill="#d3d3d3" stroke="#00594c" stroke-width="4" cx="268.46" cy="-141.12" rx="21.5" ry="21.5"/>
<text text-anchor="middle" x="268.46" y="-137.52" font-family="Helvetica,sans-Serif" font-size="12.00">CIR</text>
</g>
<!-- 8&#45;&gt;14 -->
<g id="edge16" class="edge"><title>8&#45;&gt;14</title>
<path fill="none" stroke="black" stroke-width="1.67" d="M167.046,-191.827C188.911,-180.894 222.051,-164.324 244.443,-153.128"/>
<polygon fill="black" stroke="black" stroke-width="1.67" points="245.361,-154.626 249.05,-150.825 243.796,-151.496 245.361,-154.626"/>
</g>
<!-- 12 -->
<g id="node13" class="node"><title>12</title>
<ellipse fill="#eeeeee" stroke="#00594c" stroke-width="4" cx="268.46" cy="-203.04" rx="18" ry="18"/>
<text text-anchor="middle" x="268.46" y="-199.44" font-family="Helvetica,sans-Serif" font-size="12.00">CI</text>
</g>
<!-- 11&#45;&gt;12 -->
<g id="edge17" class="edge"><title>11&#45;&gt;12</title>
<path fill="none" stroke="black" stroke-width="4" d="M268.46,-246.717C268.46,-240.349 268.46,-233.113 268.46,-226.387"/>
<polygon fill="black" stroke="black" stroke-width="4" points="270.21,-226.367 268.46,-221.367 266.71,-226.367 270.21,-226.367"/>
</g>
<!-- 12&#45;&gt;13 -->
<g id="edge18" class="edge"><title>12&#45;&gt;13</title>
<path fill="none" stroke="black" stroke-width="3.25" d="M255.63,-190.21C247.695,-182.275 237.307,-171.887 228.131,-162.711"/>
<polygon fill="black" stroke="black" stroke-width="3.25" points="229.057,-161.162 224.284,-158.864 226.582,-163.637 229.057,-161.162"/>
</g>
<!-- 12&#45;&gt;14 -->
<g id="edge19" class="edge"><title>12&#45;&gt;14</title>
<path fill="none" stroke="black" stroke-width="1.67" d="M268.46,-184.797C268.46,-179.553 268.46,-173.72 268.46,-168.068"/>
<polygon fill="black" stroke="black" stroke-width="1.67" points="270.21,-167.951 268.46,-162.951 266.71,-167.951 270.21,-167.951"/>
</g>
<!-- 13&#45;&gt;1 -->
<g id="edge20" class="edge"><title>13&#45;&gt;1</title>
<path fill="none" stroke="black" stroke-width="1.71" d="M224.45,-123.418C230.598,-117.342 237.586,-110.435 244.155,-103.943"/>
<polygon fill="black" stroke="black" stroke-width="1.71" points="245.427,-105.146 247.753,-100.386 242.966,-102.657 245.427,-105.146"/>
</g>
<!-- 13&#45;&gt;7 -->
<g id="edge21" class="edge"><title>13&#45;&gt;7</title>
<path fill="none" stroke="black" stroke-width="1.67" d="M206.54,-115.874C206.54,-112.911 206.54,-109.878 206.54,-106.893"/>
<polygon fill="black" stroke="black" stroke-width="1.67" points="208.29,-106.594 206.54,-101.594 204.79,-106.594 208.29,-106.594"/>
</g>
<!-- 14&#45;&gt;1 -->
<g id="edge22" class="edge"><title>14&#45;&gt;1</title>
<path fill="none" stroke="black" stroke-width="2.44" d="M268.46,-119.371C268.46,-117.722 268.46,-116.035 268.46,-114.332"/>
<polygon fill="black" stroke="black" stroke-width="2.44" points="270.21,-114.198 268.46,-109.198 266.71,-114.198 270.21,-114.198"/>
</g>
<!-- 14&#45;&gt;5 -->
<g id="edge23" class="edge"><title>14&#45;&gt;5</title>
<path fill="none" stroke="black" stroke-width="2.5" d="M287.969,-131.423C309.582,-120.679 344.442,-103.351 367.678,-91.8013"/>
<polygon fill="black" stroke="black" stroke-width="2.5" points="368.464,-93.3647 372.163,-89.5719 366.906,-90.2305 368.464,-93.3647"/>
</g>
<!-- 14&#45;&gt;7 -->
<g id="edge24" class="edge"><title>14&#45;&gt;7</title>
<path fill="none" stroke="black" stroke-width="1.67" d="M253.154,-125.992C244.881,-117.815 234.585,-107.639 225.775,-98.9309"/>
<polygon fill="black" stroke="black" stroke-width="1.67" points="226.886,-97.5693 222.1,-95.2991 224.426,-100.059 226.886,-97.5693"/>
</g>
<!-- 15 -->
<g id="node16" class="node"><title>15</title>
<ellipse fill="#5f5f5f" stroke="#00594c" stroke-width="4" cx="144.62" cy="-326.88" rx="18" ry="18"/>
<text text-anchor="middle" x="144.62" y="-323.28" font-family="Helvetica,sans-Serif" font-size="12.00">nhhnHH</text>
</g>
<!-- 15&#45;&gt;8 -->
<g id="edge25" class="edge"><title>15&#45;&gt;8</title>
<path fill="none" stroke="black" stroke-width="1.5" d="M144.62,-308.873C144.62,-289.165 144.62,-257.229 144.62,-233.587"/>
<polygon fill="black" stroke="black" stroke-width="1.5" points="146.37,-233.374 144.62,-228.374 142.87,-233.374 146.37,-233.374"/>
</g>
<!-- 15&#45;&gt;9 -->
<g id="edge26" class="edge"><title>15&#45;&gt;9</title>
<path fill="none" stroke="black" stroke-width="2.5" d="M134.545,-311.678C112.911,-279.038 61.921,-202.106 36.4805,-163.722"/>
<polygon fill="black" stroke="black" stroke-width="2.5" points="37.7294,-162.439 33.5083,-159.238 34.812,-164.372 37.7294,-162.439"/>
</g>
<!-- 15&#45;&gt;10 -->
<g id="edge27" class="edge"><title>15&#45;&gt;10</title>
<path fill="none" stroke="black" stroke-width="2.5" d="M138.972,-309.737C128.154,-276.901 104.462,-204.988 91.7963,-166.545"/>
<polygon fill="black" stroke="black" stroke-width="2.5" points="93.386,-165.777 90.1592,-161.575 90.0617,-166.872 93.386,-165.777"/>
</g>
<!-- 15&#45;&gt;13 -->
<g id="edge28" class="edge"><title>15&#45;&gt;13</title>
<path fill="none" stroke="black" stroke-width="1.5" d="M150.334,-309.737C160.964,-277.847 183.881,-209.098 196.931,-169.947"/>
<polygon fill="black" stroke="black" stroke-width="1.5" points="198.706,-170.156 198.627,-164.859 195.386,-169.049 198.706,-170.156"/>
</g>
<!-- 15&#45;&gt;14 -->
<g id="edge29" class="edge"><title>15&#45;&gt;14</title>
<path fill="none" stroke="black" stroke-width="1.67" d="M154.754,-311.678C176.514,-279.038 227.803,-202.106 253.392,-163.722"/>
<polygon fill="black" stroke="black" stroke-width="1.67" points="255.064,-164.369 256.381,-159.238 252.152,-162.427 255.064,-164.369"/>
</g>
<!-- 15&#45;&gt;15 -->
<g id="edge30" class="edge"><title>15&#45;&gt;15</title>
<path fill="none" stroke="black" stroke-width="4" d="M161.657,-333.259C171.478,-334.561 180.62,-332.435 180.62,-326.88 180.62,-322.367 174.585,-320.117 167.054,-320.13"/>
<polygon fill="black" stroke="black" stroke-width="4" points="166.526,-318.412 161.657,-320.501 166.766,-321.904 166.526,-318.412"/>
</g>
<!-- 16 -->
<g id="node17" class="node"><title>16</title>
<ellipse fill="#eeeeee" stroke="#00594c" stroke-width="4" cx="330.38" cy="-450" rx="18" ry="18"/>
<text text-anchor="middle" x="330.38" y="-446.4" font-family="Helvetica,sans-Serif" font-size="12.00">nWG</text>
</g>
<!-- 16&#45;&gt;3 -->
<g id="edge31" class="edge"><title>16&#45;&gt;3</title>
<path fill="none" stroke="black" stroke-width="2.5" d="M330.38,-431.757C330.38,-426.513 330.38,-420.68 330.38,-415.028"/>
<polygon fill="black" stroke="black" stroke-width="2.5" points="332.13,-414.911 330.38,-409.911 328.63,-414.911 332.13,-414.911"/>
</g>
<!-- 16&#45;&gt;16 -->
<g id="edge32" class="edge"><title>16&#45;&gt;16</title>
<path fill="none" stroke="black" stroke-width="4" d="M347.417,-456.379C357.238,-457.681 366.38,-455.555 366.38,-450 366.38,-445.487 360.345,-443.237 352.814,-443.25"/>
<polygon fill="black" stroke="black" stroke-width="4" points="352.286,-441.532 347.417,-443.621 352.526,-445.024 352.286,-441.532"/>
</g>
</g>
</svg>
