<?xml version="1.0" encoding="UTF-8" standalone="no"?>
<!DOCTYPE svg PUBLIC "-//W3C//DTD SVG 1.1//EN"
 "http://www.w3.org/Graphics/SVG/1.1/DTD/svg11.dtd">
<!-- Generated by graphviz version 2.40.1 (20161225.0304)
 -->
<!-- Title: Effective Graph Pages: 1 -->
<svg width="161pt" height="170pt"
 viewBox="0.00 0.00 160.50 170.40" xmlns="http://www.w3.org/2000/svg" xmlns:xlink="http://www.w3.org/1999/xlink">
<g id="graph0" class="graph" transform="scale(1 1) rotate(0) translate(4 166.4)">
<title>Effective Graph</title>
<polygon fill="#ffffff" stroke="transparent" points="-4,4 -4,-166.4 156.5,-166.4 156.5,4 -4,4"/>
<!-- 0 -->
<g id="node1" class="node">
<title>0</title>
<ellipse fill="#ffffff" stroke="#ff9896" stroke-width="4" cx="78.5" cy="-142.4" rx="20" ry="20"/>
<text text-anchor="middle" x="78.5" y="-138.8" font-family="Helvetica,sans-Serif" font-size="12.00" fill="#000000">x1</text>
</g>
<!-- 1 -->
<g id="node2" class="node">
<title>1</title>
<ellipse fill="#ffffff" stroke="#ff9896" stroke-width="4" cx="24.5" cy="-92" rx="20" ry="20"/>
<text text-anchor="middle" x="24.5" y="-88.4" font-family="Helvetica,sans-Serif" font-size="12.00" fill="#000000">xa</text>
</g>
<!-- 0&#45;&gt;1 -->
<g id="edge1" class="edge">
<title>0&#45;&gt;1</title>
<path fill="none" stroke="#000000" stroke-width="4" d="M63.7443,-128.628C57.3153,-122.6276 49.7114,-115.5306 42.9168,-109.189"/>
<polygon fill="#000000" stroke="#000000" stroke-width="4" points="44.0873,-107.8876 39.2379,-105.7554 41.6991,-110.4463 44.0873,-107.8876"/>
<text text-anchor="middle" x="41.0805" y="-123.1085" font-family="Times,serif" font-size="14.00" fill="#000000">1.00</text>
</g>
<!-- 2 -->
<g id="node3" class="node">
<title>2</title>
<ellipse fill="#ffffff" stroke="#ff9896" stroke-width="4" cx="132.5" cy="-92" rx="20" ry="20"/>
<text text-anchor="middle" x="132.5" y="-88.4" font-family="Helvetica,sans-Serif" font-size="12.00" fill="#000000">xb</text>
</g>
<!-- 0&#45;&gt;2 -->
<g id="edge2" class="edge">
<title>0&#45;&gt;2</title>
<path fill="none" stroke="#a90533" stroke-width="4" stroke-dasharray="5,2" d="M93.2557,-128.628C99.6847,-122.6276 107.2886,-115.5306 114.0832,-109.189"/>
<polygon fill="#a90533" stroke="#a90533" stroke-width="4" points="115.3009,-110.4463 117.7621,-105.7554 112.9127,-107.8876 115.3009,-110.4463"/>
<text text-anchor="middle" x="91.4195" y="-106.3085" font-family="Times,serif" font-size="14.00" fill="#000000">0.00</text>
</g>
<!-- 1&#45;&gt;2 -->
<g id="edge3" class="edge">
<title>1&#45;&gt;2</title>
<path fill="none" stroke="#000000" stroke-width="4" d="M44.5609,-92C62.1808,-92 87.908,-92 106.9873,-92"/>
<polygon fill="#000000" stroke="#000000" stroke-width="4" points="107.1801,-93.7501 112.1801,-92 107.18,-90.2501 107.1801,-93.7501"/>
<text text-anchor="middle" x="63.5241" y="-96.2" font-family="Times,serif" font-size="14.00" fill="#000000">1.00</text>
</g>
<!-- 4 -->
<g id="node5" class="node">
<title>4</title>
<ellipse fill="#ffffff" stroke="#ff9896" stroke-width="4" cx="24.5" cy="-20" rx="20" ry="20"/>
<text text-anchor="middle" x="24.5" y="-16.4" font-family="Helvetica,sans-Serif" font-size="12.00" fill="#000000">x2</text>
</g>
<!-- 1&#45;&gt;4 -->
<g id="edge4" class="edge">
<title>1&#45;&gt;4</title>
<path fill="none" stroke="#000000" stroke-width="1.5" d="M24.5,-71.944C24.5,-63.743 24.5,-54.1585 24.5,-45.4711"/>
<polygon fill="#000000" stroke="#000000" stroke-width="1.5" points="26.2501,-45.1981 24.5,-40.1982 22.7501,-45.1982 26.2501,-45.1981"/>
<text text-anchor="middle" x="12.25" y="-46.1075" font-family="Times,serif" font-size="14.00" fill="#000000">0.38</text>
</g>
<!-- 3 -->
<g id="node4" class="node">
<title>3</title>
<ellipse fill="#ffffff" stroke="#ff9896" stroke-width="4" cx="132.5" cy="-20" rx="20" ry="20"/>
<text text-anchor="middle" x="132.5" y="-16.4" font-family="Helvetica,sans-Serif" font-size="12.00" fill="#000000">xc</text>
</g>
<!-- 2&#45;&gt;3 -->
<g id="edge5" class="edge">
<title>2&#45;&gt;3</title>
<path fill="none" stroke="#000000" stroke-width="4" d="M132.5,-71.944C132.5,-63.743 132.5,-54.1585 132.5,-45.4711"/>
<polygon fill="#000000" stroke="#000000" stroke-width="4" points="134.2501,-45.1981 132.5,-40.1982 130.7501,-45.1982 134.2501,-45.1981"/>
<text text-anchor="middle" x="120.25" y="-46.1075" font-family="Times,serif" font-size="14.00" fill="#000000">1.00</text>
</g>
<!-- 2&#45;&gt;4 -->
<g id="edge6" class="edge">
<title>2&#45;&gt;4</title>
<path fill="none" stroke="#000000" stroke-width="3.25" d="M115.625,-80.75C96.6828,-68.1219 65.928,-47.6187 45.4601,-33.9734"/>
<polygon fill="#000000" stroke="#000000" stroke-width="3.25" points="46.3875,-32.4885 41.2565,-31.171 44.446,-35.4006 46.3875,-32.4885"/>
<text text-anchor="middle" x="68.2925" y="-61.5617" font-family="Times,serif" font-size="14.00" fill="#000000">0.81</text>
</g>
<!-- 3&#45;&gt;4 -->
<g id="edge7" class="edge">
<title>3&#45;&gt;4</title>
<path fill="none" stroke="#000000" stroke-width="1.5" d="M112.4391,-20C94.8192,-20 69.092,-20 50.0127,-20"/>
<polygon fill="#000000" stroke="#000000" stroke-width="1.5" points="49.82,-18.2501 44.8199,-20 49.8199,-21.7501 49.82,-18.2501"/>
<text text-anchor="middle" x="68.9759" y="-24.2" font-family="Times,serif" font-size="14.00" fill="#000000">0.38</text>
</g>
</g>
</svg>
