<?xml version="1.0" encoding="UTF-8" standalone="no"?>
<!DOCTYPE svg PUBLIC "-//W3C//DTD SVG 1.1//EN"
 "http://www.w3.org/Graphics/SVG/1.1/DTD/svg11.dtd">
<!-- Generated by graphviz version 2.40.1 (20161225.0304)
 -->
<!-- Title: Interaction Graph Pages: 1 -->
<svg width="159pt" height="173pt"
 viewBox="0.00 0.00 159.00 173.40" xmlns="http://www.w3.org/2000/svg" xmlns:xlink="http://www.w3.org/1999/xlink">
<g id="graph0" class="graph" transform="scale(1 1) rotate(0) translate(4 169.4)">
<title>Interaction Graph</title>
<polygon fill="#ffffff" stroke="transparent" points="-4,4 -4,-169.4 155,-169.4 155,4 -4,4"/>
<!-- 0 -->
<g id="node1" class="node">
<title>0</title>
<ellipse fill="#ffffff" stroke="#aec7e8" stroke-width="4" cx="75.5" cy="-143.9" rx="21.5" ry="21.5"/>
<text text-anchor="middle" x="75.5" y="-140.3" font-family="Helvetica,sans-Serif" font-size="12.00" fill="#000000">x1</text>
</g>
<!-- 1 -->
<g id="node2" class="node">
<title>1</title>
<ellipse fill="#ffffff" stroke="#aec7e8" stroke-width="4" cx="21.5" cy="-93.5" rx="21.5" ry="21.5"/>
<text text-anchor="middle" x="21.5" y="-89.9" font-family="Helvetica,sans-Serif" font-size="12.00" fill="#000000">xa</text>
</g>
<!-- 0&#45;&gt;1 -->
<g id="edge1" class="edge">
<title>0&#45;&gt;1</title>
<path fill="none" stroke="#000000" stroke-width="4" d="M59.5903,-129.0509C53.8193,-123.6646 47.2301,-117.5147 41.1731,-111.8615"/>
<polygon fill="#000000" stroke="#000000" stroke-width="4" points="42.332,-110.5494 37.4826,-108.4171 39.9438,-113.1081 42.332,-110.5494"/>
<text text-anchor="middle" x="41.6317" y="-124.6562" font-family="Times,serif" font-size="14.00" fill="#000000">1.0</text>
</g>
<!-- 2 -->
<g id="node3" class="node">
<title>2</title>
<ellipse fill="#ffffff" stroke="#aec7e8" stroke-width="4" cx="129.5" cy="-93.5" rx="21.5" ry="21.5"/>
<text text-anchor="middle" x="129.5" y="-89.9" font-family="Helvetica,sans-Serif" font-size="12.00" fill="#000000">xb</text>
</g>
<!-- 0&#45;&gt;2 -->
<g id="edge2" class="edge">
<title>0&#45;&gt;2</title>
<path fill="none" stroke="#000000" stroke-width="4" d="M91.4097,-129.0509C97.1807,-123.6646 103.7699,-117.5147 109.8269,-111.8615"/>
<polygon fill="#000000" stroke="#000000" stroke-width="4" points="111.0562,-113.1081 113.5174,-108.4171 108.668,-110.5494 111.0562,-113.1081"/>
<text text-anchor="middle" x="91.8683" y="-107.8562" font-family="Times,serif" font-size="14.00" fill="#000000">1.0</text>
</g>
<!-- 1&#45;&gt;2 -->
<g id="edge3" class="edge">
<title>1&#45;&gt;2</title>
<path fill="none" stroke="#000000" stroke-width="4" d="M43.0958,-93.5C60.3135,-93.5 84.5056,-93.5 102.9136,-93.5"/>
<polygon fill="#000000" stroke="#000000" stroke-width="4" points="102.9416,-95.2501 107.9416,-93.5 102.9416,-91.7501 102.9416,-95.2501"/>
<text text-anchor="middle" x="64.2547" y="-97.7" font-family="Times,serif" font-size="14.00" fill="#000000">1.0</text>
</g>
<!-- 4 -->
<g id="node5" class="node">
<title>4</title>
<ellipse fill="#ffffff" stroke="#aec7e8" stroke-width="4" cx="21.5" cy="-21.5" rx="21.5" ry="21.5"/>
<text text-anchor="middle" x="21.5" y="-17.9" font-family="Helvetica,sans-Serif" font-size="12.00" fill="#000000">x2</text>
</g>
<!-- 1&#45;&gt;4 -->
<g id="edge4" class="edge">
<title>1&#45;&gt;4</title>
<path fill="none" stroke="#000000" stroke-width="4" d="M21.5,-71.8976C21.5,-64.4934 21.5,-56.1164 21.5,-48.3483"/>
<polygon fill="#000000" stroke="#000000" stroke-width="4" points="23.2501,-48.0871 21.5,-43.0871 19.7501,-48.0872 23.2501,-48.0871"/>
<text text-anchor="middle" x="12.75" y="-47.523" font-family="Times,serif" font-size="14.00" fill="#000000">1.0</text>
</g>
<!-- 3 -->
<g id="node4" class="node">
<title>3</title>
<ellipse fill="#ffffff" stroke="#aec7e8" stroke-width="4" cx="129.5" cy="-21.5" rx="21.5" ry="21.5"/>
<text text-anchor="middle" x="129.5" y="-17.9" font-family="Helvetica,sans-Serif" font-size="12.00" fill="#000000">xc</text>
</g>
<!-- 2&#45;&gt;3 -->
<g id="edge5" class="edge">
<title>2&#45;&gt;3</title>
<path fill="none" stroke="#000000" stroke-width="4" d="M129.5,-71.8976C129.5,-64.4934 129.5,-56.1164 129.5,-48.3483"/>
<polygon fill="#000000" stroke="#000000" stroke-width="4" points="131.2501,-48.0871 129.5,-43.0871 127.7501,-48.0872 131.2501,-48.0871"/>
<text text-anchor="middle" x="120.75" y="-47.523" font-family="Times,serif" font-size="14.00" fill="#000000">1.0</text>
</g>
<!-- 2&#45;&gt;4 -->
<g id="edge6" class="edge">
<title>2&#45;&gt;4</title>
<path fill="none" stroke="#000000" stroke-width="4" d="M111.1793,-81.2862C92.6039,-68.9026 63.8333,-49.7222 43.9104,-36.4403"/>
<polygon fill="#000000" stroke="#000000" stroke-width="4" points="44.6812,-34.8509 39.5502,-33.5334 42.7397,-37.7631 44.6812,-34.8509"/>
<text text-anchor="middle" x="68.7948" y="-63.0632" font-family="Times,serif" font-size="14.00" fill="#000000">1.0</text>
</g>
<!-- 3&#45;&gt;4 -->
<g id="edge7" class="edge">
<title>3&#45;&gt;4</title>
<path fill="none" stroke="#000000" stroke-width="4" d="M107.9042,-21.5C90.6865,-21.5 66.4944,-21.5 48.0864,-21.5"/>
<polygon fill="#000000" stroke="#000000" stroke-width="4" points="48.0584,-19.7501 43.0584,-21.5 48.0584,-23.2501 48.0584,-19.7501"/>
<text text-anchor="middle" x="69.2453" y="-25.7" font-family="Times,serif" font-size="14.00" fill="#000000">1.0</text>
</g>
</g>
</svg>
