<?xml version="1.0" encoding="UTF-8" standalone="no"?>
<!DOCTYPE svg PUBLIC "-//W3C//DTD SVG 1.1//EN"
 "http://www.w3.org/Graphics/SVG/1.1/DTD/svg11.dtd">
<!-- Generated by graphviz version 2.36.0 (20140111.2315)
 -->
<!-- Title: Structural Graph Pages: 1 -->
<svg width="360pt" height="260pt"
 viewBox="0.00 0.00 360.00 259.70" xmlns="http://www.w3.org/2000/svg" xmlns:xlink="http://www.w3.org/1999/xlink">
<g id="graph0" class="graph" transform="scale(0.777538 0.777538) rotate(0) translate(4 330)">
<title>Structural Graph</title>
<polygon fill="white" stroke="none" points="-4,4 -4,-330 459,-330 459,4 -4,4"/>
<!-- 0 -->
<g id="node1" class="node"><title>0</title>
<ellipse fill="#f1f1f1" stroke="#00594c" stroke-width="4" cx="291.56" cy="-236" rx="29" ry="29"/>
<text text-anchor="middle" x="291.56" y="-232.4" font-family="Helvetica,sans-Serif" font-size="12.00">AP3</text>
</g>
<!-- 13 -->
<g id="node14" class="node"><title>13</title>
<ellipse fill="#f1f1f1" stroke="#00594c" stroke-width="4" cx="239" cy="-288.56" rx="28.5" ry="28.5"/>
<text text-anchor="middle" x="239" y="-284.96" font-family="Helvetica,sans-Serif" font-size="12.00">PI</text>
</g>
<!-- 0&#45;&gt;13 -->
<g id="edge1" class="edge"><title>0&#45;&gt;13</title>
<path fill="none" stroke="black" stroke-width="2.06" d="M270.787,-256.773C268.183,-259.377 265.503,-262.057 262.857,-264.703"/>
<polygon fill="black" stroke="black" stroke-width="2.06" points="261.577,-263.508 259.279,-268.281 264.052,-265.983 261.577,-263.508"/>
</g>
<!-- 1 -->
<g id="node2" class="node"><title>1</title>
<ellipse fill="#f1f1f1" stroke="#00594c" stroke-width="4" cx="419" cy="-308" rx="18" ry="18"/>
<text text-anchor="middle" x="419" y="-304.4" font-family="Helvetica,sans-Serif" font-size="12.00">UFO</text>
</g>
<!-- 1&#45;&gt;0 -->
<g id="edge2" class="edge"><title>1&#45;&gt;0</title>
<path fill="none" stroke="black" stroke-width="2.31" d="M403.117,-299.027C382.766,-287.529 347.071,-267.362 321.536,-252.936"/>
<polygon fill="black" stroke="black" stroke-width="2.31" points="322.107,-251.248 316.893,-250.312 320.385,-254.295 322.107,-251.248"/>
</g>
<!-- 1&#45;&gt;1 -->
<g id="edge3" class="edge"><title>1&#45;&gt;1</title>
<path fill="none" stroke="black" stroke-width="4" d="M436.037,-314.379C445.858,-315.681 455,-313.555 455,-308 455,-303.487 448.965,-301.237 441.434,-301.25"/>
<polygon fill="black" stroke="black" stroke-width="4" points="440.906,-299.532 436.037,-301.621 441.146,-303.024 440.906,-299.532"/>
</g>
<!-- 2 -->
<g id="node3" class="node"><title>2</title>
<ellipse fill="#ffffff" stroke="#00594c" stroke-width="4" cx="42.44" cy="-236" rx="20" ry="20"/>
<text text-anchor="middle" x="42.44" y="-232.4" font-family="Helvetica,sans-Serif" font-size="12.00">FUL</text>
</g>
<!-- 3 -->
<g id="node4" class="node"><title>3</title>
<ellipse fill="#ffffff" stroke="#00594c" stroke-width="4" cx="42.44" cy="-92" rx="18" ry="18"/>
<text text-anchor="middle" x="42.44" y="-88.4" font-family="Helvetica,sans-Serif" font-size="12.00">FT</text>
</g>
<!-- 4 -->
<g id="node5" class="node"><title>4</title>
<ellipse fill="#7e7e7e" stroke="#00594c" stroke-width="4" cx="23" cy="-164" rx="23" ry="23"/>
<text text-anchor="middle" x="23" y="-160.4" font-family="Helvetica,sans-Serif" font-size="12.00">AP1</text>
</g>
<!-- 4&#45;&gt;2 -->
<g id="edge4" class="edge"><title>4&#45;&gt;2</title>
<path fill="none" stroke="black" stroke-width="2.5" d="M29.0444,-186.387C31.1858,-194.318 33.6063,-203.283 35.7949,-211.389"/>
<polygon fill="black" stroke="black" stroke-width="2.5" points="34.1302,-211.937 37.1231,-216.308 37.5092,-211.025 34.1302,-211.937"/>
</g>
<!-- 12 -->
<g id="node13" class="node"><title>12</title>
<ellipse fill="#a0a0a0" stroke="#00594c" stroke-width="4" cx="95" cy="-288.56" rx="20" ry="20"/>
<text text-anchor="middle" x="95" y="-284.96" font-family="Helvetica,sans-Serif" font-size="12.00">TFL1</text>
</g>
<!-- 4&#45;&gt;12 -->
<g id="edge5" class="edge"><title>4&#45;&gt;12</title>
<path fill="none" stroke="black" stroke-width="1.67" d="M34.568,-184.013C47.6115,-206.578 68.7569,-243.159 82.2625,-266.524"/>
<polygon fill="black" stroke="black" stroke-width="1.67" points="80.8397,-267.56 84.8571,-271.013 83.8699,-265.808 80.8397,-267.56"/>
</g>
<!-- 5 -->
<g id="node6" class="node"><title>5</title>
<ellipse fill="#dcdcdc" stroke="#00594c" stroke-width="4" cx="95" cy="-39.44" rx="18" ry="18"/>
<text text-anchor="middle" x="95" y="-35.84" font-family="Helvetica,sans-Serif" font-size="12.00">EMF1</text>
</g>
<!-- 5&#45;&gt;3 -->
<g id="edge6" class="edge"><title>5&#45;&gt;3</title>
<path fill="none" stroke="black" stroke-width="4" d="M82.0076,-52.4324C75.0063,-59.4337 66.2974,-68.1426 58.8338,-75.6062"/>
<polygon fill="black" stroke="black" stroke-width="4" points="57.581,-74.3841 55.2829,-79.1571 60.0559,-76.859 57.581,-74.3841"/>
</g>
<!-- 6 -->
<g id="node7" class="node"><title>6</title>
<ellipse fill="#5f5f5f" stroke="#00594c" stroke-width="4" cx="167" cy="-20" rx="20" ry="20"/>
<text text-anchor="middle" x="167" y="-16.4" font-family="Helvetica,sans-Serif" font-size="12.00">LFY</text>
</g>
<!-- 5&#45;&gt;6 -->
<g id="edge7" class="edge"><title>5&#45;&gt;6</title>
<path fill="none" stroke="black" stroke-width="2.5" d="M113.211,-40.5315C122.904,-38.9794 134.885,-35.9443 145.083,-32.5256"/>
<polygon fill="black" stroke="black" stroke-width="2.5" points="145.792,-34.1314 149.928,-30.8213 144.63,-30.8297 145.792,-34.1314"/>
</g>
<!-- 5&#45;&gt;12 -->
<g id="edge8" class="edge"><title>5&#45;&gt;12</title>
<path fill="none" stroke="black" stroke-width="1.67" d="M95,-57.7584C95,-101.667 95,-212.991 95,-263.251"/>
<polygon fill="black" stroke="black" stroke-width="1.67" points="93.2501,-263.495 95,-268.495 96.7501,-263.495 93.2501,-263.495"/>
</g>
<!-- 6&#45;&gt;0 -->
<g id="edge9" class="edge"><title>6&#45;&gt;0</title>
<path fill="none" stroke="black" stroke-width="2.31" d="M177.193,-37.6762C198.483,-74.5948 247.875,-160.246 274.242,-205.969"/>
<polygon fill="black" stroke="black" stroke-width="2.31" points="272.862,-207.078 276.875,-210.535 275.894,-205.33 272.862,-207.078"/>
</g>
<!-- 6&#45;&gt;5 -->
<g id="edge10" class="edge"><title>6&#45;&gt;5</title>
<path fill="none" stroke="black" stroke-width="4" d="M146.897,-19.2251C136.917,-20.9646 124.906,-24.1195 114.948,-27.5871"/>
<polygon fill="black" stroke="black" stroke-width="4" points="114.336,-25.9476 110.242,-29.3097 115.539,-29.2343 114.336,-25.9476"/>
</g>
<!-- 9 -->
<g id="node10" class="node"><title>9</title>
<ellipse fill="#a0a0a0" stroke="#00594c" stroke-width="4" cx="311" cy="-164" rx="27.5" ry="27.5"/>
<text text-anchor="middle" x="311" y="-160.4" font-family="Helvetica,sans-Serif" font-size="12.00">AG</text>
</g>
<!-- 6&#45;&gt;9 -->
<g id="edge11" class="edge"><title>6&#45;&gt;9</title>
<path fill="none" stroke="black" stroke-width="3.3" d="M181.334,-34.3337C206.217,-59.2168 257.619,-110.619 287.693,-140.693"/>
<polygon fill="black" stroke="black" stroke-width="3.3" points="286.478,-141.953 291.251,-144.251 288.953,-139.478 286.478,-141.953"/>
</g>
<!-- 6&#45;&gt;12 -->
<g id="edge12" class="edge"><title>6&#45;&gt;12</title>
<path fill="none" stroke="black" stroke-width="1.67" d="M158.245,-38.3553C141.57,-85.3378 108.044,-209.932 97.5143,-263.508"/>
<polygon fill="black" stroke="black" stroke-width="1.67" points="95.7865,-263.226 96.5684,-268.466 99.2245,-263.882 95.7865,-263.226"/>
</g>
<!-- 6&#45;&gt;13 -->
<g id="edge13" class="edge"><title>6&#45;&gt;13</title>
<path fill="none" stroke="black" stroke-width="3.08" d="M172.294,-39.7479C184.589,-85.6061 215.171,-199.679 230.276,-256.018"/>
<polygon fill="black" stroke="black" stroke-width="3.08" points="228.615,-256.582 231.6,-260.958 231.996,-255.676 228.615,-256.582"/>
</g>
<!-- 14 -->
<g id="node15" class="node"><title>14</title>
<ellipse fill="#c3c3c3" stroke="#00594c" stroke-width="4" cx="239" cy="-39.44" rx="18" ry="18"/>
<text text-anchor="middle" x="239" y="-35.84" font-family="Helvetica,sans-Serif" font-size="12.00">SEP</text>
</g>
<!-- 6&#45;&gt;14 -->
<g id="edge14" class="edge"><title>6&#45;&gt;14</title>
<path fill="none" stroke="black" stroke-width="4" d="M186.674,-25.3121C195.893,-27.8011 206.923,-30.7793 216.475,-33.3583"/>
<polygon fill="black" stroke="black" stroke-width="4" points="216.034,-35.0519 221.318,-34.6658 216.947,-31.6729 216.034,-35.0519"/>
</g>
<!-- 7 -->
<g id="node8" class="node"><title>7</title>
<ellipse fill="#f1f1f1" stroke="#00594c" stroke-width="4" cx="167" cy="-308" rx="18" ry="18"/>
<text text-anchor="middle" x="167" y="-304.4" font-family="Helvetica,sans-Serif" font-size="12.00">AP2</text>
</g>
<!-- 7&#45;&gt;9 -->
<g id="edge15" class="edge"><title>7&#45;&gt;9</title>
<path fill="none" stroke="black" stroke-width="1.73" d="M179.779,-295.221C203.988,-271.012 256.855,-218.145 287.586,-187.414"/>
<polygon fill="black" stroke="black" stroke-width="1.73" points="288.922,-188.552 291.221,-183.779 286.448,-186.078 288.922,-188.552"/>
</g>
<!-- 8 -->
<g id="node9" class="node"><title>8</title>
<ellipse fill="#f1f1f1" stroke="#00594c" stroke-width="4" cx="291.56" cy="-92" rx="22.5" ry="22.5"/>
<text text-anchor="middle" x="291.56" y="-88.4" font-family="Helvetica,sans-Serif" font-size="12.00">WUS</text>
</g>
<!-- 8&#45;&gt;8 -->
<g id="edge16" class="edge"><title>8&#45;&gt;8</title>
<path fill="none" stroke="black" stroke-width="3.25" d="M313.227,-98.6165C323.278,-99.3383 332.06,-97.1328 332.06,-92 332.06,-87.7494 326.037,-85.5063 318.259,-85.2707"/>
<polygon fill="black" stroke="black" stroke-width="3.25" points="318.186,-83.5218 313.227,-85.3835 318.265,-87.0209 318.186,-83.5218"/>
</g>
<!-- 9&#45;&gt;4 -->
<g id="edge17" class="edge"><title>9&#45;&gt;4</title>
<path fill="none" stroke="black" stroke-width="3.62" d="M283.385,-164C228.557,-164 106.492,-164 51.1934,-164"/>
<polygon fill="black" stroke="black" stroke-width="3.62" points="51.0549,-162.25 46.0549,-164 51.0549,-165.75 51.0549,-162.25"/>
</g>
<!-- 9&#45;&gt;13 -->
<g id="edge18" class="edge"><title>9&#45;&gt;13</title>
<path fill="none" stroke="black" stroke-width="1.72" d="M297.118,-188.016C285.367,-208.344 268.484,-237.552 255.94,-259.254"/>
<polygon fill="black" stroke="black" stroke-width="1.72" points="254.32,-258.56 253.333,-263.765 257.35,-260.312 254.32,-258.56"/>
</g>
<!-- 10 -->
<g id="node11" class="node"><title>10</title>
<ellipse fill="#ffffff" stroke="#00594c" stroke-width="4" cx="419" cy="-236" rx="18" ry="18"/>
<text text-anchor="middle" x="419" y="-232.4" font-family="Helvetica,sans-Serif" font-size="12.00">LUG</text>
</g>
<!-- 11 -->
<g id="node12" class="node"><title>11</title>
<ellipse fill="#ffffff" stroke="#00594c" stroke-width="4" cx="419" cy="-164" rx="18" ry="18"/>
<text text-anchor="middle" x="419" y="-160.4" font-family="Helvetica,sans-Serif" font-size="12.00">CLF</text>
</g>
<!-- 12&#45;&gt;2 -->
<g id="edge19" class="edge"><title>12&#45;&gt;2</title>
<path fill="none" stroke="black" stroke-width="2.5" d="M80.6377,-274.198C74.3803,-267.94 66.9791,-260.539 60.3657,-253.926"/>
<polygon fill="black" stroke="black" stroke-width="2.5" points="61.5579,-252.643 56.7849,-250.345 59.083,-255.118 61.5579,-252.643"/>
</g>
<!-- 12&#45;&gt;6 -->
<g id="edge20" class="edge"><title>12&#45;&gt;6</title>
<path fill="none" stroke="black" stroke-width="2.5" d="M103.755,-270.205C120.43,-223.222 153.956,-98.6277 164.486,-45.0523"/>
<polygon fill="black" stroke="black" stroke-width="2.5" points="166.214,-45.3337 165.432,-40.0943 162.776,-44.6778 166.214,-45.3337"/>
</g>
<!-- 12&#45;&gt;7 -->
<g id="edge21" class="edge"><title>12&#45;&gt;7</title>
<path fill="none" stroke="black" stroke-width="4" d="M114.674,-293.872C123.893,-296.361 134.923,-299.339 144.475,-301.918"/>
<polygon fill="black" stroke="black" stroke-width="4" points="144.034,-303.612 149.318,-303.226 144.947,-300.233 144.034,-303.612"/>
</g>
</g>
</svg>
