<?xml version="1.0" encoding="UTF-8" standalone="no"?>
<!DOCTYPE svg PUBLIC "-//W3C//DTD SVG 1.1//EN"
 "http://www.w3.org/Graphics/SVG/1.1/DTD/svg11.dtd">
<!-- Generated by graphviz version 2.36.0 (20140111.2315)
 -->
<!-- Title: Structural Graph Pages: 1 -->
<svg width="360pt" height="260pt"
 viewBox="0.00 0.00 360.00 259.70" xmlns="http://www.w3.org/2000/svg" xmlns:xlink="http://www.w3.org/1999/xlink">
<g id="graph0" class="graph" transform="scale(0.777538 0.777538) rotate(0) translate(4 330)">
<title>Structural Graph</title>
<polygon fill="white" stroke="none" points="-4,4 -4,-330 459,-330 459,4 -4,4"/>
<!-- 0 -->
<g id="node1" class="node"><title>0</title>
<ellipse fill="#f1f1f1" stroke="#00594c" stroke-width="4" cx="291.56" cy="-236" rx="29" ry="29"/>
<text text-anchor="middle" x="291.56" y="-232.4" font-family="Helvetica,sans-Serif" font-size="12.00">AP3</text>
</g>
<!-- 0&#45;&gt;0 -->
<g id="edge1" class="edge"><title>0&#45;&gt;0</title>
<path fill="none" stroke="black" stroke-width="1.12" d="M320.011,-242.743C330.229,-242.888 338.56,-240.641 338.56,-236 338.56,-232.157 332.847,-229.955 325.08,-229.394"/>
<polygon fill="black" stroke="black" stroke-width="1.12" points="325.057,-227.643 320.011,-229.257 324.962,-231.141 325.057,-227.643"/>
</g>
<!-- 13 -->
<g id="node14" class="node"><title>13</title>
<ellipse fill="#f1f1f1" stroke="#00594c" stroke-width="4" cx="239" cy="-288.56" rx="28.5" ry="28.5"/>
<text text-anchor="middle" x="239" y="-284.96" font-family="Helvetica,sans-Serif" font-size="12.00">PI</text>
</g>
<!-- 0&#45;&gt;13 -->
<g id="edge2" class="edge"><title>0&#45;&gt;13</title>
<path fill="none" stroke="black" stroke-width="2.06" d="M266.733,-251.514C263.62,-254.394 260.483,-257.474 257.487,-260.584"/>
<polygon fill="black" stroke="black" stroke-width="2.06" points="256.199,-259.399 254.047,-264.24 258.748,-261.798 256.199,-259.399"/>
</g>
<!-- 1 -->
<g id="node2" class="node"><title>1</title>
<ellipse fill="#f1f1f1" stroke="#00594c" stroke-width="4" cx="419" cy="-308" rx="18" ry="18"/>
<text text-anchor="middle" x="419" y="-304.4" font-family="Helvetica,sans-Serif" font-size="12.00">UFO</text>
</g>
<!-- 1&#45;&gt;0 -->
<g id="edge3" class="edge"><title>1&#45;&gt;0</title>
<path fill="none" stroke="black" stroke-width="2.31" d="M403.117,-299.027C382.766,-287.529 347.071,-267.362 321.536,-252.936"/>
<polygon fill="black" stroke="black" stroke-width="2.31" points="322.107,-251.248 316.893,-250.312 320.385,-254.295 322.107,-251.248"/>
</g>
<!-- 1&#45;&gt;1 -->
<g id="edge4" class="edge"><title>1&#45;&gt;1</title>
<path fill="none" stroke="black" stroke-width="4" d="M436.037,-314.379C445.858,-315.681 455,-313.555 455,-308 455,-303.487 448.965,-301.237 441.434,-301.25"/>
<polygon fill="black" stroke="black" stroke-width="4" points="440.906,-299.532 436.037,-301.621 441.146,-303.024 440.906,-299.532"/>
</g>
<!-- 2 -->
<g id="node3" class="node"><title>2</title>
<ellipse fill="#ffffff" stroke="#00594c" stroke-width="4" cx="42.44" cy="-236" rx="20" ry="20"/>
<text text-anchor="middle" x="42.44" y="-232.4" font-family="Helvetica,sans-Serif" font-size="12.00">FUL</text>
</g>
<!-- 6 -->
<g id="node7" class="node"><title>6</title>
<ellipse fill="#5f5f5f" stroke="#00594c" stroke-width="4" cx="167" cy="-20" rx="20" ry="20"/>
<text text-anchor="middle" x="167" y="-16.4" font-family="Helvetica,sans-Serif" font-size="12.00">LFY</text>
</g>
<!-- 2&#45;&gt;6 -->
<g id="edge5" class="edge"><title>2&#45;&gt;6</title>
<path fill="none" stroke="#a90533" stroke-width="4" stroke-dasharray="5,2" d="M52.6333,-218.324C75.2255,-179.147 129.463,-85.0923 154.251,-42.1077"/>
<polygon fill="#a90533" stroke="#a90533" stroke-width="4" points="155.859,-42.8232 156.841,-37.6175 152.827,-41.0747 155.859,-42.8232"/>
</g>
<!-- 3 -->
<g id="node4" class="node"><title>3</title>
<ellipse fill="#ffffff" stroke="#00594c" stroke-width="4" cx="42.44" cy="-92" rx="18" ry="18"/>
<text text-anchor="middle" x="42.44" y="-88.4" font-family="Helvetica,sans-Serif" font-size="12.00">FT</text>
</g>
<!-- 4 -->
<g id="node5" class="node"><title>4</title>
<ellipse fill="#7e7e7e" stroke="#00594c" stroke-width="4" cx="23" cy="-164" rx="23" ry="23"/>
<text text-anchor="middle" x="23" y="-160.4" font-family="Helvetica,sans-Serif" font-size="12.00">AP1</text>
</g>
<!-- 3&#45;&gt;4 -->
<g id="edge6" class="edge"><title>3&#45;&gt;4</title>
<path fill="none" stroke="black" stroke-width="0.96" d="M37.7341,-109.429C35.5345,-117.576 32.8631,-127.47 30.4022,-136.585"/>
<polygon fill="black" stroke="black" stroke-width="0.96" points="28.6749,-136.269 29.061,-141.552 32.0539,-137.181 28.6749,-136.269"/>
</g>
<!-- 4&#45;&gt;0 -->
<g id="edge7" class="edge"><title>4&#45;&gt;0</title>
<path fill="none" stroke="black" stroke-width="0.52" d="M45.4354,-170.015C92.7935,-182.711 203.155,-212.299 258.572,-227.156"/>
<polygon fill="black" stroke="black" stroke-width="0.52" points="258.154,-228.856 263.437,-228.46 259.06,-225.475 258.154,-228.856"/>
</g>
<!-- 4&#45;&gt;2 -->
<g id="edge8" class="edge"><title>4&#45;&gt;2</title>
<path fill="none" stroke="black" stroke-width="2.5" d="M29.0444,-186.387C31.1858,-194.318 33.6063,-203.283 35.7949,-211.389"/>
<polygon fill="black" stroke="black" stroke-width="2.5" points="34.1302,-211.937 37.1231,-216.308 37.5092,-211.025 34.1302,-211.937"/>
</g>
<!-- 4&#45;&gt;6 -->
<g id="edge9" class="edge"><title>4&#45;&gt;6</title>
<path fill="none" stroke="#a90533" stroke-width="4" stroke-dasharray="5,2" d="M42.095,-151.174C71.4307,-126.127 126.568,-71.0691 152.726,-40.7805"/>
<polygon fill="#a90533" stroke="#a90533" stroke-width="4" points="154.159,-41.7967 156.069,-36.8555 151.495,-39.5271 154.159,-41.7967"/>
</g>
<!-- 9 -->
<g id="node10" class="node"><title>9</title>
<ellipse fill="#a0a0a0" stroke="#00594c" stroke-width="4" cx="311" cy="-164" rx="27.5" ry="27.5"/>
<text text-anchor="middle" x="311" y="-160.4" font-family="Helvetica,sans-Serif" font-size="12.00">AG</text>
</g>
<!-- 4&#45;&gt;9 -->
<g id="edge10" class="edge"><title>4&#45;&gt;9</title>
<path fill="none" stroke="black" stroke-width="0.41" d="M46.0814,-167.878C97.1314,-171.501 219.736,-171.696 278.509,-168.464"/>
<polygon fill="black" stroke="black" stroke-width="0.41" points="278.763,-170.202 283.652,-168.162 278.558,-166.708 278.763,-170.202"/>
</g>
<!-- 12 -->
<g id="node13" class="node"><title>12</title>
<ellipse fill="#a0a0a0" stroke="#00594c" stroke-width="4" cx="95" cy="-288.56" rx="20" ry="20"/>
<text text-anchor="middle" x="95" y="-284.96" font-family="Helvetica,sans-Serif" font-size="12.00">TFL1</text>
</g>
<!-- 4&#45;&gt;12 -->
<g id="edge11" class="edge"><title>4&#45;&gt;12</title>
<path fill="none" stroke="black" stroke-width="1.67" d="M29.867,-185.996C41.099,-209.799 62.6805,-247.256 78.067,-269.745"/>
<polygon fill="black" stroke="black" stroke-width="1.67" points="76.7621,-270.934 81.0568,-274.035 79.6336,-268.932 76.7621,-270.934"/>
</g>
<!-- 4&#45;&gt;13 -->
<g id="edge12" class="edge"><title>4&#45;&gt;13</title>
<path fill="none" stroke="black" stroke-width="0.35" d="M42.9336,-175.495C81.2016,-197.563 165.114,-245.953 209.74,-271.687"/>
<polygon fill="black" stroke="black" stroke-width="0.35" points="208.99,-273.274 214.196,-274.256 210.739,-270.242 208.99,-273.274"/>
</g>
<!-- 5 -->
<g id="node6" class="node"><title>5</title>
<ellipse fill="#dcdcdc" stroke="#00594c" stroke-width="4" cx="95" cy="-39.44" rx="18" ry="18"/>
<text text-anchor="middle" x="95" y="-35.84" font-family="Helvetica,sans-Serif" font-size="12.00">EMF1</text>
</g>
<!-- 5&#45;&gt;3 -->
<g id="edge13" class="edge"><title>5&#45;&gt;3</title>
<path fill="none" stroke="black" stroke-width="4" d="M82.0076,-52.4324C75.0063,-59.4337 66.2974,-68.1426 58.8338,-75.6062"/>
<polygon fill="black" stroke="black" stroke-width="4" points="57.581,-74.3841 55.2829,-79.1571 60.0559,-76.859 57.581,-74.3841"/>
</g>
<!-- 5&#45;&gt;6 -->
<g id="edge14" class="edge"><title>5&#45;&gt;6</title>
<path fill="none" stroke="black" stroke-width="2.5" d="M113.211,-40.5315C122.904,-38.9794 134.885,-35.9443 145.083,-32.5256"/>
<polygon fill="black" stroke="black" stroke-width="2.5" points="145.792,-34.1314 149.928,-30.8213 144.63,-30.8297 145.792,-34.1314"/>
</g>
<!-- 5&#45;&gt;12 -->
<g id="edge15" class="edge"><title>5&#45;&gt;12</title>
<path fill="none" stroke="black" stroke-width="1.67" d="M95,-57.7584C95,-101.667 95,-212.991 95,-263.251"/>
<polygon fill="black" stroke="black" stroke-width="1.67" points="93.2501,-263.495 95,-268.495 96.7501,-263.495 93.2501,-263.495"/>
</g>
<!-- 6&#45;&gt;0 -->
<g id="edge16" class="edge"><title>6&#45;&gt;0</title>
<path fill="none" stroke="black" stroke-width="2.31" d="M177.193,-37.6762C198.483,-74.5948 247.875,-160.246 274.242,-205.969"/>
<polygon fill="black" stroke="black" stroke-width="2.31" points="272.862,-207.078 276.875,-210.535 275.894,-205.33 272.862,-207.078"/>
</g>
<!-- 6&#45;&gt;4 -->
<g id="edge17" class="edge"><title>6&#45;&gt;4</title>
<path fill="none" stroke="black" stroke-width="0.96" d="M149.953,-31.0917C121.98,-54.5925 67.1046,-109.173 39.497,-140.665"/>
<polygon fill="black" stroke="black" stroke-width="0.96" points="37.899,-139.837 35.9483,-144.762 40.5446,-142.129 37.899,-139.837"/>
</g>
<!-- 6&#45;&gt;5 -->
<g id="edge18" class="edge"><title>6&#45;&gt;5</title>
<path fill="none" stroke="black" stroke-width="4" d="M146.897,-19.2251C136.917,-20.9646 124.906,-24.1195 114.948,-27.5871"/>
<polygon fill="black" stroke="black" stroke-width="4" points="114.336,-25.9476 110.242,-29.3097 115.539,-29.2343 114.336,-25.9476"/>
</g>
<!-- 6&#45;&gt;9 -->
<g id="edge19" class="edge"><title>6&#45;&gt;9</title>
<path fill="none" stroke="black" stroke-width="3.3" d="M181.334,-34.3337C206.217,-59.2168 257.619,-110.619 287.693,-140.693"/>
<polygon fill="black" stroke="black" stroke-width="3.3" points="286.478,-141.953 291.251,-144.251 288.953,-139.478 286.478,-141.953"/>
</g>
<!-- 6&#45;&gt;12 -->
<g id="edge20" class="edge"><title>6&#45;&gt;12</title>
<path fill="none" stroke="black" stroke-width="1.67" d="M158.245,-38.3553C141.57,-85.3378 108.044,-209.932 97.5143,-263.508"/>
<polygon fill="black" stroke="black" stroke-width="1.67" points="95.7865,-263.226 96.5684,-268.466 99.2245,-263.882 95.7865,-263.226"/>
</g>
<!-- 6&#45;&gt;13 -->
<g id="edge21" class="edge"><title>6&#45;&gt;13</title>
<path fill="none" stroke="black" stroke-width="3.08" d="M172.294,-39.7479C184.589,-85.6061 215.171,-199.679 230.276,-256.018"/>
<polygon fill="black" stroke="black" stroke-width="3.08" points="228.615,-256.582 231.6,-260.958 231.996,-255.676 228.615,-256.582"/>
</g>
<!-- 14 -->
<g id="node15" class="node"><title>14</title>
<ellipse fill="#c3c3c3" stroke="#00594c" stroke-width="4" cx="239" cy="-39.44" rx="18" ry="18"/>
<text text-anchor="middle" x="239" y="-35.84" font-family="Helvetica,sans-Serif" font-size="12.00">SEP</text>
</g>
<!-- 6&#45;&gt;14 -->
<g id="edge22" class="edge"><title>6&#45;&gt;14</title>
<path fill="none" stroke="black" stroke-width="4" d="M186.674,-25.3121C195.893,-27.8011 206.923,-30.7793 216.475,-33.3583"/>
<polygon fill="black" stroke="black" stroke-width="4" points="216.034,-35.0519 221.318,-34.6658 216.947,-31.6729 216.034,-35.0519"/>
</g>
<!-- 7 -->
<g id="node8" class="node"><title>7</title>
<ellipse fill="#f1f1f1" stroke="#00594c" stroke-width="4" cx="167" cy="-308" rx="18" ry="18"/>
<text text-anchor="middle" x="167" y="-304.4" font-family="Helvetica,sans-Serif" font-size="12.00">AP2</text>
</g>
<!-- 7&#45;&gt;9 -->
<g id="edge23" class="edge"><title>7&#45;&gt;9</title>
<path fill="none" stroke="black" stroke-width="1.73" d="M179.779,-295.221C203.988,-271.012 256.855,-218.145 287.586,-187.414"/>
<polygon fill="black" stroke="black" stroke-width="1.73" points="288.922,-188.552 291.221,-183.779 286.448,-186.078 288.922,-188.552"/>
</g>
<!-- 7&#45;&gt;12 -->
<g id="edge24" class="edge"><title>7&#45;&gt;12</title>
<path fill="none" stroke="#a90533" stroke-width="4" stroke-dasharray="5,2" d="M151.813,-297.891C142.656,-294.354 130.776,-290.946 120.243,-288.768"/>
<polygon fill="#a90533" stroke="#a90533" stroke-width="4" points="120.439,-287.023 115.199,-287.802 119.78,-290.461 120.439,-287.023"/>
</g>
<!-- 8 -->
<g id="node9" class="node"><title>8</title>
<ellipse fill="#f1f1f1" stroke="#00594c" stroke-width="4" cx="291.56" cy="-92" rx="22.5" ry="22.5"/>
<text text-anchor="middle" x="291.56" y="-88.4" font-family="Helvetica,sans-Serif" font-size="12.00">WUS</text>
</g>
<!-- 8&#45;&gt;8 -->
<g id="edge25" class="edge"><title>8&#45;&gt;8</title>
<path fill="none" stroke="black" stroke-width="3.25" d="M313.227,-98.6165C323.278,-99.3383 332.06,-97.1328 332.06,-92 332.06,-87.7494 326.037,-85.5063 318.259,-85.2707"/>
<polygon fill="black" stroke="black" stroke-width="3.25" points="318.186,-83.5218 313.227,-85.3835 318.265,-87.0209 318.186,-83.5218"/>
</g>
<!-- 8&#45;&gt;9 -->
<g id="edge26" class="edge"><title>8&#45;&gt;9</title>
<path fill="none" stroke="black" stroke-width="0.41" d="M291.286,-114.833C292.506,-121.171 294.223,-128.138 296.182,-134.786"/>
<polygon fill="black" stroke="black" stroke-width="0.41" points="294.579,-135.528 297.722,-139.792 297.924,-134.498 294.579,-135.528"/>
</g>
<!-- 9&#45;&gt;0 -->
<g id="edge27" class="edge"><title>9&#45;&gt;0</title>
<path fill="none" stroke="black" stroke-width="0.52" d="M303.761,-190.81C302.699,-194.746 301.594,-198.839 300.502,-202.883"/>
<polygon fill="black" stroke="black" stroke-width="0.52" points="298.744,-202.68 299.13,-207.963 302.123,-203.592 298.744,-202.68"/>
</g>
<!-- 9&#45;&gt;4 -->
<g id="edge28" class="edge"><title>9&#45;&gt;4</title>
<path fill="none" stroke="black" stroke-width="3.62" d="M283.646,-159.838C228.829,-156.398 106.063,-156.388 50.8442,-159.807"/>
<polygon fill="black" stroke="black" stroke-width="3.62" points="50.5884,-158.07 45.7158,-160.149 50.8211,-161.562 50.5884,-158.07"/>
</g>
<!-- 9&#45;&gt;8 -->
<g id="edge29" class="edge"><title>9&#45;&gt;8</title>
<path fill="none" stroke="black" stroke-width="1.5" d="M310.269,-136.309C308.808,-129.678 306.909,-122.65 304.832,-116.191"/>
<polygon fill="black" stroke="black" stroke-width="1.5" points="306.466,-115.56 303.214,-111.379 303.149,-116.676 306.466,-115.56"/>
</g>
<!-- 9&#45;&gt;9 -->
<g id="edge30" class="edge"><title>9&#45;&gt;9</title>
<path fill="none" stroke="black" stroke-width="0.19" d="M338.093,-170.735C348.189,-170.956 356.5,-168.711 356.5,-164 356.5,-160.099 350.8,-157.889 343.107,-157.37"/>
<polygon fill="black" stroke="black" stroke-width="0.19" points="343.128,-155.62 338.093,-157.265 343.055,-159.119 343.128,-155.62"/>
</g>
<!-- 9&#45;&gt;13 -->
<g id="edge31" class="edge"><title>9&#45;&gt;13</title>
<path fill="none" stroke="black" stroke-width="1.72" d="M297.118,-188.016C285.367,-208.344 268.484,-237.552 255.94,-259.254"/>
<polygon fill="black" stroke="black" stroke-width="1.72" points="254.32,-258.56 253.333,-263.765 257.35,-260.312 254.32,-258.56"/>
</g>
<!-- 10 -->
<g id="node11" class="node"><title>10</title>
<ellipse fill="#ffffff" stroke="#00594c" stroke-width="4" cx="419" cy="-236" rx="18" ry="18"/>
<text text-anchor="middle" x="419" y="-232.4" font-family="Helvetica,sans-Serif" font-size="12.00">LUG</text>
</g>
<!-- 10&#45;&gt;9 -->
<g id="edge32" class="edge"><title>10&#45;&gt;9</title>
<path fill="none" stroke="black" stroke-width="0.41" d="M403.983,-225.989C387.1,-214.734 359.333,-196.222 338.529,-182.353"/>
<polygon fill="black" stroke="black" stroke-width="0.41" points="339.333,-180.785 334.202,-179.468 337.391,-183.698 339.333,-180.785"/>
</g>
<!-- 11 -->
<g id="node12" class="node"><title>11</title>
<ellipse fill="#ffffff" stroke="#00594c" stroke-width="4" cx="419" cy="-164" rx="18" ry="18"/>
<text text-anchor="middle" x="419" y="-160.4" font-family="Helvetica,sans-Serif" font-size="12.00">CLF</text>
</g>
<!-- 11&#45;&gt;9 -->
<g id="edge33" class="edge"><title>11&#45;&gt;9</title>
<path fill="none" stroke="black" stroke-width="0.41" d="M400.679,-164C385.167,-164 362.543,-164 343.901,-164"/>
<polygon fill="black" stroke="black" stroke-width="0.41" points="343.758,-162.25 338.758,-164 343.758,-165.75 343.758,-162.25"/>
</g>
<!-- 12&#45;&gt;2 -->
<g id="edge34" class="edge"><title>12&#45;&gt;2</title>
<path fill="none" stroke="black" stroke-width="2.5" d="M80.6377,-274.198C74.3803,-267.94 66.9791,-260.539 60.3657,-253.926"/>
<polygon fill="black" stroke="black" stroke-width="2.5" points="61.5579,-252.643 56.7849,-250.345 59.083,-255.118 61.5579,-252.643"/>
</g>
<!-- 12&#45;&gt;4 -->
<g id="edge35" class="edge"><title>12&#45;&gt;4</title>
<path fill="none" stroke="black" stroke-width="0.96" d="M89.31,-269.091C78.862,-246.344 57.4953,-208.946 41.6887,-185.406"/>
<polygon fill="black" stroke="black" stroke-width="0.96" points="43.0687,-184.323 38.8058,-181.178 40.177,-186.295 43.0687,-184.323"/>
</g>
<!-- 12&#45;&gt;6 -->
<g id="edge36" class="edge"><title>12&#45;&gt;6</title>
<path fill="none" stroke="black" stroke-width="2.5" d="M103.755,-270.205C120.43,-223.222 153.956,-98.6277 164.486,-45.0523"/>
<polygon fill="black" stroke="black" stroke-width="2.5" points="166.214,-45.3337 165.432,-40.0943 162.776,-44.6778 166.214,-45.3337"/>
</g>
<!-- 12&#45;&gt;7 -->
<g id="edge37" class="edge"><title>12&#45;&gt;7</title>
<path fill="none" stroke="black" stroke-width="4" d="M111.981,-299.348C121.48,-302.867 133.447,-306.186 143.797,-308.202"/>
<polygon fill="black" stroke="black" stroke-width="4" points="143.501,-309.927 148.73,-309.082 144.115,-306.481 143.501,-309.927"/>
</g>
<!-- 12&#45;&gt;9 -->
<g id="edge38" class="edge"><title>12&#45;&gt;9</title>
<path fill="none" stroke="black" stroke-width="1.37" d="M112.676,-278.367C149.984,-256.852 237.059,-206.639 282.404,-180.491"/>
<polygon fill="black" stroke="black" stroke-width="1.37" points="283.467,-181.898 286.924,-177.884 281.718,-178.866 283.467,-181.898"/>
</g>
<!-- 13&#45;&gt;0 -->
<g id="edge39" class="edge"><title>13&#45;&gt;0</title>
<path fill="none" stroke="black" stroke-width="1.12" d="M263.515,-273.334C266.427,-270.65 269.367,-267.787 272.195,-264.882"/>
<polygon fill="black" stroke="black" stroke-width="1.12" points="273.796,-265.738 275.971,-260.908 271.259,-263.327 273.796,-265.738"/>
</g>
<!-- 13&#45;&gt;13 -->
<g id="edge40" class="edge"><title>13&#45;&gt;13</title>
<path fill="none" stroke="black" stroke-width="0.77" d="M267.149,-295.303C277.258,-295.448 285.5,-293.201 285.5,-288.56 285.5,-284.717 279.848,-282.515 272.164,-281.954"/>
<polygon fill="black" stroke="black" stroke-width="0.77" points="272.195,-280.204 267.149,-281.817 272.099,-283.703 272.195,-280.204"/>
</g>
<!-- 14&#45;&gt;0 -->
<g id="edge41" class="edge"><title>14&#45;&gt;0</title>
<path fill="none" stroke="black" stroke-width="1.12" d="M243.664,-56.8834C252.404,-89.567 271.377,-160.52 282.643,-202.654"/>
<polygon fill="black" stroke="black" stroke-width="1.12" points="280.996,-203.267 283.978,-207.645 284.377,-202.362 280.996,-203.267"/>
</g>
<!-- 14&#45;&gt;8 -->
<g id="edge42" class="edge"><title>14&#45;&gt;8</title>
<path fill="none" stroke="black" stroke-width="1.5" d="M251.992,-52.4324C257.943,-58.3831 265.127,-65.5672 271.732,-72.1719"/>
<polygon fill="black" stroke="black" stroke-width="1.5" points="270.557,-73.4719 275.33,-75.77 273.032,-70.997 270.557,-73.4719"/>
</g>
<!-- 14&#45;&gt;9 -->
<g id="edge43" class="edge"><title>14&#45;&gt;9</title>
<path fill="none" stroke="black" stroke-width="0.19" d="M248.119,-55.2156C259.732,-75.3063 280.016,-110.397 294.403,-135.288"/>
<polygon fill="black" stroke="black" stroke-width="0.19" points="293,-136.357 297.018,-139.81 296.03,-134.606 293,-136.357"/>
</g>
<!-- 14&#45;&gt;13 -->
<g id="edge44" class="edge"><title>14&#45;&gt;13</title>
<path fill="none" stroke="black" stroke-width="0.77" d="M239,-57.7584C239,-99.3407 239,-201.386 239,-254.769"/>
<polygon fill="black" stroke="black" stroke-width="0.77" points="237.25,-254.779 239,-259.779 240.75,-254.779 237.25,-254.779"/>
</g>
</g>
</svg>
