<?xml version="1.0" encoding="UTF-8" standalone="no"?>
<!DOCTYPE svg PUBLIC "-//W3C//DTD SVG 1.1//EN"
 "http://www.w3.org/Graphics/SVG/1.1/DTD/svg11.dtd">
<!-- Generated by graphviz version 2.36.0 (20140111.2315)
 -->
<!-- Title: Structural Graph Pages: 1 -->
<svg width="360pt" height="262pt"
 viewBox="0.00 0.00 360.00 262.45" xmlns="http://www.w3.org/2000/svg" xmlns:xlink="http://www.w3.org/1999/xlink">
<g id="graph0" class="graph" transform="scale(0.774194 0.774194) rotate(0) translate(4 335)">
<title>Structural Graph</title>
<polygon fill="white" stroke="none" points="-4,4 -4,-335 461,-335 461,4 -4,4"/>
<!-- 0 -->
<g id="node1" class="node"><title>0</title>
<ellipse fill="white" stroke="#00594c" stroke-width="4" cx="290.06" cy="-237.5" rx="21.5" ry="21.5"/>
<text text-anchor="middle" x="290.06" y="-233.9" font-family="Helvetica,sans-Serif" font-size="12.00">AP3</text>
</g>
<!-- 0&#45;&gt;0 -->
<g id="edge1" class="edge"><title>0&#45;&gt;0</title>
<path fill="none" stroke="black" stroke-width="4" d="M310.788,-244.085C320.759,-244.898 329.56,-242.703 329.56,-237.5 329.56,-233.191 323.524,-230.945 315.787,-230.762"/>
<polygon fill="black" stroke="black" stroke-width="4" points="315.733,-229.013 310.788,-230.915 315.839,-232.511 315.733,-229.013"/>
</g>
<!-- 13 -->
<g id="node14" class="node"><title>13</title>
<ellipse fill="white" stroke="#00594c" stroke-width="4" cx="237.5" cy="-290.06" rx="21.5" ry="21.5"/>
<text text-anchor="middle" x="237.5" y="-286.46" font-family="Helvetica,sans-Serif" font-size="12.00">PI</text>
</g>
<!-- 0&#45;&gt;13 -->
<g id="edge2" class="edge"><title>0&#45;&gt;13</title>
<path fill="none" stroke="black" stroke-width="4" d="M271.089,-247.811C264.67,-253.265 257.652,-260.106 251.659,-266.712"/>
<polygon fill="black" stroke="black" stroke-width="4" points="250.067,-265.871 248.075,-270.78 252.693,-268.185 250.067,-265.871"/>
</g>
<!-- 1 -->
<g id="node2" class="node"><title>1</title>
<ellipse fill="white" stroke="#00594c" stroke-width="4" cx="417.5" cy="-309.5" rx="21.5" ry="21.5"/>
<text text-anchor="middle" x="417.5" y="-305.9" font-family="Helvetica,sans-Serif" font-size="12.00">UFO</text>
</g>
<!-- 1&#45;&gt;0 -->
<g id="edge3" class="edge"><title>1&#45;&gt;0</title>
<path fill="none" stroke="black" stroke-width="4" d="M398.696,-298.876C376.013,-286.061 337.88,-264.517 313.355,-250.661"/>
<polygon fill="black" stroke="black" stroke-width="4" points="314.155,-249.103 308.941,-248.167 312.434,-252.151 314.155,-249.103"/>
</g>
<!-- 1&#45;&gt;1 -->
<g id="edge4" class="edge"><title>1&#45;&gt;1</title>
<path fill="none" stroke="black" stroke-width="4" d="M438.228,-316.085C448.199,-316.898 457,-314.703 457,-309.5 457,-305.191 450.964,-302.945 443.227,-302.762"/>
<polygon fill="black" stroke="black" stroke-width="4" points="443.173,-301.013 438.228,-302.915 443.279,-304.511 443.173,-301.013"/>
</g>
<!-- 2 -->
<g id="node3" class="node"><title>2</title>
<ellipse fill="white" stroke="#00594c" stroke-width="4" cx="40.94" cy="-237.5" rx="21.5" ry="21.5"/>
<text text-anchor="middle" x="40.94" y="-233.9" font-family="Helvetica,sans-Serif" font-size="12.00">FUL</text>
</g>
<!-- 6 -->
<g id="node7" class="node"><title>6</title>
<ellipse fill="white" stroke="#00594c" stroke-width="4" cx="165.5" cy="-21.5" rx="21.5" ry="21.5"/>
<text text-anchor="middle" x="165.5" y="-17.9" font-family="Helvetica,sans-Serif" font-size="12.00">LFY</text>
</g>
<!-- 2&#45;&gt;6 -->
<g id="edge5" class="edge"><title>2&#45;&gt;6</title>
<path fill="none" stroke="black" stroke-width="4" d="M51.776,-218.709C74.505,-179.295 127.112,-88.0685 151.994,-44.9213"/>
<polygon fill="black" stroke="black" stroke-width="4" points="153.619,-45.6068 154.6,-40.4011 150.587,-43.8583 153.619,-45.6068"/>
</g>
<!-- 3 -->
<g id="node4" class="node"><title>3</title>
<ellipse fill="white" stroke="#00594c" stroke-width="4" cx="40.94" cy="-93.5" rx="21.5" ry="21.5"/>
<text text-anchor="middle" x="40.94" y="-89.9" font-family="Helvetica,sans-Serif" font-size="12.00">FT</text>
</g>
<!-- 4 -->
<g id="node5" class="node"><title>4</title>
<ellipse fill="white" stroke="#00594c" stroke-width="4" cx="21.5" cy="-165.5" rx="21.5" ry="21.5"/>
<text text-anchor="middle" x="21.5" y="-161.9" font-family="Helvetica,sans-Serif" font-size="12.00">AP1</text>
</g>
<!-- 3&#45;&gt;4 -->
<g id="edge6" class="edge"><title>3&#45;&gt;4</title>
<path fill="none" stroke="black" stroke-width="4" d="M35.3171,-114.325C33.1999,-122.167 30.7651,-131.185 28.535,-139.444"/>
<polygon fill="black" stroke="black" stroke-width="4" points="26.7915,-139.189 27.1776,-144.472 30.1705,-140.101 26.7915,-139.189"/>
</g>
<!-- 4&#45;&gt;0 -->
<g id="edge7" class="edge"><title>4&#45;&gt;0</title>
<path fill="none" stroke="black" stroke-width="4" d="M42.5735,-171.15C91.2079,-184.188 211.167,-216.349 264.169,-230.559"/>
<polygon fill="black" stroke="black" stroke-width="4" points="263.802,-232.272 269.084,-231.877 264.708,-228.891 263.802,-232.272"/>
</g>
<!-- 4&#45;&gt;2 -->
<g id="edge8" class="edge"><title>4&#45;&gt;2</title>
<path fill="none" stroke="black" stroke-width="4" d="M27.1229,-186.325C29.2401,-194.167 31.6749,-203.185 33.905,-211.444"/>
<polygon fill="black" stroke="black" stroke-width="4" points="32.2695,-212.101 35.2624,-216.472 35.6485,-211.189 32.2695,-212.101"/>
</g>
<!-- 4&#45;&gt;6 -->
<g id="edge9" class="edge"><title>4&#45;&gt;6</title>
<path fill="none" stroke="black" stroke-width="4" d="M39.7065,-153.43C68.4244,-129.073 123.344,-74.3308 150.176,-43.4913"/>
<polygon fill="black" stroke="black" stroke-width="4" points="151.686,-44.4201 153.616,-39.4869 149.03,-42.1397 151.686,-44.4201"/>
</g>
<!-- 9 -->
<g id="node10" class="node"><title>9</title>
<ellipse fill="white" stroke="#00594c" stroke-width="4" cx="309.5" cy="-165.5" rx="21.5" ry="21.5"/>
<text text-anchor="middle" x="309.5" y="-161.9" font-family="Helvetica,sans-Serif" font-size="12.00">AG</text>
</g>
<!-- 4&#45;&gt;9 -->
<g id="edge10" class="edge"><title>4&#45;&gt;9</title>
<path fill="none" stroke="black" stroke-width="4" d="M42.6773,-169.238C94.273,-173.128 226.391,-173.25 283.049,-169.605"/>
<polygon fill="black" stroke="black" stroke-width="4" points="283.425,-171.333 288.292,-169.241 283.182,-167.842 283.425,-171.333"/>
</g>
<!-- 12 -->
<g id="node13" class="node"><title>12</title>
<ellipse fill="white" stroke="#00594c" stroke-width="4" cx="93.5" cy="-290.06" rx="21.5" ry="21.5"/>
<text text-anchor="middle" x="93.5" y="-286.46" font-family="Helvetica,sans-Serif" font-size="12.00">TFL1</text>
</g>
<!-- 4&#45;&gt;12 -->
<g id="edge11" class="edge"><title>4&#45;&gt;12</title>
<path fill="none" stroke="black" stroke-width="4" d="M27.8336,-186.359C38.6555,-209.559 59.951,-246.684 75.5061,-269.685"/>
<polygon fill="black" stroke="black" stroke-width="4" points="74.2599,-270.962 78.5357,-274.089 77.1434,-268.978 74.2599,-270.962"/>
</g>
<!-- 4&#45;&gt;13 -->
<g id="edge12" class="edge"><title>4&#45;&gt;13</title>
<path fill="none" stroke="black" stroke-width="4" d="M40.2907,-176.336C79.7051,-199.065 170.931,-251.672 214.079,-276.554"/>
<polygon fill="black" stroke="black" stroke-width="4" points="213.393,-278.179 218.599,-279.16 215.142,-275.147 213.393,-278.179"/>
</g>
<!-- 5 -->
<g id="node6" class="node"><title>5</title>
<ellipse fill="white" stroke="#00594c" stroke-width="4" cx="93.5" cy="-40.94" rx="21.5" ry="21.5"/>
<text text-anchor="middle" x="93.5" y="-37.34" font-family="Helvetica,sans-Serif" font-size="12.00">EMF1</text>
</g>
<!-- 5&#45;&gt;3 -->
<g id="edge13" class="edge"><title>5&#45;&gt;3</title>
<path fill="none" stroke="black" stroke-width="4" d="M78.0145,-56.4255C72.3974,-62.0426 65.9839,-68.4561 60.0885,-74.3515"/>
<polygon fill="black" stroke="black" stroke-width="4" points="58.7945,-73.1706 56.4964,-77.9436 61.2694,-75.6455 58.7945,-73.1706"/>
</g>
<!-- 5&#45;&gt;6 -->
<g id="edge14" class="edge"><title>5&#45;&gt;6</title>
<path fill="none" stroke="black" stroke-width="4" d="M115.152,-41.4366C123.603,-39.8741 133.31,-37.3746 141.936,-34.5695"/>
<polygon fill="black" stroke="black" stroke-width="4" points="142.98,-36.062 147.145,-32.789 141.848,-32.7501 142.98,-36.062"/>
</g>
<!-- 5&#45;&gt;12 -->
<g id="edge15" class="edge"><title>5&#45;&gt;12</title>
<path fill="none" stroke="black" stroke-width="4" d="M93.5,-62.612C93.5,-108.07 93.5,-213.284 93.5,-263.047"/>
<polygon fill="black" stroke="black" stroke-width="4" points="91.7501,-263.261 93.5,-268.261 95.2501,-263.261 91.7501,-263.261"/>
</g>
<!-- 6&#45;&gt;0 -->
<g id="edge16" class="edge"><title>6&#45;&gt;0</title>
<path fill="none" stroke="black" stroke-width="4" d="M176.336,-40.2907C199.065,-79.7051 251.672,-170.931 276.554,-214.079"/>
<polygon fill="black" stroke="black" stroke-width="4" points="275.147,-215.142 279.16,-218.599 278.179,-213.393 275.147,-215.142"/>
</g>
<!-- 6&#45;&gt;4 -->
<g id="edge17" class="edge"><title>6&#45;&gt;4</title>
<path fill="none" stroke="black" stroke-width="4" d="M147.294,-33.5703C118.576,-57.9266 63.6558,-112.669 36.8235,-143.509"/>
<polygon fill="black" stroke="black" stroke-width="4" points="35.3144,-142.58 33.3842,-147.513 37.9695,-144.86 35.3144,-142.58"/>
</g>
<!-- 6&#45;&gt;5 -->
<g id="edge18" class="edge"><title>6&#45;&gt;5</title>
<path fill="none" stroke="black" stroke-width="4" d="M143.848,-21.0034C135.397,-22.5659 125.69,-25.0654 117.064,-27.8706"/>
<polygon fill="black" stroke="black" stroke-width="4" points="116.02,-26.378 111.855,-29.651 117.152,-29.69 116.02,-26.378"/>
</g>
<!-- 6&#45;&gt;9 -->
<g id="edge19" class="edge"><title>6&#45;&gt;9</title>
<path fill="none" stroke="black" stroke-width="4" d="M180.911,-36.9105C207.436,-63.4355 261.642,-117.642 290.475,-146.475"/>
<polygon fill="black" stroke="black" stroke-width="4" points="289.427,-147.902 294.2,-150.2 291.902,-145.427 289.427,-147.902"/>
</g>
<!-- 6&#45;&gt;12 -->
<g id="edge20" class="edge"><title>6&#45;&gt;12</title>
<path fill="none" stroke="black" stroke-width="4" d="M156.291,-41.1414C139.64,-88.5857 107.118,-209.426 96.3393,-263.368"/>
<polygon fill="black" stroke="black" stroke-width="4" points="94.6024,-263.132 95.3653,-268.375 98.038,-263.801 94.6024,-263.132"/>
</g>
<!-- 6&#45;&gt;13 -->
<g id="edge21" class="edge"><title>6&#45;&gt;13</title>
<path fill="none" stroke="black" stroke-width="4" d="M171.15,-42.5735C184.188,-91.2079 216.349,-211.167 230.559,-264.169"/>
<polygon fill="black" stroke="black" stroke-width="4" points="228.891,-264.708 231.877,-269.084 232.272,-263.802 228.891,-264.708"/>
</g>
<!-- 14 -->
<g id="node15" class="node"><title>14</title>
<ellipse fill="white" stroke="#00594c" stroke-width="4" cx="237.5" cy="-40.94" rx="21.5" ry="21.5"/>
<text text-anchor="middle" x="237.5" y="-37.34" font-family="Helvetica,sans-Serif" font-size="12.00">SEP</text>
</g>
<!-- 6&#45;&gt;14 -->
<g id="edge22" class="edge"><title>6&#45;&gt;14</title>
<path fill="none" stroke="black" stroke-width="4" d="M186.325,-27.1229C194.167,-29.2401 203.185,-31.6749 211.444,-33.905"/>
<polygon fill="black" stroke="black" stroke-width="4" points="211.189,-35.6485 216.472,-35.2624 212.101,-32.2695 211.189,-35.6485"/>
</g>
<!-- 7 -->
<g id="node8" class="node"><title>7</title>
<ellipse fill="white" stroke="#00594c" stroke-width="4" cx="165.5" cy="-309.5" rx="21.5" ry="21.5"/>
<text text-anchor="middle" x="165.5" y="-305.9" font-family="Helvetica,sans-Serif" font-size="12.00">AP2</text>
</g>
<!-- 7&#45;&gt;9 -->
<g id="edge23" class="edge"><title>7&#45;&gt;9</title>
<path fill="none" stroke="black" stroke-width="4" d="M180.911,-294.089C207.436,-267.564 261.642,-213.358 290.475,-184.525"/>
<polygon fill="black" stroke="black" stroke-width="4" points="291.902,-185.573 294.2,-180.8 289.427,-183.098 291.902,-185.573"/>
</g>
<!-- 7&#45;&gt;12 -->
<g id="edge24" class="edge"><title>7&#45;&gt;12</title>
<path fill="none" stroke="black" stroke-width="4" d="M147.04,-298.173C138.875,-295.243 129.123,-292.493 120.189,-290.573"/>
<polygon fill="black" stroke="black" stroke-width="4" points="120.288,-288.808 115.042,-289.543 119.602,-292.24 120.288,-288.808"/>
</g>
<!-- 8 -->
<g id="node9" class="node"><title>8</title>
<ellipse fill="white" stroke="#00594c" stroke-width="4" cx="290.06" cy="-93.5" rx="21.5" ry="21.5"/>
<text text-anchor="middle" x="290.06" y="-89.9" font-family="Helvetica,sans-Serif" font-size="12.00">WUS</text>
</g>
<!-- 8&#45;&gt;8 -->
<g id="edge25" class="edge"><title>8&#45;&gt;8</title>
<path fill="none" stroke="black" stroke-width="4" d="M310.788,-100.085C320.759,-100.898 329.56,-98.7031 329.56,-93.5 329.56,-89.1912 323.524,-86.9452 315.787,-86.7622"/>
<polygon fill="black" stroke="black" stroke-width="4" points="315.733,-85.0129 310.788,-86.9148 315.839,-88.5113 315.733,-85.0129"/>
</g>
<!-- 8&#45;&gt;9 -->
<g id="edge26" class="edge"><title>8&#45;&gt;9</title>
<path fill="none" stroke="black" stroke-width="4" d="M289.563,-115.152C291.126,-123.603 293.625,-133.31 296.431,-141.936"/>
<polygon fill="black" stroke="black" stroke-width="4" points="294.938,-142.98 298.211,-147.145 298.25,-141.848 294.938,-142.98"/>
</g>
<!-- 9&#45;&gt;0 -->
<g id="edge27" class="edge"><title>9&#45;&gt;0</title>
<path fill="none" stroke="black" stroke-width="4" d="M303.877,-186.325C301.76,-194.167 299.325,-203.185 297.095,-211.444"/>
<polygon fill="black" stroke="black" stroke-width="4" points="295.351,-211.189 295.738,-216.472 298.73,-212.101 295.351,-211.189"/>
</g>
<!-- 9&#45;&gt;4 -->
<g id="edge28" class="edge"><title>9&#45;&gt;4</title>
<path fill="none" stroke="black" stroke-width="4" d="M288.323,-161.762C236.727,-157.872 104.609,-157.75 47.9507,-161.395"/>
<polygon fill="black" stroke="black" stroke-width="4" points="47.5749,-159.667 42.7084,-161.759 47.8177,-163.158 47.5749,-159.667"/>
</g>
<!-- 9&#45;&gt;8 -->
<g id="edge29" class="edge"><title>9&#45;&gt;8</title>
<path fill="none" stroke="black" stroke-width="4" d="M309.997,-143.848C308.434,-135.397 305.935,-125.69 303.129,-117.064"/>
<polygon fill="black" stroke="black" stroke-width="4" points="304.622,-116.02 301.349,-111.855 301.31,-117.152 304.622,-116.02"/>
</g>
<!-- 9&#45;&gt;9 -->
<g id="edge30" class="edge"><title>9&#45;&gt;9</title>
<path fill="none" stroke="black" stroke-width="4" d="M330.228,-172.085C340.199,-172.898 349,-170.703 349,-165.5 349,-161.191 342.964,-158.945 335.227,-158.762"/>
<polygon fill="black" stroke="black" stroke-width="4" points="335.173,-157.013 330.228,-158.915 335.279,-160.511 335.173,-157.013"/>
</g>
<!-- 9&#45;&gt;13 -->
<g id="edge31" class="edge"><title>9&#45;&gt;13</title>
<path fill="none" stroke="black" stroke-width="4" d="M298.721,-184.148C285.996,-206.162 264.822,-242.793 251.012,-266.684"/>
<polygon fill="black" stroke="black" stroke-width="4" points="249.34,-266.08 248.353,-271.285 252.37,-267.832 249.34,-266.08"/>
</g>
<!-- 10 -->
<g id="node11" class="node"><title>10</title>
<ellipse fill="white" stroke="#00594c" stroke-width="4" cx="417.5" cy="-237.5" rx="21.5" ry="21.5"/>
<text text-anchor="middle" x="417.5" y="-233.9" font-family="Helvetica,sans-Serif" font-size="12.00">LUG</text>
</g>
<!-- 10&#45;&gt;9 -->
<g id="edge32" class="edge"><title>10&#45;&gt;9</title>
<path fill="none" stroke="black" stroke-width="4" d="M399.179,-225.286C380.604,-212.903 351.833,-193.722 331.91,-180.44"/>
<polygon fill="black" stroke="black" stroke-width="4" points="332.681,-178.851 327.55,-177.533 330.74,-181.763 332.681,-178.851"/>
</g>
<!-- 11 -->
<g id="node12" class="node"><title>11</title>
<ellipse fill="white" stroke="#00594c" stroke-width="4" cx="417.5" cy="-165.5" rx="21.5" ry="21.5"/>
<text text-anchor="middle" x="417.5" y="-161.9" font-family="Helvetica,sans-Serif" font-size="12.00">CLF</text>
</g>
<!-- 11&#45;&gt;9 -->
<g id="edge33" class="edge"><title>11&#45;&gt;9</title>
<path fill="none" stroke="black" stroke-width="4" d="M395.904,-165.5C378.686,-165.5 354.494,-165.5 336.086,-165.5"/>
<polygon fill="black" stroke="black" stroke-width="4" points="336.058,-163.75 331.058,-165.5 336.058,-167.25 336.058,-163.75"/>
</g>
<!-- 12&#45;&gt;2 -->
<g id="edge34" class="edge"><title>12&#45;&gt;2</title>
<path fill="none" stroke="black" stroke-width="4" d="M78.0145,-274.575C72.3974,-268.957 65.9839,-262.544 60.0885,-256.648"/>
<polygon fill="black" stroke="black" stroke-width="4" points="61.2694,-255.355 56.4964,-253.056 58.7945,-257.829 61.2694,-255.355"/>
</g>
<!-- 12&#45;&gt;4 -->
<g id="edge35" class="edge"><title>12&#45;&gt;4</title>
<path fill="none" stroke="black" stroke-width="4" d="M87.1664,-269.201C76.3445,-246.001 55.049,-208.876 39.4939,-185.875"/>
<polygon fill="black" stroke="black" stroke-width="4" points="40.7401,-184.598 36.4643,-181.471 37.8566,-186.582 40.7401,-184.598"/>
</g>
<!-- 12&#45;&gt;6 -->
<g id="edge36" class="edge"><title>12&#45;&gt;6</title>
<path fill="none" stroke="black" stroke-width="4" d="M102.709,-270.419C119.36,-222.974 151.882,-102.134 162.661,-48.1921"/>
<polygon fill="black" stroke="black" stroke-width="4" points="164.398,-48.4276 163.635,-43.1854 160.962,-47.7592 164.398,-48.4276"/>
</g>
<!-- 12&#45;&gt;7 -->
<g id="edge37" class="edge"><title>12&#45;&gt;7</title>
<path fill="none" stroke="black" stroke-width="4" d="M111.96,-301.387C120.125,-304.317 129.877,-307.067 138.811,-308.987"/>
<polygon fill="black" stroke="black" stroke-width="4" points="138.712,-310.752 143.958,-310.017 139.398,-307.32 138.712,-310.752"/>
</g>
<!-- 12&#45;&gt;9 -->
<g id="edge38" class="edge"><title>12&#45;&gt;9</title>
<path fill="none" stroke="black" stroke-width="4" d="M112.291,-279.224C151.705,-256.495 242.931,-203.888 286.079,-179.006"/>
<polygon fill="black" stroke="black" stroke-width="4" points="287.142,-180.413 290.599,-176.4 285.393,-177.381 287.142,-180.413"/>
</g>
<!-- 13&#45;&gt;0 -->
<g id="edge39" class="edge"><title>13&#45;&gt;0</title>
<path fill="none" stroke="black" stroke-width="4" d="M256.471,-279.749C262.89,-274.295 269.908,-267.454 275.901,-260.848"/>
<polygon fill="black" stroke="black" stroke-width="4" points="277.493,-261.689 279.485,-256.78 274.867,-259.375 277.493,-261.689"/>
</g>
<!-- 13&#45;&gt;13 -->
<g id="edge40" class="edge"><title>13&#45;&gt;13</title>
<path fill="none" stroke="black" stroke-width="4" d="M258.228,-296.645C268.199,-297.458 277,-295.263 277,-290.06 277,-285.751 270.964,-283.505 263.227,-283.322"/>
<polygon fill="black" stroke="black" stroke-width="4" points="263.173,-281.573 258.228,-283.475 263.279,-285.071 263.173,-281.573"/>
</g>
<!-- 14&#45;&gt;0 -->
<g id="edge41" class="edge"><title>14&#45;&gt;0</title>
<path fill="none" stroke="black" stroke-width="4" d="M243.125,-61.9754C252.806,-98.182 272.592,-172.174 283.116,-211.531"/>
<polygon fill="black" stroke="black" stroke-width="4" points="281.493,-212.238 284.476,-216.616 284.875,-211.334 281.493,-212.238"/>
</g>
<!-- 14&#45;&gt;8 -->
<g id="edge42" class="edge"><title>14&#45;&gt;8</title>
<path fill="none" stroke="black" stroke-width="4" d="M252.985,-56.4255C258.603,-62.0426 265.016,-68.4561 270.912,-74.3515"/>
<polygon fill="black" stroke="black" stroke-width="4" points="269.731,-75.6455 274.504,-77.9436 272.205,-73.1706 269.731,-75.6455"/>
</g>
<!-- 14&#45;&gt;9 -->
<g id="edge43" class="edge"><title>14&#45;&gt;9</title>
<path fill="none" stroke="black" stroke-width="4" d="M248.279,-59.5879C261.004,-81.6024 282.178,-118.233 295.988,-142.124"/>
<polygon fill="black" stroke="black" stroke-width="4" points="294.63,-143.272 298.647,-146.725 297.66,-141.52 294.63,-143.272"/>
</g>
<!-- 14&#45;&gt;13 -->
<g id="edge44" class="edge"><title>14&#45;&gt;13</title>
<path fill="none" stroke="black" stroke-width="4" d="M237.5,-62.612C237.5,-108.07 237.5,-213.284 237.5,-263.047"/>
<polygon fill="black" stroke="black" stroke-width="4" points="235.75,-263.261 237.5,-268.261 239.25,-263.261 235.75,-263.261"/>
</g>
</g>
</svg>
