<?xml version="1.0" encoding="UTF-8" standalone="no"?>
<!DOCTYPE svg PUBLIC "-//W3C//DTD SVG 1.1//EN"
 "http://www.w3.org/Graphics/SVG/1.1/DTD/svg11.dtd">
<!-- Generated by graphviz version 2.36.0 (20140111.2315)
 -->
<!-- Title: Structural Graph Pages: 1 -->
<svg width="306pt" height="360pt"
 viewBox="0.00 0.00 305.56 360.00" xmlns="http://www.w3.org/2000/svg" xmlns:xlink="http://www.w3.org/1999/xlink">
<g id="graph0" class="graph" transform="scale(0.911023 0.911023) rotate(0) translate(4 391.16)">
<title>Structural Graph</title>
<polygon fill="white" stroke="none" points="-4,4 -4,-391.16 331.4,-391.16 331.4,4 -4,4"/>
<!-- 0 -->
<g id="node1" class="node"><title>0</title>
<ellipse fill="white" stroke="#00594c" stroke-width="4" cx="163.34" cy="-365.66" rx="21.5" ry="21.5"/>
<text text-anchor="middle" x="163.34" y="-362.06" font-family="Helvetica,sans-Serif" font-size="12.00">CellSize</text>
</g>
<!-- 0&#45;&gt;0 -->
<g id="edge1" class="edge"><title>0&#45;&gt;0</title>
<path fill="none" stroke="black" stroke-width="4" d="M184.068,-372.245C194.039,-373.058 202.84,-370.863 202.84,-365.66 202.84,-361.351 196.804,-359.105 189.067,-358.922"/>
<polygon fill="black" stroke="black" stroke-width="4" points="189.013,-357.173 184.068,-359.075 189.119,-360.671 189.013,-357.173"/>
</g>
<!-- 1 -->
<g id="node2" class="node"><title>1</title>
<ellipse fill="white" stroke="#00594c" stroke-width="4" cx="163.34" cy="-300.86" rx="21.5" ry="21.5"/>
<text text-anchor="middle" x="163.34" y="-297.26" font-family="Helvetica,sans-Serif" font-size="12.00">Cln3</text>
</g>
<!-- 0&#45;&gt;1 -->
<g id="edge2" class="edge"><title>0&#45;&gt;1</title>
<path fill="none" stroke="black" stroke-width="4" d="M163.34,-344.083C163.34,-338.891 163.34,-333.281 163.34,-327.877"/>
<polygon fill="black" stroke="black" stroke-width="4" points="165.09,-327.564 163.34,-322.564 161.59,-327.564 165.09,-327.564"/>
</g>
<!-- 2 -->
<g id="node3" class="node"><title>2</title>
<ellipse fill="white" stroke="#00594c" stroke-width="4" cx="256.22" cy="-267.02" rx="21.5" ry="21.5"/>
<text text-anchor="middle" x="256.22" y="-263.42" font-family="Helvetica,sans-Serif" font-size="12.00">SBF</text>
</g>
<!-- 1&#45;&gt;2 -->
<g id="edge3" class="edge"><title>1&#45;&gt;2</title>
<path fill="none" stroke="black" stroke-width="4" d="M183.953,-293.35C197.878,-288.277 216.345,-281.548 231.125,-276.163"/>
<polygon fill="black" stroke="black" stroke-width="4" points="231.885,-277.749 235.984,-274.393 230.687,-274.46 231.885,-277.749"/>
</g>
<!-- 3 -->
<g id="node4" class="node"><title>3</title>
<ellipse fill="white" stroke="#00594c" stroke-width="4" cx="70.46" cy="-267.02" rx="21.5" ry="21.5"/>
<text text-anchor="middle" x="70.46" y="-263.42" font-family="Helvetica,sans-Serif" font-size="12.00">MBF</text>
</g>
<!-- 1&#45;&gt;3 -->
<g id="edge4" class="edge"><title>1&#45;&gt;3</title>
<path fill="none" stroke="black" stroke-width="4" d="M142.727,-293.35C128.802,-288.277 110.335,-281.548 95.5551,-276.163"/>
<polygon fill="black" stroke="black" stroke-width="4" points="95.9929,-274.46 90.6959,-274.393 94.7947,-277.749 95.9929,-274.46"/>
</g>
<!-- 2&#45;&gt;2 -->
<g id="edge5" class="edge"><title>2&#45;&gt;2</title>
<path fill="none" stroke="black" stroke-width="4" d="M276.948,-273.605C286.919,-274.418 295.72,-272.223 295.72,-267.02 295.72,-262.711 289.684,-260.465 281.947,-260.282"/>
<polygon fill="black" stroke="black" stroke-width="4" points="281.893,-258.533 276.948,-260.435 281.999,-262.031 281.893,-258.533"/>
</g>
<!-- 4 -->
<g id="node5" class="node"><title>4</title>
<ellipse fill="white" stroke="#00594c" stroke-width="4" cx="305.18" cy="-182.06" rx="21.5" ry="21.5"/>
<text text-anchor="middle" x="305.18" y="-178.46" font-family="Helvetica,sans-Serif" font-size="12.00">Cln1,2</text>
</g>
<!-- 2&#45;&gt;4 -->
<g id="edge6" class="edge"><title>2&#45;&gt;4</title>
<path fill="none" stroke="black" stroke-width="4" d="M267.086,-248.165C274.375,-235.515 284.026,-218.768 291.79,-205.295"/>
<polygon fill="black" stroke="black" stroke-width="4" points="293.364,-206.069 294.345,-200.863 290.332,-204.321 293.364,-206.069"/>
</g>
<!-- 3&#45;&gt;3 -->
<g id="edge7" class="edge"><title>3&#45;&gt;3</title>
<path fill="none" stroke="black" stroke-width="4" d="M91.1884,-273.605C101.159,-274.418 109.96,-272.223 109.96,-267.02 109.96,-262.711 103.924,-260.465 96.187,-260.282"/>
<polygon fill="black" stroke="black" stroke-width="4" points="96.1326,-258.533 91.1884,-260.435 96.2395,-262.031 96.1326,-258.533"/>
</g>
<!-- 6 -->
<g id="node7" class="node"><title>6</title>
<ellipse fill="white" stroke="#00594c" stroke-width="4" cx="21.5" cy="-182.06" rx="21.5" ry="21.5"/>
<text text-anchor="middle" x="21.5" y="-178.46" font-family="Helvetica,sans-Serif" font-size="12.00">Clb5,6</text>
</g>
<!-- 3&#45;&gt;6 -->
<g id="edge8" class="edge"><title>3&#45;&gt;6</title>
<path fill="none" stroke="black" stroke-width="4" d="M59.5942,-248.165C52.3047,-235.515 42.6538,-218.768 34.8899,-205.295"/>
<polygon fill="black" stroke="black" stroke-width="4" points="36.3482,-204.321 32.3354,-200.863 33.3157,-206.069 36.3482,-204.321"/>
</g>
<!-- 5 -->
<g id="node6" class="node"><title>5</title>
<ellipse fill="white" stroke="#00594c" stroke-width="4" cx="163.34" cy="-221.66" rx="21.5" ry="21.5"/>
<text text-anchor="middle" x="163.34" y="-218.06" font-family="Helvetica,sans-Serif" font-size="12.00">Sic1</text>
</g>
<!-- 4&#45;&gt;5 -->
<g id="edge9" class="edge"><title>4&#45;&gt;5</title>
<path fill="none" stroke="black" stroke-width="4" d="M284.251,-187.903C259.005,-194.951 216.563,-206.801 189.268,-214.421"/>
<polygon fill="black" stroke="black" stroke-width="4" points="188.7,-212.763 184.355,-215.793 189.641,-216.134 188.7,-212.763"/>
</g>
<!-- 7 -->
<g id="node8" class="node"><title>7</title>
<ellipse fill="white" stroke="#00594c" stroke-width="4" cx="287.9" cy="-84.86" rx="21.5" ry="21.5"/>
<text text-anchor="middle" x="287.9" y="-81.26" font-family="Helvetica,sans-Serif" font-size="12.00">Cdh1</text>
</g>
<!-- 4&#45;&gt;7 -->
<g id="edge10" class="edge"><title>4&#45;&gt;7</title>
<path fill="none" stroke="black" stroke-width="4" d="M301.345,-160.488C298.754,-145.916 295.319,-126.59 292.569,-111.122"/>
<polygon fill="black" stroke="black" stroke-width="4" points="294.263,-110.654 291.665,-106.037 290.817,-111.266 294.263,-110.654"/>
</g>
<!-- 5&#45;&gt;5 -->
<g id="edge11" class="edge"><title>5&#45;&gt;5</title>
<path fill="none" stroke="black" stroke-width="4" d="M184.068,-228.245C194.039,-229.058 202.84,-226.863 202.84,-221.66 202.84,-217.351 196.804,-215.105 189.067,-214.922"/>
<polygon fill="black" stroke="black" stroke-width="4" points="189.013,-213.173 184.068,-215.075 189.119,-216.671 189.013,-213.173"/>
</g>
<!-- 5&#45;&gt;6 -->
<g id="edge12" class="edge"><title>5&#45;&gt;6</title>
<path fill="none" stroke="black" stroke-width="4" d="M144.336,-211.266C119.576,-201.942 76.1839,-189.688 48.1494,-183.992"/>
<polygon fill="black" stroke="black" stroke-width="4" points="48.344,-182.247 43.1014,-183.006 47.6736,-185.682 48.344,-182.247"/>
</g>
<!-- 8 -->
<g id="node9" class="node"><title>8</title>
<ellipse fill="white" stroke="#00594c" stroke-width="4" cx="163.34" cy="-99.26" rx="21.5" ry="21.5"/>
<text text-anchor="middle" x="163.34" y="-95.66" font-family="Helvetica,sans-Serif" font-size="12.00">Clb1,2</text>
</g>
<!-- 5&#45;&gt;8 -->
<g id="edge13" class="edge"><title>5&#45;&gt;8</title>
<path fill="none" stroke="black" stroke-width="4" d="M168.582,-200.619C170.44,-179.863 170.581,-148.075 169.006,-125.641"/>
<polygon fill="black" stroke="black" stroke-width="4" points="170.733,-125.283 168.594,-120.436 167.244,-125.559 170.733,-125.283"/>
</g>
<!-- 6&#45;&gt;5 -->
<g id="edge14" class="edge"><title>6&#45;&gt;5</title>
<path fill="none" stroke="black" stroke-width="4" d="M40.5044,-192.454C65.2638,-201.778 108.656,-214.032 136.691,-219.729"/>
<polygon fill="black" stroke="black" stroke-width="4" points="136.496,-221.473 141.739,-220.714 137.166,-218.038 136.496,-221.473"/>
</g>
<!-- 6&#45;&gt;6 -->
<g id="edge15" class="edge"><title>6&#45;&gt;6</title>
<path fill="none" stroke="black" stroke-width="4" d="M42.2284,-188.645C52.1986,-189.458 61,-187.263 61,-182.06 61,-177.751 54.9641,-175.505 47.2269,-175.322"/>
<polygon fill="black" stroke="black" stroke-width="4" points="47.1726,-173.573 42.2284,-175.475 47.2795,-177.071 47.1726,-173.573"/>
</g>
<!-- 6&#45;&gt;7 -->
<g id="edge16" class="edge"><title>6&#45;&gt;7</title>
<path fill="none" stroke="black" stroke-width="4" d="M41.9616,-174.594C89.9999,-157.067 209.899,-113.32 262.494,-94.1299"/>
<polygon fill="black" stroke="black" stroke-width="4" points="263.271,-95.709 267.369,-92.3512 262.072,-92.4211 263.271,-95.709"/>
</g>
<!-- 6&#45;&gt;8 -->
<g id="edge17" class="edge"><title>6&#45;&gt;8</title>
<path fill="none" stroke="black" stroke-width="4" d="M40.3353,-171.065C65.9805,-156.094 111.877,-129.302 139.773,-113.017"/>
<polygon fill="black" stroke="black" stroke-width="4" points="140.991,-114.333 144.427,-110.301 139.226,-111.31 140.991,-114.333"/>
</g>
<!-- 9 -->
<g id="node10" class="node"><title>9</title>
<ellipse fill="white" stroke="#00594c" stroke-width="4" cx="38.78" cy="-84.86" rx="21.5" ry="21.5"/>
<text text-anchor="middle" x="38.78" y="-81.26" font-family="Helvetica,sans-Serif" font-size="12.00">Mcm1/SFF</text>
</g>
<!-- 6&#45;&gt;9 -->
<g id="edge18" class="edge"><title>6&#45;&gt;9</title>
<path fill="none" stroke="black" stroke-width="4" d="M25.335,-160.488C27.9256,-145.916 31.3613,-126.59 34.1111,-111.122"/>
<polygon fill="black" stroke="black" stroke-width="4" points="35.8629,-111.266 35.0152,-106.037 32.417,-110.654 35.8629,-111.266"/>
</g>
<!-- 7&#45;&gt;7 -->
<g id="edge19" class="edge"><title>7&#45;&gt;7</title>
<path fill="none" stroke="black" stroke-width="4" d="M308.628,-91.4452C318.599,-92.2582 327.4,-90.0631 327.4,-84.86 327.4,-80.5512 321.364,-78.3052 313.627,-78.1222"/>
<polygon fill="black" stroke="black" stroke-width="4" points="313.573,-76.3729 308.628,-78.2748 313.679,-79.8713 313.573,-76.3729"/>
</g>
<!-- 7&#45;&gt;8 -->
<g id="edge20" class="edge"><title>7&#45;&gt;8</title>
<path fill="none" stroke="black" stroke-width="4" d="M266.455,-82.1128C244.857,-82.6672 211.547,-86.3797 188.663,-90.691"/>
<polygon fill="black" stroke="black" stroke-width="4" points="188.226,-88.9935 183.66,-91.6784 188.904,-92.4272 188.226,-88.9935"/>
</g>
<!-- 8&#45;&gt;2 -->
<g id="edge21" class="edge"><title>8&#45;&gt;2</title>
<path fill="none" stroke="black" stroke-width="4" d="M173.814,-118.178C190.861,-148.969 224.569,-209.852 243.156,-243.423"/>
<polygon fill="black" stroke="black" stroke-width="4" points="241.831,-244.644 245.784,-248.171 244.893,-242.949 241.831,-244.644"/>
</g>
<!-- 8&#45;&gt;3 -->
<g id="edge22" class="edge"><title>8&#45;&gt;3</title>
<path fill="none" stroke="black" stroke-width="4" d="M152.866,-118.178C135.819,-148.969 102.111,-209.852 83.5245,-243.423"/>
<polygon fill="black" stroke="black" stroke-width="4" points="81.7866,-242.949 80.8957,-248.171 84.8486,-244.644 81.7866,-242.949"/>
</g>
<!-- 8&#45;&gt;5 -->
<g id="edge23" class="edge"><title>8&#45;&gt;5</title>
<path fill="none" stroke="black" stroke-width="4" d="M158.098,-120.301C156.24,-141.057 156.099,-172.845 157.674,-195.279"/>
<polygon fill="black" stroke="black" stroke-width="4" points="155.947,-195.637 158.086,-200.484 159.436,-195.361 155.947,-195.637"/>
</g>
<!-- 8&#45;&gt;7 -->
<g id="edge24" class="edge"><title>8&#45;&gt;7</title>
<path fill="none" stroke="black" stroke-width="4" d="M184.785,-102.007C206.383,-101.453 239.693,-97.7403 262.577,-93.429"/>
<polygon fill="black" stroke="black" stroke-width="4" points="263.014,-95.1266 267.58,-92.4416 262.336,-91.6928 263.014,-95.1266"/>
</g>
<!-- 8&#45;&gt;8 -->
<g id="edge25" class="edge"><title>8&#45;&gt;8</title>
<path fill="none" stroke="black" stroke-width="4" d="M184.068,-105.845C194.039,-106.658 202.84,-104.463 202.84,-99.26 202.84,-94.9512 196.804,-92.7052 189.067,-92.5222"/>
<polygon fill="black" stroke="black" stroke-width="4" points="189.013,-90.7729 184.068,-92.6748 189.119,-94.2713 189.013,-90.7729"/>
</g>
<!-- 8&#45;&gt;9 -->
<g id="edge26" class="edge"><title>8&#45;&gt;9</title>
<path fill="none" stroke="black" stroke-width="4" d="M143.088,-91.6924C121.933,-87.3042 88.6546,-83.3186 65.3905,-82.2949"/>
<polygon fill="black" stroke="black" stroke-width="4" points="65.3523,-80.5426 60.2935,-82.1146 65.2285,-84.0404 65.3523,-80.5426"/>
</g>
<!-- 10 -->
<g id="node11" class="node"><title>10</title>
<ellipse fill="white" stroke="#00594c" stroke-width="4" cx="212.3" cy="-21.5" rx="21.5" ry="21.5"/>
<text text-anchor="middle" x="212.3" y="-17.9" font-family="Helvetica,sans-Serif" font-size="12.00">Cdc20/14</text>
</g>
<!-- 8&#45;&gt;10 -->
<g id="edge27" class="edge"><title>8&#45;&gt;10</title>
<path fill="none" stroke="black" stroke-width="4" d="M179.325,-84.6845C187.457,-73.9775 196.887,-59.2381 203.713,-46.6639"/>
<polygon fill="black" stroke="black" stroke-width="4" points="205.314,-47.3791 206.103,-42.1407 202.22,-45.744 205.314,-47.3791"/>
</g>
<!-- 11 -->
<g id="node12" class="node"><title>11</title>
<ellipse fill="white" stroke="#00594c" stroke-width="4" cx="114.38" cy="-21.5" rx="21.5" ry="21.5"/>
<text text-anchor="middle" x="114.38" y="-17.9" font-family="Helvetica,sans-Serif" font-size="12.00">Swi5</text>
</g>
<!-- 8&#45;&gt;11 -->
<g id="edge28" class="edge"><title>8&#45;&gt;11</title>
<path fill="none" stroke="black" stroke-width="4" d="M151.737,-80.832C144.847,-69.889 136.055,-55.9243 128.731,-44.2922"/>
<polygon fill="black" stroke="black" stroke-width="4" points="130.045,-43.0945 125.9,-39.7958 127.083,-44.9594 130.045,-43.0945"/>
</g>
<!-- 9&#45;&gt;8 -->
<g id="edge29" class="edge"><title>9&#45;&gt;8</title>
<path fill="none" stroke="black" stroke-width="4" d="M59.0323,-92.4277C80.1871,-96.8158 113.465,-100.801 136.73,-101.825"/>
<polygon fill="black" stroke="black" stroke-width="4" points="136.768,-103.577 141.827,-102.005 136.892,-100.08 136.768,-103.577"/>
</g>
<!-- 9&#45;&gt;10 -->
<g id="edge30" class="edge"><title>9&#45;&gt;10</title>
<path fill="none" stroke="black" stroke-width="4" d="M59.0245,-77.4678C90.8076,-65.8624 152.353,-43.3892 187.005,-30.7362"/>
<polygon fill="black" stroke="black" stroke-width="4" points="187.82,-32.3019 191.916,-28.9431 186.619,-29.0143 187.82,-32.3019"/>
</g>
<!-- 9&#45;&gt;11 -->
<g id="edge31" class="edge"><title>9&#45;&gt;11</title>
<path fill="none" stroke="black" stroke-width="4" d="M55.5581,-70.7984C66.8139,-61.3649 81.7161,-48.8755 93.7044,-38.8281"/>
<polygon fill="black" stroke="black" stroke-width="4" points="94.9408,-40.0753 97.6488,-35.5223 92.6926,-37.3928 94.9408,-40.0753"/>
</g>
<!-- 10&#45;&gt;5 -->
<g id="edge32" class="edge"><title>10&#45;&gt;5</title>
<path fill="none" stroke="black" stroke-width="4" d="M207.153,-42.5423C198.154,-79.3329 179.585,-155.248 169.76,-195.412"/>
<polygon fill="black" stroke="black" stroke-width="4" points="167.98,-195.327 168.492,-200.599 171.38,-196.158 167.98,-195.327"/>
</g>
<!-- 10&#45;&gt;6 -->
<g id="edge33" class="edge"><title>10&#45;&gt;6</title>
<path fill="none" stroke="black" stroke-width="4" d="M195.702,-35.4678C160.885,-64.7658 80.3022,-132.577 42.1888,-164.65"/>
<polygon fill="black" stroke="black" stroke-width="4" points="40.8949,-163.452 38.196,-168.01 43.1484,-166.13 40.8949,-163.452"/>
</g>
<!-- 10&#45;&gt;7 -->
<g id="edge34" class="edge"><title>10&#45;&gt;7</title>
<path fill="none" stroke="black" stroke-width="4" d="M229.078,-35.5616C240.334,-44.9951 255.236,-57.4845 267.224,-67.5319"/>
<polygon fill="black" stroke="black" stroke-width="4" points="266.213,-68.9672 271.169,-70.8377 268.461,-66.2847 266.213,-68.9672"/>
</g>
<!-- 10&#45;&gt;8 -->
<g id="edge35" class="edge"><title>10&#45;&gt;8</title>
<path fill="none" stroke="black" stroke-width="4" d="M196.315,-36.0755C188.183,-46.7825 178.753,-61.5219 171.927,-74.0961"/>
<polygon fill="black" stroke="black" stroke-width="4" points="170.326,-73.3809 169.537,-78.6193 173.42,-75.016 170.326,-73.3809"/>
</g>
<!-- 10&#45;&gt;11 -->
<g id="edge36" class="edge"><title>10&#45;&gt;11</title>
<path fill="none" stroke="black" stroke-width="4" d="M190.568,-21.5C175.989,-21.5 156.688,-21.5 141.16,-21.5"/>
<polygon fill="black" stroke="black" stroke-width="4" points="141.051,-19.7501 136.051,-21.5 141.051,-23.2501 141.051,-19.7501"/>
</g>
<!-- 11&#45;&gt;5 -->
<g id="edge37" class="edge"><title>11&#45;&gt;5</title>
<path fill="none" stroke="black" stroke-width="4" d="M119.527,-42.5423C128.526,-79.3329 147.095,-155.248 156.92,-195.412"/>
<polygon fill="black" stroke="black" stroke-width="4" points="155.301,-196.158 158.188,-200.599 158.7,-195.327 155.301,-196.158"/>
</g>
<!-- 11&#45;&gt;11 -->
<g id="edge38" class="edge"><title>11&#45;&gt;11</title>
<path fill="none" stroke="black" stroke-width="4" d="M135.108,-28.0852C145.079,-28.8982 153.88,-26.7031 153.88,-21.5 153.88,-17.1912 147.844,-14.9452 140.107,-14.7622"/>
<polygon fill="black" stroke="black" stroke-width="4" points="140.053,-13.0129 135.108,-14.9148 140.159,-16.5113 140.053,-13.0129"/>
</g>
</g>
</svg>
