<?xml version="1.0" encoding="UTF-8" standalone="no"?>
<!DOCTYPE svg PUBLIC "-//W3C//DTD SVG 1.1//EN"
 "http://www.w3.org/Graphics/SVG/1.1/DTD/svg11.dtd">
<!-- Generated by graphviz version 2.36.0 (20140111.2315)
 -->
<!-- Title: Structural Graph Pages: 1 -->
<svg width="313pt" height="360pt"
 viewBox="0.00 0.00 312.55 360.00" xmlns="http://www.w3.org/2000/svg" xmlns:xlink="http://www.w3.org/1999/xlink">
<g id="graph0" class="graph" transform="scale(0.916824 0.916824) rotate(0) translate(4 388.66)">
<title>Structural Graph</title>
<polygon fill="white" stroke="none" points="-4,4 -4,-388.66 336.9,-388.66 336.9,4 -4,4"/>
<!-- 0 -->
<g id="node1" class="node"><title>0</title>
<ellipse fill="#f3f3f3" stroke="#00594c" stroke-width="4" cx="165.84" cy="-366.66" rx="18" ry="18"/>
<text text-anchor="middle" x="165.84" y="-363.06" font-family="Helvetica,sans-Serif" font-size="12.00">CellSize</text>
</g>
<!-- 0&#45;&gt;0 -->
<g id="edge1" class="edge"><title>0&#45;&gt;0</title>
<path fill="none" stroke="black" stroke-width="4" d="M182.877,-373.039C192.698,-374.341 201.84,-372.215 201.84,-366.66 201.84,-362.147 195.805,-359.897 188.274,-359.91"/>
<polygon fill="black" stroke="black" stroke-width="4" points="187.746,-358.192 182.877,-360.281 187.986,-361.684 187.746,-358.192"/>
</g>
<!-- 1 -->
<g id="node2" class="node"><title>1</title>
<ellipse fill="#f3f3f3" stroke="#00594c" stroke-width="4" cx="165.84" cy="-301.86" rx="18" ry="18"/>
<text text-anchor="middle" x="165.84" y="-298.26" font-family="Helvetica,sans-Serif" font-size="12.00">Cln3</text>
</g>
<!-- 0&#45;&gt;1 -->
<g id="edge2" class="edge"><title>0&#45;&gt;1</title>
<path fill="none" stroke="black" stroke-width="4" d="M165.84,-348.61C165.84,-341.429 165.84,-333.07 165.84,-325.422"/>
<polygon fill="black" stroke="black" stroke-width="4" points="167.59,-325.264 165.84,-320.264 164.09,-325.264 167.59,-325.264"/>
</g>
<!-- 2 -->
<g id="node3" class="node"><title>2</title>
<ellipse fill="#f3f3f3" stroke="#00594c" stroke-width="4" cx="258.72" cy="-268.02" rx="22.5" ry="22.5"/>
<text text-anchor="middle" x="258.72" y="-264.42" font-family="Helvetica,sans-Serif" font-size="12.00">SBF</text>
</g>
<!-- 1&#45;&gt;2 -->
<g id="edge3" class="edge"><title>1&#45;&gt;2</title>
<path fill="none" stroke="black" stroke-width="2.67" d="M182.876,-295.653C196.829,-290.569 216.799,-283.294 232.745,-277.484"/>
<polygon fill="black" stroke="black" stroke-width="2.67" points="233.454,-279.088 237.553,-275.732 232.256,-275.799 233.454,-279.088"/>
</g>
<!-- 3 -->
<g id="node4" class="node"><title>3</title>
<ellipse fill="#f3f3f3" stroke="#00594c" stroke-width="4" cx="72.96" cy="-268.02" rx="22.5" ry="22.5"/>
<text text-anchor="middle" x="72.96" y="-264.42" font-family="Helvetica,sans-Serif" font-size="12.00">MBF</text>
</g>
<!-- 1&#45;&gt;3 -->
<g id="edge4" class="edge"><title>1&#45;&gt;3</title>
<path fill="none" stroke="black" stroke-width="2.67" d="M148.804,-295.653C134.851,-290.569 114.881,-283.294 98.9351,-277.484"/>
<polygon fill="black" stroke="black" stroke-width="2.67" points="99.4237,-275.799 94.1267,-275.732 98.2255,-279.088 99.4237,-275.799"/>
</g>
<!-- 2&#45;&gt;2 -->
<g id="edge5" class="edge"><title>2&#45;&gt;2</title>
<path fill="none" stroke="black" stroke-width="2.67" d="M280.387,-274.637C290.438,-275.358 299.22,-273.153 299.22,-268.02 299.22,-263.769 293.197,-261.526 285.419,-261.291"/>
<polygon fill="black" stroke="black" stroke-width="2.67" points="285.346,-259.542 280.387,-261.403 285.425,-263.041 285.346,-259.542"/>
</g>
<!-- 4 -->
<g id="node5" class="node"><title>4</title>
<ellipse fill="#f3f3f3" stroke="#00594c" stroke-width="4" cx="307.68" cy="-183.06" rx="18" ry="18"/>
<text text-anchor="middle" x="307.68" y="-179.46" font-family="Helvetica,sans-Serif" font-size="12.00">Cln1,2</text>
</g>
<!-- 2&#45;&gt;4 -->
<g id="edge6" class="edge"><title>2&#45;&gt;4</title>
<path fill="none" stroke="black" stroke-width="4" d="M270.075,-248.315C277.892,-234.75 288.244,-216.787 296.107,-203.142"/>
<polygon fill="black" stroke="black" stroke-width="4" points="297.691,-203.898 298.671,-198.692 294.659,-202.151 297.691,-203.898"/>
</g>
<!-- 3&#45;&gt;3 -->
<g id="edge7" class="edge"><title>3&#45;&gt;3</title>
<path fill="none" stroke="black" stroke-width="2.67" d="M94.6269,-274.637C104.678,-275.358 113.46,-273.153 113.46,-268.02 113.46,-263.769 107.437,-261.526 99.6589,-261.291"/>
<polygon fill="black" stroke="black" stroke-width="2.67" points="99.5864,-259.542 94.6269,-261.403 99.6649,-263.041 99.5864,-259.542"/>
</g>
<!-- 6 -->
<g id="node7" class="node"><title>6</title>
<ellipse fill="#b5b5b5" stroke="#00594c" stroke-width="4" cx="24" cy="-183.06" rx="24" ry="24"/>
<text text-anchor="middle" x="24" y="-179.46" font-family="Helvetica,sans-Serif" font-size="12.00">Clb5,6</text>
</g>
<!-- 3&#45;&gt;6 -->
<g id="edge8" class="edge"><title>3&#45;&gt;6</title>
<path fill="none" stroke="black" stroke-width="2.31" d="M61.6045,-248.315C54.8116,-236.527 46.1045,-221.418 38.7796,-208.707"/>
<polygon fill="black" stroke="black" stroke-width="2.31" points="40.1624,-207.602 36.1496,-204.143 37.1299,-209.349 40.1624,-207.602"/>
</g>
<!-- 5 -->
<g id="node6" class="node"><title>5</title>
<ellipse fill="#e2e2e2" stroke="#00594c" stroke-width="4" cx="165.84" cy="-222.66" rx="29" ry="29"/>
<text text-anchor="middle" x="165.84" y="-219.06" font-family="Helvetica,sans-Serif" font-size="12.00">Sic1</text>
</g>
<!-- 4&#45;&gt;5 -->
<g id="edge9" class="edge"><title>4&#45;&gt;5</title>
<path fill="none" stroke="black" stroke-width="2.23" d="M290.288,-187.916C267.56,-194.261 227.299,-205.501 198.73,-213.478"/>
<polygon fill="black" stroke="black" stroke-width="2.23" points="198.24,-211.797 193.895,-214.827 199.181,-215.168 198.24,-211.797"/>
</g>
<!-- 7 -->
<g id="node8" class="node"><title>7</title>
<ellipse fill="#f3f3f3" stroke="#00594c" stroke-width="4" cx="290.4" cy="-85.86" rx="24.5" ry="24.5"/>
<text text-anchor="middle" x="290.4" y="-82.26" font-family="Helvetica,sans-Serif" font-size="12.00">Cdh1</text>
</g>
<!-- 4&#45;&gt;7 -->
<g id="edge10" class="edge"><title>4&#45;&gt;7</title>
<path fill="none" stroke="black" stroke-width="1.9" d="M304.511,-165.232C302.021,-151.226 298.501,-131.426 295.599,-115.107"/>
<polygon fill="black" stroke="black" stroke-width="1.9" points="297.319,-114.781 294.721,-110.164 293.873,-115.393 297.319,-114.781"/>
</g>
<!-- 5&#45;&gt;5 -->
<g id="edge11" class="edge"><title>5&#45;&gt;5</title>
<path fill="none" stroke="black" stroke-width="2.23" d="M194.291,-229.403C204.509,-229.548 212.84,-227.301 212.84,-222.66 212.84,-218.817 207.127,-216.615 199.36,-216.054"/>
<polygon fill="black" stroke="black" stroke-width="2.23" points="199.337,-214.303 194.291,-215.917 199.242,-217.801 199.337,-214.303"/>
</g>
<!-- 5&#45;&gt;6 -->
<g id="edge12" class="edge"><title>5&#45;&gt;6</title>
<path fill="none" stroke="black" stroke-width="2.31" d="M139.629,-209.652C115.141,-201.06 78.6623,-190.874 53.2416,-185.528"/>
<polygon fill="black" stroke="black" stroke-width="2.31" points="53.5602,-183.807 48.3117,-184.525 52.8625,-187.236 53.5602,-183.807"/>
</g>
<!-- 8 -->
<g id="node9" class="node"><title>8</title>
<ellipse fill="#5f5f5f" stroke="#00594c" stroke-width="4" cx="165.84" cy="-100.26" rx="29" ry="29"/>
<text text-anchor="middle" x="165.84" y="-96.66" font-family="Helvetica,sans-Serif" font-size="12.00">Clb1,2</text>
</g>
<!-- 5&#45;&gt;8 -->
<g id="edge13" class="edge"><title>5&#45;&gt;8</title>
<path fill="none" stroke="black" stroke-width="2.23" d="M171.66,-193.963C172.797,-176.007 172.891,-152.794 171.944,-133.964"/>
<polygon fill="black" stroke="black" stroke-width="2.23" points="173.68,-133.67 171.649,-128.778 170.186,-133.869 173.68,-133.67"/>
</g>
<!-- 6&#45;&gt;5 -->
<g id="edge14" class="edge"><title>6&#45;&gt;5</title>
<path fill="none" stroke="black" stroke-width="2.23" d="M45.4137,-194.349C68.3376,-202.755 105.008,-213.221 131.873,-219.171"/>
<polygon fill="black" stroke="black" stroke-width="2.23" points="131.513,-220.884 136.77,-220.228 132.252,-217.463 131.513,-220.884"/>
</g>
<!-- 6&#45;&gt;6 -->
<g id="edge15" class="edge"><title>6&#45;&gt;6</title>
<path fill="none" stroke="black" stroke-width="2.31" d="M47.323,-189.729C57.385,-190.275 66,-188.052 66,-183.06 66,-178.926 60.0919,-176.691 52.3466,-176.355"/>
<polygon fill="black" stroke="black" stroke-width="2.31" points="52.3102,-174.605 47.323,-176.391 52.3355,-178.105 52.3102,-174.605"/>
</g>
<!-- 6&#45;&gt;7 -->
<g id="edge16" class="edge"><title>6&#45;&gt;7</title>
<path fill="none" stroke="black" stroke-width="1.9" d="M46.7131,-174.773C95.3488,-157.027 209.437,-115.401 262.432,-96.0644"/>
<polygon fill="black" stroke="black" stroke-width="1.9" points="263.269,-97.6222 267.366,-94.2643 262.069,-94.3342 263.269,-97.6222"/>
</g>
<!-- 6&#45;&gt;8 -->
<g id="edge17" class="edge"><title>6&#45;&gt;8</title>
<path fill="none" stroke="black" stroke-width="2.23" d="M44.929,-170.843C68.9684,-156.809 108.6,-133.675 135.899,-117.738"/>
<polygon fill="black" stroke="black" stroke-width="2.23" points="137.072,-119.08 140.507,-115.048 135.307,-116.057 137.072,-119.08"/>
</g>
<!-- 9 -->
<g id="node10" class="node"><title>9</title>
<ellipse fill="#e2e2e2" stroke="#00594c" stroke-width="4" cx="41.28" cy="-85.86" rx="19" ry="19"/>
<text text-anchor="middle" x="41.28" y="-82.26" font-family="Helvetica,sans-Serif" font-size="12.00">Mcm1/SFF</text>
</g>
<!-- 6&#45;&gt;9 -->
<g id="edge18" class="edge"><title>6&#45;&gt;9</title>
<path fill="none" stroke="black" stroke-width="2.5" d="M28.2715,-159.033C30.924,-144.112 34.3221,-124.998 36.98,-110.048"/>
<polygon fill="black" stroke="black" stroke-width="2.5" points="38.7707,-109.973 37.9229,-104.743 35.3247,-109.36 38.7707,-109.973"/>
</g>
<!-- 7&#45;&gt;7 -->
<g id="edge19" class="edge"><title>7&#45;&gt;7</title>
<path fill="none" stroke="black" stroke-width="1.9" d="M314.001,-92.5293C324.182,-93.0753 332.9,-90.8522 332.9,-85.86 332.9,-81.7259 326.922,-79.4907 319.084,-79.1546"/>
<polygon fill="black" stroke="black" stroke-width="1.9" points="318.988,-77.4052 314.001,-79.1908 319.013,-80.9051 318.988,-77.4052"/>
</g>
<!-- 7&#45;&gt;8 -->
<g id="edge20" class="edge"><title>7&#45;&gt;8</title>
<path fill="none" stroke="black" stroke-width="2.23" d="M265.757,-83.2146C246.474,-83.9396 219.493,-86.8594 198.427,-90.4"/>
<polygon fill="black" stroke="black" stroke-width="2.23" points="198.107,-88.6794 193.482,-91.2627 198.708,-92.1273 198.107,-88.6794"/>
</g>
<!-- 8&#45;&gt;2 -->
<g id="edge21" class="edge"><title>8&#45;&gt;2</title>
<path fill="none" stroke="black" stroke-width="2.67" d="M179.946,-125.739C197.65,-157.714 227.797,-212.167 245.214,-243.625"/>
<polygon fill="black" stroke="black" stroke-width="2.67" points="243.735,-244.567 247.688,-248.094 246.797,-242.872 243.735,-244.567"/>
</g>
<!-- 8&#45;&gt;3 -->
<g id="edge22" class="edge"><title>8&#45;&gt;3</title>
<path fill="none" stroke="black" stroke-width="2.67" d="M151.734,-125.739C134.03,-157.714 103.883,-212.167 86.4665,-243.625"/>
<polygon fill="black" stroke="black" stroke-width="2.67" points="84.8831,-242.872 83.9922,-248.094 87.9451,-244.567 84.8831,-242.872"/>
</g>
<!-- 8&#45;&gt;5 -->
<g id="edge23" class="edge"><title>8&#45;&gt;5</title>
<path fill="none" stroke="black" stroke-width="2.23" d="M160.02,-128.957C158.883,-146.913 158.789,-170.126 159.736,-188.956"/>
<polygon fill="black" stroke="black" stroke-width="2.23" points="158,-189.25 160.031,-194.142 161.494,-189.051 158,-189.25"/>
</g>
<!-- 8&#45;&gt;7 -->
<g id="edge24" class="edge"><title>8&#45;&gt;7</title>
<path fill="none" stroke="black" stroke-width="1.9" d="M194.766,-102.715C215.032,-101.685 241.979,-98.5846 262.104,-94.9753"/>
<polygon fill="black" stroke="black" stroke-width="1.9" points="262.472,-96.6869 267.065,-94.0477 261.829,-93.2465 262.472,-96.6869"/>
</g>
<!-- 8&#45;&gt;8 -->
<g id="edge25" class="edge"><title>8&#45;&gt;8</title>
<path fill="none" stroke="black" stroke-width="2.23" d="M194.291,-107.003C204.509,-107.148 212.84,-104.901 212.84,-100.26 212.84,-96.417 207.127,-94.215 199.36,-93.6539"/>
<polygon fill="black" stroke="black" stroke-width="2.23" points="199.337,-91.9027 194.291,-93.5166 199.242,-95.4014 199.337,-91.9027"/>
</g>
<!-- 8&#45;&gt;9 -->
<g id="edge26" class="edge"><title>8&#45;&gt;9</title>
<path fill="none" stroke="black" stroke-width="2.5" d="M138.237,-91.2697C116.432,-87.3154 86.3049,-83.9467 65.4444,-83.197"/>
<polygon fill="black" stroke="black" stroke-width="2.5" points="65.3953,-81.4452 60.3513,-83.064 65.3039,-84.944 65.3953,-81.4452"/>
</g>
<!-- 10 -->
<g id="node11" class="node"><title>10</title>
<ellipse fill="#b5b5b5" stroke="#00594c" stroke-width="4" cx="214.8" cy="-22.5" rx="19" ry="19"/>
<text text-anchor="middle" x="214.8" y="-18.9" font-family="Helvetica,sans-Serif" font-size="12.00">Cdc20/14</text>
</g>
<!-- 8&#45;&gt;10 -->
<g id="edge27" class="edge"><title>8&#45;&gt;10</title>
<path fill="none" stroke="black" stroke-width="2.5" d="M186.395,-79.4399C193.757,-69.0398 201.559,-56.4536 207.246,-45.741"/>
<polygon fill="black" stroke="black" stroke-width="2.5" points="208.811,-46.5227 209.546,-41.2764 205.7,-44.9197 208.811,-46.5227"/>
</g>
<!-- 11 -->
<g id="node12" class="node"><title>11</title>
<ellipse fill="#f3f3f3" stroke="#00594c" stroke-width="4" cx="116.88" cy="-22.5" rx="22.5" ry="22.5"/>
<text text-anchor="middle" x="116.88" y="-18.9" font-family="Helvetica,sans-Serif" font-size="12.00">Swi5</text>
</g>
<!-- 8&#45;&gt;11 -->
<g id="edge28" class="edge"><title>8&#45;&gt;11</title>
<path fill="none" stroke="black" stroke-width="2.67" d="M150.349,-75.6563C144.474,-66.3263 137.798,-55.7226 131.962,-46.4535"/>
<polygon fill="black" stroke="black" stroke-width="2.67" points="133.317,-45.3205 129.171,-42.0218 130.355,-47.1854 133.317,-45.3205"/>
</g>
<!-- 9&#45;&gt;8 -->
<g id="edge29" class="edge"><title>9&#45;&gt;8</title>
<path fill="none" stroke="black" stroke-width="2.23" d="M59.0902,-92.9074C77.8689,-97.0196 107.917,-100.87 131.358,-102.392"/>
<polygon fill="black" stroke="black" stroke-width="2.23" points="131.461,-104.151 136.555,-102.697 131.666,-100.657 131.461,-104.151"/>
</g>
<!-- 9&#45;&gt;10 -->
<g id="edge30" class="edge"><title>9&#45;&gt;10</title>
<path fill="none" stroke="black" stroke-width="2.5" d="M59.1961,-79.318C90.8881,-67.7459 156.784,-43.6842 191.789,-30.9025"/>
<polygon fill="black" stroke="black" stroke-width="2.5" points="192.625,-32.4602 196.721,-29.1013 191.424,-29.1725 192.625,-32.4602"/>
</g>
<!-- 9&#45;&gt;11 -->
<g id="edge31" class="edge"><title>9&#45;&gt;11</title>
<path fill="none" stroke="black" stroke-width="2.67" d="M55.8564,-73.6436C67.0358,-64.2742 82.6398,-51.1965 95.2703,-40.611"/>
<polygon fill="black" stroke="black" stroke-width="2.67" points="96.721,-41.6785 99.429,-37.1256 94.4728,-38.996 96.721,-41.6785"/>
</g>
<!-- 10&#45;&gt;5 -->
<g id="edge32" class="edge"><title>10&#45;&gt;5</title>
<path fill="none" stroke="black" stroke-width="2.23" d="M210.282,-40.9718C202.024,-74.7306 184.39,-146.822 173.989,-189.345"/>
<polygon fill="black" stroke="black" stroke-width="2.23" points="172.246,-189.107 172.757,-194.38 175.645,-189.939 172.246,-189.107"/>
</g>
<!-- 10&#45;&gt;6 -->
<g id="edge33" class="edge"><title>10&#45;&gt;6</title>
<path fill="none" stroke="black" stroke-width="2.31" d="M200.145,-34.8323C167.057,-62.6764 86.3667,-130.578 46.7301,-163.932"/>
<polygon fill="black" stroke="black" stroke-width="2.31" points="45.2641,-162.879 42.5652,-167.437 47.5177,-165.557 45.2641,-162.879"/>
</g>
<!-- 10&#45;&gt;7 -->
<g id="edge34" class="edge"><title>10&#45;&gt;7</title>
<path fill="none" stroke="black" stroke-width="1.9" d="M229.376,-34.7164C240.17,-43.7627 255.089,-56.266 267.473,-66.6454"/>
<polygon fill="black" stroke="black" stroke-width="1.9" points="266.61,-68.2054 271.567,-70.0758 268.859,-65.5229 266.61,-68.2054"/>
</g>
<!-- 10&#45;&gt;8 -->
<g id="edge35" class="edge"><title>10&#45;&gt;8</title>
<path fill="none" stroke="black" stroke-width="2.23" d="M200.197,-35.2795C193.16,-44.3072 184.937,-56.754 178.214,-68.3554"/>
<polygon fill="black" stroke="black" stroke-width="2.23" points="176.568,-67.7086 175.622,-72.9208 179.612,-69.4367 176.568,-67.7086"/>
</g>
<!-- 10&#45;&gt;11 -->
<g id="edge36" class="edge"><title>10&#45;&gt;11</title>
<path fill="none" stroke="black" stroke-width="2.67" d="M195.454,-22.5C181.032,-22.5 161.12,-22.5 144.949,-22.5"/>
<polygon fill="black" stroke="black" stroke-width="2.67" points="144.622,-20.7501 139.622,-22.5 144.622,-24.2501 144.622,-20.7501"/>
</g>
<!-- 11&#45;&gt;5 -->
<g id="edge37" class="edge"><title>11&#45;&gt;5</title>
<path fill="none" stroke="black" stroke-width="2.23" d="M122.307,-44.6854C130.896,-79.799 147.674,-148.392 157.706,-189.408"/>
<polygon fill="black" stroke="black" stroke-width="2.23" points="156.008,-189.828 158.895,-194.269 159.407,-188.996 156.008,-189.828"/>
</g>
<!-- 11&#45;&gt;11 -->
<g id="edge38" class="edge"><title>11&#45;&gt;11</title>
<path fill="none" stroke="#a90533" stroke-width="4" stroke-dasharray="5,2" d="M138.547,-29.1165C148.598,-29.8383 157.38,-27.6328 157.38,-22.5 157.38,-18.2494 151.357,-16.0063 143.579,-15.7707"/>
<polygon fill="#a90533" stroke="#a90533" stroke-width="4" points="143.506,-14.0218 138.547,-15.8835 143.585,-17.5209 143.506,-14.0218"/>
</g>
</g>
</svg>
