<?xml version="1.0" encoding="UTF-8" standalone="no"?>
<!DOCTYPE svg PUBLIC "-//W3C//DTD SVG 1.1//EN"
 "http://www.w3.org/Graphics/SVG/1.1/DTD/svg11.dtd">
<!-- Generated by graphviz version 2.40.1 (20161225.0304)
 -->
<!-- Title: Structural Graph Pages: 1 -->
<svg width="216pt" height="172pt"
 viewBox="0.00 0.00 216.00 172.27" xmlns="http://www.w3.org/2000/svg" xmlns:xlink="http://www.w3.org/1999/xlink">
<g id="graph0" class="graph" transform="scale(.8991 .8991) rotate(0) translate(4 187.5988)">
<title>Structural Graph</title>
<polygon fill="#ffffff" stroke="transparent" points="-4,4 -4,-187.5988 236.24,-187.5988 236.24,4 -4,4"/>
<!-- 0 -->
<g id="node1" class="node">
<title>0</title>
<ellipse fill="#ffffff" stroke="#00594c" stroke-width="4" cx="20" cy="-163.5988" rx="20" ry="20"/>
<text text-anchor="middle" x="20" y="-159.9988" font-family="Helvetica,sans-Serif" font-size="12.00" fill="#000000">x1</text>
</g>
<!-- 1 -->
<g id="node2" class="node">
<title>1</title>
<ellipse fill="#ffffff" stroke="#00594c" stroke-width="4" cx="56.72" cy="-35.9554" rx="20" ry="20"/>
<text text-anchor="middle" x="56.72" y="-32.3554" font-family="Helvetica,sans-Serif" font-size="12.00" fill="#000000">xa</text>
</g>
<!-- 0&#45;&gt;1 -->
<g id="edge1" class="edge">
<title>0&#45;&gt;1</title>
<path fill="none" stroke="#000000" stroke-width="4" d="M25.577,-144.2125C32.0204,-121.8145 42.6337,-84.9211 49.6506,-60.5296"/>
<polygon fill="#000000" stroke="#000000" stroke-width="4" points="51.3899,-60.8131 51.0905,-55.5241 48.0263,-59.8454 51.3899,-60.8131"/>
<text text-anchor="middle" x="28.8638" y="-106.571" font-family="Times,serif" font-size="14.00" fill="#000000">1.0</text>
</g>
<!-- 2 -->
<g id="node3" class="node">
<title>2</title>
<ellipse fill="#ffffff" stroke="#00594c" stroke-width="4" cx="115.04" cy="-131.6879" rx="20" ry="20"/>
<text text-anchor="middle" x="115.04" y="-128.0879" font-family="Helvetica,sans-Serif" font-size="12.00" fill="#000000">xb</text>
</g>
<!-- 0&#45;&gt;2 -->
<g id="edge2" class="edge">
<title>0&#45;&gt;2</title>
<path fill="none" stroke="#000000" stroke-width="4" d="M39.2328,-157.1411C54.1759,-152.1238 74.9866,-145.1363 91.0238,-139.7517"/>
<polygon fill="#000000" stroke="#000000" stroke-width="4" points="91.6529,-141.3865 95.8358,-138.136 90.5388,-138.0685 91.6529,-141.3865"/>
<text text-anchor="middle" x="56.3783" y="-152.6464" font-family="Times,serif" font-size="14.00" fill="#000000">1.0</text>
</g>
<!-- 1&#45;&gt;2 -->
<g id="edge3" class="edge">
<title>1&#45;&gt;2</title>
<path fill="none" stroke="#000000" stroke-width="4" d="M67.1464,-53.0705C76.7897,-68.8998 91.173,-92.5101 101.6598,-109.7244"/>
<polygon fill="#000000" stroke="#000000" stroke-width="4" points="100.4113,-111.0387 104.5072,-114.3983 103.4004,-109.2178 100.4113,-111.0387"/>
<text text-anchor="middle" x="75.6531" y="-85.5974" font-family="Times,serif" font-size="14.00" fill="#000000">1.0</text>
</g>
<!-- 4 -->
<g id="node5" class="node">
<title>4</title>
<ellipse fill="#ffffff" stroke="#00594c" stroke-width="4" cx="167.6" cy="-20" rx="20" ry="20"/>
<text text-anchor="middle" x="167.6" y="-16.4" font-family="Helvetica,sans-Serif" font-size="12.00" fill="#000000">x2</text>
</g>
<!-- 1&#45;&gt;4 -->
<g id="edge4" class="edge">
<title>1&#45;&gt;4</title>
<path fill="none" stroke="#000000" stroke-width="4" d="M76.5431,-33.1029C94.9555,-30.4534 122.457,-26.496 142.4164,-23.6239"/>
<polygon fill="#000000" stroke="#000000" stroke-width="4" points="142.8749,-25.326 147.5746,-22.8816 142.3763,-21.8617 142.8749,-25.326"/>
<text text-anchor="middle" x="100.7298" y="-32.5634" font-family="Times,serif" font-size="14.00" fill="#000000">1.0</text>
</g>
<!-- 3 -->
<g id="node4" class="node">
<title>3</title>
<ellipse fill="#ffffff" stroke="#00594c" stroke-width="4" cx="212.24" cy="-147.6434" rx="20" ry="20"/>
<text text-anchor="middle" x="212.24" y="-144.0434" font-family="Helvetica,sans-Serif" font-size="12.00" fill="#000000">xc</text>
</g>
<!-- 2&#45;&gt;3 -->
<g id="edge5" class="edge">
<title>2&#45;&gt;3</title>
<path fill="none" stroke="#000000" stroke-width="4" d="M135.1799,-134.9939C150.2675,-137.4705 171.0052,-140.8746 187.1675,-143.5277"/>
<polygon fill="#000000" stroke="#000000" stroke-width="4" points="187.241,-145.3131 192.4585,-144.3962 187.808,-141.8593 187.241,-145.3131"/>
<text text-anchor="middle" x="152.4237" y="-143.4608" font-family="Times,serif" font-size="14.00" fill="#000000">1.0</text>
</g>
<!-- 2&#45;&gt;4 -->
<g id="edge6" class="edge">
<title>2&#45;&gt;4</title>
<path fill="none" stroke="#000000" stroke-width="4" d="M123.7192,-113.2449C132.8272,-93.8908 147.1553,-63.4442 156.9435,-42.6445"/>
<polygon fill="#000000" stroke="#000000" stroke-width="4" points="158.5366,-43.3691 159.0823,-38.0998 155.3698,-41.8787 158.5366,-43.3691"/>
<text text-anchor="middle" x="131.5814" y="-82.1447" font-family="Times,serif" font-size="14.00" fill="#000000">1.0</text>
</g>
<!-- 3&#45;&gt;4 -->
<g id="edge7" class="edge">
<title>3&#45;&gt;4</title>
<path fill="none" stroke="#000000" stroke-width="4" d="M205.5569,-128.5339C197.7002,-106.0684 184.6488,-68.7492 176.0846,-44.2609"/>
<polygon fill="#000000" stroke="#000000" stroke-width="4" points="177.6313,-43.3821 174.3287,-39.2401 174.3275,-44.5376 177.6313,-43.3821"/>
<text text-anchor="middle" x="182.0708" y="-90.5974" font-family="Times,serif" font-size="14.00" fill="#000000">1.0</text>
</g>
</g>
</svg>
