<?xml version="1.0" encoding="UTF-8" standalone="no"?>
<!DOCTYPE svg PUBLIC "-//W3C//DTD SVG 1.1//EN"
 "http://www.w3.org/Graphics/SVG/1.1/DTD/svg11.dtd">
<!-- Generated by graphviz version 2.36.0 (20140111.2315)
 -->
<!-- Title: Structural Graph Pages: 1 -->
<svg width="216pt" height="172pt"
 viewBox="0.00 0.00 216.00 172.27" xmlns="http://www.w3.org/2000/svg" xmlns:xlink="http://www.w3.org/1999/xlink">
<g id="graph0" class="graph" transform="scale(0.899101 0.899101) rotate(0) translate(4 187.599)">
<title>Structural Graph</title>
<polygon fill="white" stroke="none" points="-4,4 -4,-187.599 236.24,-187.599 236.24,4 -4,4"/>
<!-- 0 -->
<g id="node1" class="node"><title>0</title>
<ellipse fill="white" stroke="#00594c" stroke-width="4" cx="20" cy="-163.599" rx="20" ry="20"/>
<text text-anchor="middle" x="20" y="-159.999" font-family="Helvetica,sans-Serif" font-size="12.00">x1</text>
</g>
<!-- 1 -->
<g id="node2" class="node"><title>1</title>
<ellipse fill="white" stroke="#00594c" stroke-width="4" cx="56.72" cy="-35.9554" rx="20" ry="20"/>
<text text-anchor="middle" x="56.72" y="-32.3554" font-family="Helvetica,sans-Serif" font-size="12.00">xa</text>
</g>
<!-- 0&#45;&gt;1 -->
<g id="edge1" class="edge"><title>0&#45;&gt;1</title>
<path fill="none" stroke="black" stroke-width="4" d="M25.577,-144.212C32.0204,-121.814 42.6337,-84.9211 49.6506,-60.5296"/>
<polygon fill="black" stroke="black" stroke-width="4" points="51.3899,-60.8131 51.0905,-55.5241 48.0263,-59.8454 51.3899,-60.8131"/>
<text text-anchor="middle" x="28.8638" y="-105.171" font-family="Times,serif" font-size="14.00">1.0</text>
</g>
<!-- 2 -->
<g id="node3" class="node"><title>2</title>
<ellipse fill="white" stroke="#00594c" stroke-width="4" cx="115.04" cy="-131.688" rx="20" ry="20"/>
<text text-anchor="middle" x="115.04" y="-128.088" font-family="Helvetica,sans-Serif" font-size="12.00">xb</text>
</g>
<!-- 0&#45;&gt;2 -->
<g id="edge2" class="edge"><title>0&#45;&gt;2</title>
<path fill="none" stroke="black" stroke-width="4" d="M39.2328,-157.141C54.1759,-152.124 74.9866,-145.136 91.0238,-139.752"/>
<polygon fill="black" stroke="black" stroke-width="4" points="91.6529,-141.387 95.8358,-138.136 90.5388,-138.069 91.6529,-141.387"/>
<text text-anchor="middle" x="56.3783" y="-151.246" font-family="Times,serif" font-size="14.00">1.0</text>
</g>
<!-- 1&#45;&gt;2 -->
<g id="edge3" class="edge"><title>1&#45;&gt;2</title>
<path fill="none" stroke="black" stroke-width="4" d="M67.1464,-53.0705C76.7897,-68.8998 91.173,-92.5101 101.66,-109.724"/>
<polygon fill="black" stroke="black" stroke-width="4" points="100.411,-111.039 104.507,-114.398 103.4,-109.218 100.411,-111.039"/>
<text text-anchor="middle" x="75.6531" y="-84.1974" font-family="Times,serif" font-size="14.00">1.0</text>
</g>
<!-- 4 -->
<g id="node5" class="node"><title>4</title>
<ellipse fill="white" stroke="#00594c" stroke-width="4" cx="167.6" cy="-20" rx="20" ry="20"/>
<text text-anchor="middle" x="167.6" y="-16.4" font-family="Helvetica,sans-Serif" font-size="12.00">x2</text>
</g>
<!-- 1&#45;&gt;4 -->
<g id="edge4" class="edge"><title>1&#45;&gt;4</title>
<path fill="none" stroke="black" stroke-width="4" d="M76.5431,-33.1029C94.9555,-30.4534 122.457,-26.496 142.416,-23.6239"/>
<polygon fill="black" stroke="black" stroke-width="4" points="142.875,-25.326 147.575,-22.8816 142.376,-21.8617 142.875,-25.326"/>
<text text-anchor="middle" x="100.73" y="-31.1634" font-family="Times,serif" font-size="14.00">1.0</text>
</g>
<!-- 3 -->
<g id="node4" class="node"><title>3</title>
<ellipse fill="white" stroke="#00594c" stroke-width="4" cx="212.24" cy="-147.643" rx="20" ry="20"/>
<text text-anchor="middle" x="212.24" y="-144.043" font-family="Helvetica,sans-Serif" font-size="12.00">xc</text>
</g>
<!-- 2&#45;&gt;3 -->
<g id="edge5" class="edge"><title>2&#45;&gt;3</title>
<path fill="none" stroke="black" stroke-width="4" d="M135.18,-134.994C150.267,-137.471 171.005,-140.875 187.168,-143.528"/>
<polygon fill="black" stroke="black" stroke-width="4" points="187.241,-145.313 192.458,-144.396 187.808,-141.859 187.241,-145.313"/>
<text text-anchor="middle" x="152.424" y="-142.061" font-family="Times,serif" font-size="14.00">1.0</text>
</g>
<!-- 2&#45;&gt;4 -->
<g id="edge6" class="edge"><title>2&#45;&gt;4</title>
<path fill="none" stroke="black" stroke-width="4" d="M123.719,-113.245C132.827,-93.8908 147.155,-63.4442 156.944,-42.6445"/>
<polygon fill="black" stroke="black" stroke-width="4" points="158.537,-43.3691 159.082,-38.0998 155.37,-41.8787 158.537,-43.3691"/>
<text text-anchor="middle" x="131.581" y="-80.7447" font-family="Times,serif" font-size="14.00">1.0</text>
</g>
<!-- 3&#45;&gt;4 -->
<g id="edge7" class="edge"><title>3&#45;&gt;4</title>
<path fill="none" stroke="black" stroke-width="4" d="M205.557,-128.534C197.7,-106.068 184.649,-68.7492 176.085,-44.2609"/>
<polygon fill="black" stroke="black" stroke-width="4" points="177.631,-43.3821 174.329,-39.2401 174.328,-44.5376 177.631,-43.3821"/>
<text text-anchor="middle" x="182.071" y="-89.1974" font-family="Times,serif" font-size="14.00">1.0</text>
</g>
</g>
</svg>
