<?xml version="1.0" encoding="utf-8" standalone="no"?>
<!DOCTYPE svg PUBLIC "-//W3C//DTD SVG 1.1//EN"
  "http://www.w3.org/Graphics/SVG/1.1/DTD/svg11.dtd">
<!-- Created with matplotlib (https://matplotlib.org/) -->
<svg height="193.44pt" version="1.1" viewBox="0 0 149.28 193.44" width="149.28pt" xmlns="http://www.w3.org/2000/svg" xmlns:xlink="http://www.w3.org/1999/xlink">
 <defs>
  <style type="text/css">
*{stroke-linecap:butt;stroke-linejoin:round;}
  </style>
 </defs>
 <g id="figure_1">
  <g id="patch_1">
   <path d="M 0 193.44 
L 149.28 193.44 
L 149.28 0 
L 0 0 
z
" style="fill:none;"/>
  </g>
  <g id="axes_1">
   <g id="patch_2">
    <path d="M 28.8 181.305222 
L 125.28 181.305222 
L 125.28 57.734778 
L 28.8 57.734778 
z
" style="fill:none;"/>
   </g>
   <g id="PatchCollection_1">
    <path clip-path="url(#p14b5d1ae10)" d="M 29.275271 180.829951 
L 57.791527 180.829951 
L 57.791527 152.313695 
L 29.275271 152.313695 
z
" style="stroke:#000000;"/>
    <path clip-path="url(#p14b5d1ae10)" d="M 57.791527 180.829951 
L 86.307783 180.829951 
L 86.307783 152.313695 
L 57.791527 152.313695 
z
" style="stroke:#000000;"/>
    <path clip-path="url(#p14b5d1ae10)" d="M 96.288473 180.829951 
L 124.804729 180.829951 
L 124.804729 152.313695 
L 96.288473 152.313695 
z
" style="stroke:#000000;"/>
    <path clip-path="url(#p14b5d1ae10)" d="M 29.275271 149.462069 
L 57.791527 149.462069 
L 57.791527 120.945813 
L 29.275271 120.945813 
z
" style="stroke:#000000;"/>
    <path clip-path="url(#p14b5d1ae10)" d="M 57.791527 149.462069 
L 86.307783 149.462069 
L 86.307783 120.945813 
L 57.791527 120.945813 
z
" style="fill:#ffffff;stroke:#000000;"/>
    <path clip-path="url(#p14b5d1ae10)" d="M 96.288473 149.462069 
L 124.804729 149.462069 
L 124.804729 120.945813 
L 96.288473 120.945813 
z
" style="stroke:#000000;"/>
    <path clip-path="url(#p14b5d1ae10)" d="M 29.275271 118.094187 
L 57.791527 118.094187 
L 57.791527 89.577931 
L 29.275271 89.577931 
z
" style="fill:#ffffff;stroke:#000000;"/>
    <path clip-path="url(#p14b5d1ae10)" d="M 57.791527 118.094187 
L 86.307783 118.094187 
L 86.307783 89.577931 
L 57.791527 89.577931 
z
" style="stroke:#000000;"/>
    <path clip-path="url(#p14b5d1ae10)" d="M 96.288473 118.094187 
L 124.804729 118.094187 
L 124.804729 89.577931 
L 96.288473 89.577931 
z
" style="stroke:#000000;"/>
    <path clip-path="url(#p14b5d1ae10)" d="M 29.275271 86.726305 
L 57.791527 86.726305 
L 57.791527 58.210049 
L 29.275271 58.210049 
z
" style="fill:#ffffff;stroke:#000000;"/>
    <path clip-path="url(#p14b5d1ae10)" d="M 57.791527 86.726305 
L 86.307783 86.726305 
L 86.307783 58.210049 
L 57.791527 58.210049 
z
" style="fill:#ffffff;stroke:#000000;"/>
    <path clip-path="url(#p14b5d1ae10)" d="M 96.288473 86.726305 
L 124.804729 86.726305 
L 124.804729 58.210049 
L 96.288473 58.210049 
z
" style="fill:#ffffff;stroke:#000000;"/>
   </g>
   <g id="matplotlib.axis_1">
    <g id="xtick_1">
     <g id="text_1">
      <!-- $x_5$ -->
      <defs>
       <path d="M 7.8125 2.875 
Q 9.578125 1.515625 12.796875 1.515625 
Q 15.921875 1.515625 18.3125 4.515625 
Q 20.703125 7.515625 21.578125 11.078125 
L 26.125 28.8125 
Q 27.203125 33.640625 27.203125 35.40625 
Q 27.203125 37.890625 25.8125 39.75 
Q 24.421875 41.609375 21.921875 41.609375 
Q 18.75 41.609375 15.96875 39.625 
Q 13.1875 37.640625 11.28125 34.59375 
Q 9.375 31.546875 8.59375 28.421875 
Q 8.40625 27.78125 7.8125 27.78125 
L 6.59375 27.78125 
Q 5.8125 27.78125 5.8125 28.71875 
L 5.8125 29 
Q 6.78125 32.71875 9.125 36.25 
Q 11.46875 39.796875 14.859375 41.984375 
Q 18.265625 44.1875 22.125 44.1875 
Q 25.78125 44.1875 28.734375 42.234375 
Q 31.6875 40.28125 32.90625 36.921875 
Q 34.625 39.984375 37.28125 42.078125 
Q 39.9375 44.1875 43.109375 44.1875 
Q 45.265625 44.1875 47.5 43.421875 
Q 49.75 42.671875 51.171875 41.109375 
Q 52.59375 39.546875 52.59375 37.203125 
Q 52.59375 34.671875 50.953125 32.828125 
Q 49.3125 31 46.78125 31 
Q 45.171875 31 44.09375 32.03125 
Q 43.015625 33.0625 43.015625 34.625 
Q 43.015625 36.71875 44.453125 38.296875 
Q 45.90625 39.890625 47.90625 40.1875 
Q 46.09375 41.609375 42.921875 41.609375 
Q 39.703125 41.609375 37.328125 38.625 
Q 34.96875 35.640625 33.984375 31.984375 
L 29.59375 14.3125 
Q 28.515625 10.296875 28.515625 7.71875 
Q 28.515625 5.171875 29.953125 3.34375 
Q 31.390625 1.515625 33.796875 1.515625 
Q 38.484375 1.515625 42.15625 5.640625 
Q 45.84375 9.765625 47.015625 14.703125 
Q 47.21875 15.28125 47.796875 15.28125 
L 49.03125 15.28125 
Q 49.421875 15.28125 49.65625 15.015625 
Q 49.90625 14.75 49.90625 14.40625 
Q 49.90625 14.3125 49.8125 14.109375 
Q 48.390625 8.15625 43.84375 3.515625 
Q 39.3125 -1.125 33.59375 -1.125 
Q 29.9375 -1.125 26.984375 0.84375 
Q 24.03125 2.828125 22.796875 6.203125 
Q 21.234375 3.265625 18.46875 1.0625 
Q 15.71875 -1.125 12.59375 -1.125 
Q 10.453125 -1.125 8.171875 -0.359375 
Q 5.90625 0.390625 4.484375 1.953125 
Q 3.078125 3.515625 3.078125 5.90625 
Q 3.078125 8.25 4.703125 10.171875 
Q 6.34375 12.109375 8.796875 12.109375 
Q 10.453125 12.109375 11.578125 11.109375 
Q 12.703125 10.109375 12.703125 8.5 
Q 12.703125 6.390625 11.296875 4.828125 
Q 9.90625 3.265625 7.8125 2.875 
z
" id="Cmmi10-120"/>
       <path d="M 8.6875 11.375 
Q 9.71875 8.453125 11.84375 6.046875 
Q 13.96875 3.65625 16.875 2.3125 
Q 19.78125 0.984375 22.90625 0.984375 
Q 30.125 0.984375 32.859375 6.59375 
Q 35.59375 12.203125 35.59375 20.21875 
Q 35.59375 23.6875 35.46875 26.046875 
Q 35.359375 28.421875 34.8125 30.609375 
Q 33.890625 34.125 31.5625 36.765625 
Q 29.25 39.40625 25.875 39.40625 
Q 22.515625 39.40625 20.09375 38.375 
Q 17.671875 37.359375 16.15625 35.984375 
Q 14.65625 34.625 13.484375 33.109375 
Q 12.3125 31.59375 12.015625 31.5 
L 10.890625 31.5 
Q 10.640625 31.5 10.265625 31.8125 
Q 9.90625 32.125 9.90625 32.421875 
L 9.90625 65.828125 
Q 9.90625 66.0625 10.21875 66.328125 
Q 10.546875 66.609375 10.890625 66.609375 
L 11.1875 66.609375 
Q 17.921875 63.375 25.484375 63.375 
Q 32.90625 63.375 39.796875 66.609375 
L 40.09375 66.609375 
Q 40.4375 66.609375 40.71875 66.359375 
Q 41.015625 66.109375 41.015625 65.828125 
L 41.015625 64.890625 
Q 41.015625 64.40625 40.828125 64.40625 
Q 37.40625 59.859375 32.25 57.3125 
Q 27.09375 54.78125 21.578125 54.78125 
Q 17.578125 54.78125 13.375 55.90625 
L 13.375 37.015625 
Q 16.703125 39.703125 19.3125 40.84375 
Q 21.921875 42 25.984375 42 
Q 31.5 42 35.859375 38.8125 
Q 40.234375 35.640625 42.578125 30.53125 
Q 44.921875 25.4375 44.921875 20.125 
Q 44.921875 14.109375 41.96875 8.984375 
Q 39.015625 3.859375 33.9375 0.828125 
Q 28.859375 -2.203125 22.90625 -2.203125 
Q 17.96875 -2.203125 13.84375 0.328125 
Q 9.71875 2.875 7.34375 7.171875 
Q 4.984375 11.46875 4.984375 16.3125 
Q 4.984375 18.5625 6.4375 19.96875 
Q 7.90625 21.390625 10.109375 21.390625 
Q 12.3125 21.390625 13.796875 19.9375 
Q 15.28125 18.5 15.28125 16.3125 
Q 15.28125 14.15625 13.796875 12.671875 
Q 12.3125 11.1875 10.109375 11.1875 
Q 9.765625 11.1875 9.328125 11.25 
Q 8.890625 11.328125 8.6875 11.375 
z
" id="Cmr10-53"/>
      </defs>
      <g transform="translate(36.603399 44.323216)scale(0.14 -0.14)">
       <use transform="translate(0 0.8125)" xlink:href="#Cmmi10-120"/>
       <use transform="translate(57.080078 -16.19375)scale(0.7)" xlink:href="#Cmr10-53"/>
      </g>
     </g>
    </g>
    <g id="xtick_2">
     <g id="text_2">
      <!-- $x_6$ -->
      <defs>
       <path d="M 25 -2.203125 
Q 18.796875 -2.203125 14.640625 1.09375 
Q 10.5 4.390625 8.21875 9.640625 
Q 5.953125 14.890625 5.078125 20.65625 
Q 4.203125 26.421875 4.203125 32.328125 
Q 4.203125 40.234375 7.28125 48.1875 
Q 10.359375 56.15625 16.328125 61.375 
Q 22.3125 66.609375 30.515625 66.609375 
Q 33.9375 66.609375 36.890625 65.3125 
Q 39.84375 64.015625 41.53125 61.5 
Q 43.21875 58.984375 43.21875 55.421875 
Q 43.21875 53.375 41.828125 51.984375 
Q 40.4375 50.59375 38.375 50.59375 
Q 36.421875 50.59375 35 52 
Q 33.59375 53.421875 33.59375 55.421875 
Q 33.59375 57.375 35 58.78125 
Q 36.421875 60.203125 38.375 60.203125 
L 38.921875 60.203125 
Q 37.640625 62.015625 35.328125 62.859375 
Q 33.015625 63.71875 30.515625 63.71875 
Q 27.484375 63.71875 24.921875 62.390625 
Q 22.359375 61.078125 20.3125 58.828125 
Q 18.265625 56.59375 16.890625 53.875 
Q 15.53125 51.171875 14.765625 47.703125 
Q 14.015625 44.234375 13.8125 41.203125 
Q 13.625 38.1875 13.625 33.59375 
Q 15.375 37.703125 18.59375 40.3125 
Q 21.828125 42.921875 25.875 42.921875 
Q 30.328125 42.921875 33.984375 41.109375 
Q 37.640625 39.3125 40.28125 36.109375 
Q 42.921875 32.90625 44.3125 28.796875 
Q 45.703125 24.703125 45.703125 20.515625 
Q 45.703125 14.65625 43.09375 9.34375 
Q 40.484375 4.046875 35.734375 0.921875 
Q 31 -2.203125 25 -2.203125 
z
M 25 0.984375 
Q 28.859375 0.984375 31.203125 2.734375 
Q 33.546875 4.5 34.640625 7.390625 
Q 35.75 10.296875 36.015625 13.25 
Q 36.28125 16.21875 36.28125 20.515625 
Q 36.28125 26.171875 35.734375 30.171875 
Q 35.203125 34.1875 32.8125 37.234375 
Q 30.421875 40.28125 25.484375 40.28125 
Q 21.4375 40.28125 18.828125 37.546875 
Q 16.21875 34.8125 15.015625 30.640625 
Q 13.8125 26.46875 13.8125 22.609375 
Q 13.8125 21.296875 13.921875 20.609375 
Q 13.921875 20.453125 13.890625 20.359375 
Q 13.875 20.265625 13.8125 20.125 
Q 13.8125 15.828125 14.6875 11.421875 
Q 15.578125 7.03125 18.0625 4 
Q 20.5625 0.984375 25 0.984375 
z
" id="Cmr10-54"/>
      </defs>
      <g transform="translate(65.119655 44.323216)scale(0.14 -0.14)">
       <use transform="translate(0 0.8125)" xlink:href="#Cmmi10-120"/>
       <use transform="translate(57.080078 -16.19375)scale(0.7)" xlink:href="#Cmr10-54"/>
      </g>
     </g>
    </g>
    <g id="xtick_3">
     <g id="text_3">
      <!-- $x_7$ -->
      <defs>
       <path d="M 17.390625 2.59375 
Q 17.390625 8.15625 18.359375 13.46875 
Q 19.34375 18.796875 21.21875 24 
Q 23.09375 29.203125 25.75 34.203125 
Q 28.421875 39.203125 31.59375 43.609375 
L 40.71875 56.296875 
L 29.296875 56.296875 
Q 11.53125 56.296875 10.984375 55.8125 
Q 9.671875 54.203125 8.5 46.578125 
L 5.609375 46.578125 
L 8.890625 67.578125 
L 11.8125 67.578125 
L 11.8125 67.28125 
Q 11.8125 65.484375 17.921875 64.9375 
Q 24.03125 64.40625 29.890625 64.40625 
L 48.484375 64.40625 
L 48.484375 61.8125 
Q 48.484375 61.71875 48.453125 61.671875 
Q 48.4375 61.625 48.390625 61.53125 
L 34.625 42.1875 
Q 29.546875 34.671875 28.265625 25.484375 
Q 27 16.3125 27 2.59375 
Q 27 0.640625 25.578125 -0.78125 
Q 24.171875 -2.203125 22.21875 -2.203125 
Q 20.21875 -2.203125 18.796875 -0.78125 
Q 17.390625 0.640625 17.390625 2.59375 
z
" id="Cmr10-55"/>
      </defs>
      <g transform="translate(103.616601 44.323216)scale(0.14 -0.14)">
       <use transform="translate(0 0.8125)" xlink:href="#Cmmi10-120"/>
       <use transform="translate(57.080078 -16.19375)scale(0.7)" xlink:href="#Cmr10-55"/>
      </g>
     </g>
    </g>
   </g>
   <g id="matplotlib.axis_2">
    <g id="ytick_1">
     <g id="text_4">
      <!-- $f_{4}$ -->
      <defs>
       <path d="M 9.71875 -16.5 
Q 11.578125 -17.921875 14.203125 -17.921875 
Q 17.78125 -17.921875 20.015625 -10.015625 
Q 20.953125 -6.203125 25.09375 15.09375 
L 29.6875 39.59375 
L 21.09375 39.59375 
Q 20.125 39.59375 20.125 40.921875 
Q 20.515625 43.109375 21.390625 43.109375 
L 30.328125 43.109375 
L 31.5 49.609375 
Q 32.078125 52.640625 32.5625 54.8125 
Q 33.0625 56.984375 33.625 58.828125 
Q 34.1875 60.6875 35.296875 62.984375 
Q 37.015625 66.265625 39.921875 68.390625 
Q 42.828125 70.515625 46.1875 70.515625 
Q 48.390625 70.515625 50.46875 69.703125 
Q 52.546875 68.890625 53.859375 67.28125 
Q 55.171875 65.671875 55.171875 63.484375 
Q 55.171875 60.9375 53.484375 59.046875 
Q 51.8125 57.171875 49.421875 57.171875 
Q 47.796875 57.171875 46.65625 58.171875 
Q 45.515625 59.1875 45.515625 60.796875 
Q 45.515625 62.984375 47 64.625 
Q 48.484375 66.265625 50.6875 66.5 
Q 48.828125 67.921875 46.09375 67.921875 
Q 44.578125 67.921875 43.234375 66.5 
Q 41.890625 65.09375 41.5 63.484375 
Q 40.875 60.9375 38.71875 49.703125 
L 37.5 43.109375 
L 47.796875 43.109375 
Q 48.78125 43.109375 48.78125 41.796875 
Q 48.734375 41.546875 48.578125 40.9375 
Q 48.4375 40.328125 48.171875 39.953125 
Q 47.90625 39.59375 47.515625 39.59375 
L 36.8125 39.59375 
L 32.171875 15.1875 
Q 31.296875 9.859375 30.140625 4.359375 
Q 29 -1.125 26.921875 -6.90625 
Q 24.859375 -12.703125 21.625 -16.609375 
Q 18.40625 -20.515625 14.015625 -20.515625 
Q 10.640625 -20.515625 7.984375 -18.578125 
Q 5.328125 -16.65625 5.328125 -13.484375 
Q 5.328125 -10.9375 6.953125 -9.046875 
Q 8.59375 -7.171875 11.078125 -7.171875 
Q 12.75 -7.171875 13.859375 -8.171875 
Q 14.984375 -9.1875 14.984375 -10.796875 
Q 14.984375 -12.9375 13.390625 -14.71875 
Q 11.8125 -16.5 9.71875 -16.5 
z
" id="Cmmi10-102"/>
       <path d="M 2.78125 16.5 
L 2.78125 20.015625 
L 33.6875 66.109375 
Q 34.03125 66.609375 34.71875 66.609375 
L 36.1875 66.609375 
Q 37.3125 66.609375 37.3125 65.484375 
L 37.3125 20.015625 
L 47.125 20.015625 
L 47.125 16.5 
L 37.3125 16.5 
L 37.3125 6.6875 
Q 37.3125 4.640625 40.234375 4.078125 
Q 43.171875 3.515625 47.015625 3.515625 
L 47.015625 0 
L 19.484375 0 
L 19.484375 3.515625 
Q 23.34375 3.515625 26.265625 4.078125 
Q 29.203125 4.640625 29.203125 6.6875 
L 29.203125 16.5 
z
M 6.109375 20.015625 
L 29.78125 20.015625 
L 29.78125 55.421875 
z
" id="Cmr10-52"/>
      </defs>
      <g transform="translate(5.56 171.87651)scale(0.14 -0.14)">
       <use transform="translate(0 0.484375)" xlink:href="#Cmmi10-102"/>
       <use transform="translate(48.876953 -16.521875)scale(0.7)" xlink:href="#Cmr10-52"/>
      </g>
     </g>
    </g>
    <g id="ytick_2">
     <g id="text_5">
      <!-- $f_{3}$ -->
      <defs>
       <path d="M 9.515625 7.71875 
Q 11.859375 4.296875 15.8125 2.640625 
Q 19.78125 0.984375 24.3125 0.984375 
Q 30.125 0.984375 32.5625 5.9375 
Q 35.015625 10.890625 35.015625 17.1875 
Q 35.015625 20.015625 34.5 22.84375 
Q 33.984375 25.6875 32.765625 28.125 
Q 31.546875 30.5625 29.421875 32.03125 
Q 27.296875 33.5 24.21875 33.5 
L 17.578125 33.5 
Q 16.703125 33.5 16.703125 34.421875 
L 16.703125 35.296875 
Q 16.703125 36.078125 17.578125 36.078125 
L 23.09375 36.53125 
Q 26.609375 36.53125 28.921875 39.15625 
Q 31.25 41.796875 32.328125 45.578125 
Q 33.40625 49.359375 33.40625 52.78125 
Q 33.40625 57.5625 31.15625 60.640625 
Q 28.90625 63.71875 24.3125 63.71875 
Q 20.515625 63.71875 17.046875 62.28125 
Q 13.578125 60.84375 11.53125 57.90625 
Q 11.71875 57.953125 11.859375 57.984375 
Q 12.015625 58.015625 12.203125 58.015625 
Q 14.453125 58.015625 15.96875 56.453125 
Q 17.484375 54.890625 17.484375 52.6875 
Q 17.484375 50.53125 15.96875 48.96875 
Q 14.453125 47.40625 12.203125 47.40625 
Q 10.015625 47.40625 8.453125 48.96875 
Q 6.890625 50.53125 6.890625 52.6875 
Q 6.890625 56.984375 9.46875 60.15625 
Q 12.0625 63.328125 16.140625 64.96875 
Q 20.21875 66.609375 24.3125 66.609375 
Q 27.34375 66.609375 30.703125 65.703125 
Q 34.078125 64.796875 36.8125 63.109375 
Q 39.546875 61.421875 41.28125 58.78125 
Q 43.015625 56.15625 43.015625 52.78125 
Q 43.015625 48.578125 41.140625 45.015625 
Q 39.265625 41.453125 35.984375 38.859375 
Q 32.71875 36.28125 28.8125 35.015625 
Q 33.15625 34.1875 37.0625 31.734375 
Q 40.96875 29.296875 43.328125 25.484375 
Q 45.703125 21.6875 45.703125 17.28125 
Q 45.703125 11.765625 42.671875 7.296875 
Q 39.65625 2.828125 34.71875 0.3125 
Q 29.78125 -2.203125 24.3125 -2.203125 
Q 19.625 -2.203125 14.90625 -0.40625 
Q 10.203125 1.375 7.203125 4.9375 
Q 4.203125 8.5 4.203125 13.484375 
Q 4.203125 15.96875 5.859375 17.625 
Q 7.515625 19.28125 10.015625 19.28125 
Q 11.625 19.28125 12.96875 18.53125 
Q 14.3125 17.78125 15.0625 16.40625 
Q 15.828125 15.046875 15.828125 13.484375 
Q 15.828125 11.03125 14.109375 9.375 
Q 12.40625 7.71875 10.015625 7.71875 
z
" id="Cmr10-51"/>
      </defs>
      <g transform="translate(5.56 140.508628)scale(0.14 -0.14)">
       <use transform="translate(0 0.484375)" xlink:href="#Cmmi10-102"/>
       <use transform="translate(48.876953 -16.521875)scale(0.7)" xlink:href="#Cmr10-51"/>
      </g>
     </g>
    </g>
    <g id="ytick_3">
     <g id="text_6">
      <!-- $f_{2}$ -->
      <defs>
       <path d="M 4.984375 0 
L 4.984375 2.6875 
Q 4.984375 2.9375 5.171875 3.21875 
L 20.703125 20.40625 
Q 24.21875 24.21875 26.40625 26.796875 
Q 28.609375 29.390625 30.75 32.765625 
Q 32.90625 36.140625 34.15625 39.625 
Q 35.40625 43.109375 35.40625 47.015625 
Q 35.40625 51.125 33.890625 54.859375 
Q 32.375 58.59375 29.375 60.84375 
Q 26.375 63.09375 22.125 63.09375 
Q 17.78125 63.09375 14.3125 60.46875 
Q 10.84375 57.859375 9.421875 53.71875 
Q 9.8125 53.8125 10.5 53.8125 
Q 12.75 53.8125 14.328125 52.296875 
Q 15.921875 50.78125 15.921875 48.390625 
Q 15.921875 46.09375 14.328125 44.5 
Q 12.75 42.921875 10.5 42.921875 
Q 8.15625 42.921875 6.5625 44.546875 
Q 4.984375 46.1875 4.984375 48.390625 
Q 4.984375 52.15625 6.390625 55.4375 
Q 7.8125 58.734375 10.46875 61.296875 
Q 13.140625 63.875 16.484375 65.234375 
Q 19.828125 66.609375 23.578125 66.609375 
Q 29.296875 66.609375 34.21875 64.1875 
Q 39.15625 61.765625 42.03125 57.34375 
Q 44.921875 52.9375 44.921875 47.015625 
Q 44.921875 42.671875 43.015625 38.765625 
Q 41.109375 34.859375 38.125 31.65625 
Q 35.15625 28.46875 30.515625 24.40625 
Q 25.875 20.359375 24.421875 19 
L 13.09375 8.109375 
L 22.703125 8.109375 
Q 29.78125 8.109375 34.546875 8.21875 
Q 39.3125 8.34375 39.59375 8.59375 
Q 40.765625 9.859375 42 17.828125 
L 44.921875 17.828125 
L 42.09375 0 
z
" id="Cmr10-50"/>
      </defs>
      <g transform="translate(5.56 109.140747)scale(0.14 -0.14)">
       <use transform="translate(0 0.484375)" xlink:href="#Cmmi10-102"/>
       <use transform="translate(48.876953 -16.521875)scale(0.7)" xlink:href="#Cmr10-50"/>
      </g>
     </g>
    </g>
    <g id="ytick_4">
     <g id="text_7">
      <!-- $f_{1}$ -->
      <defs>
       <path d="M 9.28125 0 
L 9.28125 3.515625 
Q 21.78125 3.515625 21.78125 6.6875 
L 21.78125 59.1875 
Q 16.609375 56.6875 8.6875 56.6875 
L 8.6875 60.203125 
Q 20.953125 60.203125 27.203125 66.609375 
L 28.609375 66.609375 
Q 28.953125 66.609375 29.265625 66.328125 
Q 29.59375 66.0625 29.59375 65.71875 
L 29.59375 6.6875 
Q 29.59375 3.515625 42.09375 3.515625 
L 42.09375 0 
z
" id="Cmr10-49"/>
      </defs>
      <g transform="translate(5.56 77.772865)scale(0.14 -0.14)">
       <use transform="translate(0 0.484375)" xlink:href="#Cmmi10-102"/>
       <use transform="translate(48.876953 -16.521875)scale(0.7)" xlink:href="#Cmr10-49"/>
      </g>
     </g>
    </g>
   </g>
   <g id="text_8">
    <g clip-path="url(#p14b5d1ae10)">
     <!-- 1 -->
     <defs>
      <path d="M 14.203125 0 
L 14.203125 5.171875 
L 26.90625 5.171875 
L 26.90625 65.828125 
L 12.203125 56.296875 
L 12.203125 62.703125 
L 29.984375 74.21875 
L 36.71875 74.21875 
L 36.71875 5.171875 
L 49.421875 5.171875 
L 49.421875 0 
z
" id="DejaVuSerif-49"/>
     </defs>
     <g style="fill:#ffffff;" transform="translate(39.079649 173.286573)scale(0.14 -0.14)">
      <use xlink:href="#DejaVuSerif-49"/>
     </g>
    </g>
   </g>
   <g id="text_9">
    <g clip-path="url(#p14b5d1ae10)">
     <!-- 1 -->
     <g style="fill:#ffffff;" transform="translate(67.595905 173.286573)scale(0.14 -0.14)">
      <use xlink:href="#DejaVuSerif-49"/>
     </g>
    </g>
   </g>
   <g id="text_10">
    <g clip-path="url(#p14b5d1ae10)">
     <!-- : -->
     <defs>
      <path d="M 9.1875 39.703125 
Q 9.1875 43.5625 11.890625 46.296875 
Q 14.59375 49.03125 18.40625 49.03125 
Q 22.21875 49.03125 24.953125 46.265625 
Q 27.6875 43.5 27.6875 39.703125 
Q 27.6875 35.890625 24.96875 33.203125 
Q 22.265625 30.515625 18.40625 30.515625 
Q 14.546875 30.515625 11.859375 33.203125 
Q 9.1875 35.890625 9.1875 39.703125 
z
M 9.1875 7.90625 
Q 9.1875 11.71875 11.890625 14.453125 
Q 14.59375 17.1875 18.40625 17.1875 
Q 22.21875 17.1875 24.953125 14.453125 
Q 27.6875 11.71875 27.6875 7.90625 
Q 27.6875 4.046875 24.953125 1.3125 
Q 22.21875 -1.421875 18.40625 -1.421875 
Q 14.59375 -1.421875 11.890625 1.3125 
Q 9.1875 4.046875 9.1875 7.90625 
z
" id="DejaVuSerif-Bold-58"/>
     </defs>
     <g transform="translate(88.713597 170.434948)scale(0.14 -0.14)">
      <use xlink:href="#DejaVuSerif-Bold-58"/>
     </g>
    </g>
   </g>
   <g id="text_11">
    <g clip-path="url(#p14b5d1ae10)">
     <!-- 1 -->
     <g style="fill:#ffffff;" transform="translate(106.092851 173.286573)scale(0.14 -0.14)">
      <use xlink:href="#DejaVuSerif-49"/>
     </g>
    </g>
   </g>
   <g id="text_12">
    <g clip-path="url(#p14b5d1ae10)">
     <!-- 1 -->
     <g style="fill:#ffffff;" transform="translate(39.079649 141.918692)scale(0.14 -0.14)">
      <use xlink:href="#DejaVuSerif-49"/>
     </g>
    </g>
   </g>
   <g id="text_13">
    <g clip-path="url(#p14b5d1ae10)">
     <!-- 0 -->
     <defs>
      <path d="M 31.78125 3.421875 
Q 39.265625 3.421875 42.96875 11.625 
Q 46.6875 19.828125 46.6875 36.375 
Q 46.6875 52.984375 42.96875 61.1875 
Q 39.265625 69.390625 31.78125 69.390625 
Q 24.3125 69.390625 20.59375 61.1875 
Q 16.890625 52.984375 16.890625 36.375 
Q 16.890625 19.828125 20.59375 11.625 
Q 24.3125 3.421875 31.78125 3.421875 
z
M 31.78125 -1.421875 
Q 19.921875 -1.421875 13.25 8.53125 
Q 6.59375 18.5 6.59375 36.375 
Q 6.59375 54.296875 13.25 64.25 
Q 19.921875 74.21875 31.78125 74.21875 
Q 43.703125 74.21875 50.34375 64.25 
Q 56.984375 54.296875 56.984375 36.375 
Q 56.984375 18.5 50.34375 8.53125 
Q 43.703125 -1.421875 31.78125 -1.421875 
z
" id="DejaVuSerif-48"/>
     </defs>
     <g transform="translate(67.595905 141.918692)scale(0.14 -0.14)">
      <use xlink:href="#DejaVuSerif-48"/>
     </g>
    </g>
   </g>
   <g id="text_14">
    <g clip-path="url(#p14b5d1ae10)">
     <!-- : -->
     <g transform="translate(88.713597 139.067066)scale(0.14 -0.14)">
      <use xlink:href="#DejaVuSerif-Bold-58"/>
     </g>
    </g>
   </g>
   <g id="text_15">
    <g clip-path="url(#p14b5d1ae10)">
     <!-- 1 -->
     <g style="fill:#ffffff;" transform="translate(106.092851 141.918692)scale(0.14 -0.14)">
      <use xlink:href="#DejaVuSerif-49"/>
     </g>
    </g>
   </g>
   <g id="text_16">
    <g clip-path="url(#p14b5d1ae10)">
     <!-- 0 -->
     <g transform="translate(39.079649 110.55081)scale(0.14 -0.14)">
      <use xlink:href="#DejaVuSerif-48"/>
     </g>
    </g>
   </g>
   <g id="text_17">
    <g clip-path="url(#p14b5d1ae10)">
     <!-- 1 -->
     <g style="fill:#ffffff;" transform="translate(67.595905 110.55081)scale(0.14 -0.14)">
      <use xlink:href="#DejaVuSerif-49"/>
     </g>
    </g>
   </g>
   <g id="text_18">
    <g clip-path="url(#p14b5d1ae10)">
     <!-- : -->
     <g transform="translate(88.713597 107.699184)scale(0.14 -0.14)">
      <use xlink:href="#DejaVuSerif-Bold-58"/>
     </g>
    </g>
   </g>
   <g id="text_19">
    <g clip-path="url(#p14b5d1ae10)">
     <!-- 1 -->
     <g style="fill:#ffffff;" transform="translate(106.092851 110.55081)scale(0.14 -0.14)">
      <use xlink:href="#DejaVuSerif-49"/>
     </g>
    </g>
   </g>
   <g id="text_20">
    <g clip-path="url(#p14b5d1ae10)">
     <!-- 0 -->
     <g transform="translate(39.079649 79.182928)scale(0.14 -0.14)">
      <use xlink:href="#DejaVuSerif-48"/>
     </g>
    </g>
   </g>
   <g id="text_21">
    <g clip-path="url(#p14b5d1ae10)">
     <!-- 0 -->
     <g transform="translate(67.595905 79.182928)scale(0.14 -0.14)">
      <use xlink:href="#DejaVuSerif-48"/>
     </g>
    </g>
   </g>
   <g id="text_22">
    <g clip-path="url(#p14b5d1ae10)">
     <!-- : -->
     <g transform="translate(88.713597 76.331302)scale(0.14 -0.14)">
      <use xlink:href="#DejaVuSerif-Bold-58"/>
     </g>
    </g>
   </g>
   <g id="text_23">
    <g clip-path="url(#p14b5d1ae10)">
     <!-- 0 -->
     <g transform="translate(106.092851 79.182928)scale(0.14 -0.14)">
      <use xlink:href="#DejaVuSerif-48"/>
     </g>
    </g>
   </g>
  </g>
 </g>
 <defs>
  <clipPath id="p14b5d1ae10">
   <rect height="123.570443" width="96.48" x="28.8" y="57.734778"/>
  </clipPath>
 </defs>
</svg>
