<?xml version="1.0" encoding="UTF-8" standalone="no"?>
<!DOCTYPE svg PUBLIC "-//W3C//DTD SVG 1.1//EN"
 "http://www.w3.org/Graphics/SVG/1.1/DTD/svg11.dtd">
<!-- Generated by graphviz version 2.36.0 (20140111.2315)
 -->
<!-- Title: Structural Graph Pages: 1 -->
<svg width="134pt" height="192pt"
 viewBox="0.00 0.00 134.40 192.00" xmlns="http://www.w3.org/2000/svg" xmlns:xlink="http://www.w3.org/1999/xlink">
<g id="graph0" class="graph" transform="scale(1 1) rotate(0) translate(4 188)">
<title>Structural Graph</title>
<polygon fill="white" stroke="none" points="-4,4 -4,-188 130.4,-188 130.4,4 -4,4"/>
<!-- 1 -->
<g id="node1" class="node"><title>1</title>
<ellipse fill="white" stroke="#00594c" stroke-width="4" cx="63.2" cy="-164" rx="20" ry="20"/>
</g>
<!-- 2 -->
<g id="node2" class="node"><title>2</title>
<ellipse fill="white" stroke="#00594c" stroke-width="4" cx="63.2" cy="-92" rx="20" ry="20"/>
</g>
<!-- 1&#45;&gt;2 -->
<g id="edge1" class="edge"><title>1&#45;&gt;2</title>
<path fill="none" stroke="black" stroke-width="4" d="M63.2,-143.944C63.2,-135.743 63.2,-126.159 63.2,-117.471"/>
<polygon fill="black" stroke="black" stroke-width="4" points="64.9501,-117.198 63.2,-112.198 61.4501,-117.198 64.9501,-117.198"/>
</g>
<!-- 3 -->
<g id="node3" class="node"><title>3</title>
<ellipse fill="white" stroke="#00594c" stroke-width="4" cx="106.4" cy="-20" rx="20" ry="20"/>
</g>
<!-- 2&#45;&gt;3 -->
<g id="edge2" class="edge"><title>2&#45;&gt;3</title>
<path fill="none" stroke="black" stroke-width="4" d="M73.6575,-74.5708C79.6006,-64.6656 87.0935,-52.1775 93.4111,-41.6481"/>
<polygon fill="black" stroke="black" stroke-width="4" points="94.9669,-42.4565 96.0388,-37.2687 91.9656,-40.6558 94.9669,-42.4565"/>
</g>
<!-- 4 -->
<g id="node4" class="node"><title>4</title>
<ellipse fill="white" stroke="#00594c" stroke-width="4" cx="20" cy="-20" rx="20" ry="20"/>
</g>
<!-- 3&#45;&gt;4 -->
<g id="edge3" class="edge"><title>3&#45;&gt;4</title>
<path fill="none" stroke="black" stroke-width="4" d="M86.3609,-20C74.1265,-20 58.3735,-20 45.2861,-20"/>
<polygon fill="black" stroke="black" stroke-width="4" points="45.2297,-18.2501 40.2297,-20 45.2296,-21.7501 45.2297,-18.2501"/>
</g>
<!-- 4&#45;&gt;2 -->
<g id="edge4" class="edge"><title>4&#45;&gt;2</title>
<path fill="none" stroke="#a90533" stroke-width="4" stroke-dasharray="5,2" d="M30.4575,-37.4292C36.4006,-47.3344 43.8935,-59.8225 50.2111,-70.3519"/>
<polygon fill="#a90533" stroke="#a90533" stroke-width="4" points="48.7656,-71.3442 52.8388,-74.7313 51.7669,-69.5435 48.7656,-71.3442"/>
</g>
</g>
</svg>
