<?xml version="1.0" encoding="UTF-8" standalone="no"?>
<!DOCTYPE svg PUBLIC "-//W3C//DTD SVG 1.1//EN"
 "http://www.w3.org/Graphics/SVG/1.1/DTD/svg11.dtd">
<!-- Generated by graphviz version 2.36.0 (20140111.2315)
 -->
<!-- Title: Structural Graph Pages: 1 -->
<svg width="134pt" height="120pt"
 viewBox="0.00 0.00 134.40 120.00" xmlns="http://www.w3.org/2000/svg" xmlns:xlink="http://www.w3.org/1999/xlink">
<g id="graph0" class="graph" transform="scale(1 1) rotate(0) translate(4 116)">
<title>Structural Graph</title>
<polygon fill="white" stroke="none" points="-4,4 -4,-116 130.4,-116 130.4,4 -4,4"/>
<!-- 5 -->
<g id="node1" class="node"><title>5</title>
<ellipse fill="white" stroke="#00594c" stroke-width="4" cx="63.2" cy="-92" rx="20" ry="20"/>
</g>
<!-- 6 -->
<g id="node2" class="node"><title>6</title>
<ellipse fill="white" stroke="#00594c" stroke-width="4" cx="106.4" cy="-20" rx="20" ry="20"/>
</g>
<!-- 5&#45;&gt;6 -->
<g id="edge1" class="edge"><title>5&#45;&gt;6</title>
<path fill="none" stroke="#a90533" stroke-width="4" stroke-dasharray="5,2" d="M73.6575,-74.5708C79.6006,-64.6656 87.0935,-52.1775 93.4111,-41.6481"/>
<polygon fill="#a90533" stroke="#a90533" stroke-width="4" points="94.9669,-42.4565 96.0388,-37.2687 91.9656,-40.6558 94.9669,-42.4565"/>
</g>
<!-- 7 -->
<g id="node3" class="node"><title>7</title>
<ellipse fill="white" stroke="#00594c" stroke-width="4" cx="20" cy="-20" rx="20" ry="20"/>
</g>
<!-- 5&#45;&gt;7 -->
<g id="edge2" class="edge"><title>5&#45;&gt;7</title>
<path fill="none" stroke="black" stroke-width="4" d="M52.7425,-74.5708C46.7994,-64.6656 39.3065,-52.1775 32.9889,-41.6481"/>
<polygon fill="black" stroke="black" stroke-width="4" points="34.4344,-40.6558 30.3612,-37.2687 31.4331,-42.4565 34.4344,-40.6558"/>
</g>
<!-- 6&#45;&gt;7 -->
<g id="edge3" class="edge"><title>6&#45;&gt;7</title>
<path fill="none" stroke="black" stroke-width="4" d="M86.3609,-20C74.1265,-20 58.3735,-20 45.2861,-20"/>
<polygon fill="black" stroke="black" stroke-width="4" points="45.2297,-18.2501 40.2297,-20 45.2296,-21.7501 45.2297,-18.2501"/>
</g>
</g>
</svg>
