<?xml version="1.0" encoding="UTF-8" standalone="no"?>
<!DOCTYPE svg PUBLIC "-//W3C//DTD SVG 1.1//EN"
 "http://www.w3.org/Graphics/SVG/1.1/DTD/svg11.dtd">
<!-- Generated by graphviz version 2.40.1 (20161225.0304)
 -->
<!-- Title: Effective Graph Pages: 1 -->
<svg width="180pt" height="180pt"
 viewBox="0.00 0.00 180.48 180.48" xmlns="http://www.w3.org/2000/svg" xmlns:xlink="http://www.w3.org/1999/xlink">
<g id="graph0" class="graph" transform="scale(1 1) rotate(0) translate(4 176.48)">
<title>Effective Graph</title>
<polygon fill="#ffffff" stroke="transparent" points="-4,4 -4,-176.48 176.48,-176.48 176.48,4 -4,4"/>
<!-- 0 -->
<g id="node1" class="node">
<title>0</title>
<ellipse fill="#ffffff" stroke="#1f77b4" stroke-width="4" cx="20" cy="-152.48" rx="20" ry="20"/>
</g>
<!-- 3 -->
<g id="node4" class="node">
<title>3</title>
<ellipse fill="#ffffff" stroke="#2ca02c" stroke-width="4" cx="76.16" cy="-96.32" rx="20" ry="20"/>
</g>
<!-- 0&#45;&gt;3 -->
<g id="edge1" class="edge">
<title>0&#45;&gt;3</title>
<path fill="none" stroke="#000000" stroke-width="2.5" d="M34.1715,-138.3085C40.3759,-132.1041 47.7922,-124.6878 54.6536,-117.8264"/>
<polygon fill="#000000" stroke="#000000" stroke-width="2.5" points="57.2014,-120.2283 61.7977,-110.6823 52.2517,-115.2786 57.2014,-120.2283"/>
</g>
<!-- 1 -->
<g id="node2" class="node">
<title>1</title>
<ellipse fill="#ffffff" stroke="#1f77b4" stroke-width="4" cx="56" cy="-20" rx="20" ry="20"/>
</g>
<!-- 1&#45;&gt;3 -->
<g id="edge2" class="edge">
<title>1&#45;&gt;3</title>
<path fill="none" stroke="#000000" stroke-width="2.5" d="M61.1917,-39.6543C63.3786,-47.9334 65.9706,-57.7459 68.3779,-66.8592"/>
<polygon fill="#000000" stroke="#000000" stroke-width="2.5" points="65.048,-67.9578 70.9859,-76.7323 71.8158,-66.17 65.048,-67.9578"/>
</g>
<!-- 2 -->
<g id="node3" class="node">
<title>2</title>
<ellipse fill="#ffffff" stroke="#1f77b4" stroke-width="4" cx="152.48" cy="-116.48" rx="20" ry="20"/>
</g>
<!-- 2&#45;&gt;3 -->
<g id="edge3" class="edge">
<title>2&#45;&gt;3</title>
<path fill="none" stroke="#d62728" stroke-width="4" stroke-dasharray="5,2" d="M132.8257,-111.2883C124.5466,-109.1014 114.7341,-106.5094 105.6208,-104.1021"/>
<polygon fill="#d62728" stroke="#d62728" stroke-width="4" points="106.31,-100.6642 95.7477,-101.4941 104.5222,-107.432 106.31,-100.6642"/>
</g>
</g>
</svg>
