<?xml version="1.0" encoding="UTF-8" standalone="no"?>
<!DOCTYPE svg PUBLIC "-//W3C//DTD SVG 1.1//EN"
 "http://www.w3.org/Graphics/SVG/1.1/DTD/svg11.dtd">
<!-- Generated by graphviz version 2.40.1 (20161225.0304)
 -->
<!-- Title: Structural Graph Pages: 1 -->
<svg width="180pt" height="180pt"
 viewBox="0.00 0.00 180.48 180.48" xmlns="http://www.w3.org/2000/svg" xmlns:xlink="http://www.w3.org/1999/xlink">
<g id="graph0" class="graph" transform="scale(1 1) rotate(0) translate(4 176.48)">
<title>Structural Graph</title>
<polygon fill="#ffffff" stroke="transparent" points="-4,4 -4,-176.48 176.48,-176.48 176.48,4 -4,4"/>
<!-- 0 -->
<g id="node1" class="node">
<title>0</title>
<ellipse fill="#ffffff" stroke="#1f77b4" stroke-width="4" cx="20" cy="-152.48" rx="20" ry="20"/>
</g>
<!-- 3 -->
<g id="node4" class="node">
<title>3</title>
<ellipse fill="#ffffff" stroke="#2ca02c" stroke-width="4" cx="76.16" cy="-96.32" rx="20" ry="20"/>
</g>
<!-- 0&#45;&gt;3 -->
<g id="edge1" class="edge">
<title>0&#45;&gt;3</title>
<path fill="none" stroke="#000000" stroke-width="4" d="M34.1715,-138.3085C41.4319,-131.0481 50.352,-122.128 58.1004,-114.3796"/>
<polygon fill="#000000" stroke="#000000" stroke-width="4" points="59.4995,-115.4554 61.7977,-110.6823 57.0246,-112.9805 59.4995,-115.4554"/>
</g>
<!-- 1 -->
<g id="node2" class="node">
<title>1</title>
<ellipse fill="#ffffff" stroke="#1f77b4" stroke-width="4" cx="56" cy="-20" rx="20" ry="20"/>
</g>
<!-- 1&#45;&gt;3 -->
<g id="edge2" class="edge">
<title>1&#45;&gt;3</title>
<path fill="none" stroke="#000000" stroke-width="4" d="M61.1917,-39.6543C63.7784,-49.4468 66.9317,-61.3845 69.6759,-71.7731"/>
<polygon fill="#000000" stroke="#000000" stroke-width="4" points="68.0169,-72.3451 70.9859,-76.7323 71.4008,-71.4512 68.0169,-72.3451"/>
</g>
<!-- 2 -->
<g id="node3" class="node">
<title>2</title>
<ellipse fill="#ffffff" stroke="#1f77b4" stroke-width="4" cx="152.48" cy="-116.48" rx="20" ry="20"/>
</g>
<!-- 2&#45;&gt;3 -->
<g id="edge3" class="edge">
<title>2&#45;&gt;3</title>
<path fill="none" stroke="#000000" stroke-width="4" d="M132.8257,-111.2883C123.0332,-108.7016 111.0955,-105.5483 100.7069,-102.8041"/>
<polygon fill="#000000" stroke="#000000" stroke-width="4" points="101.0288,-101.0792 95.7477,-101.4941 100.1349,-104.4631 101.0288,-101.0792"/>
</g>
</g>
</svg>
