<?xml version="1.0" encoding="UTF-8" standalone="no"?>
<!DOCTYPE svg PUBLIC "-//W3C//DTD SVG 1.1//EN"
 "http://www.w3.org/Graphics/SVG/1.1/DTD/svg11.dtd">
<!-- Generated by graphviz version 2.36.0 (20140111.2315)
 -->
<!-- Title: Effective Graph Pages: 1 -->
<svg width="193pt" height="193pt"
 viewBox="0.00 0.00 192.72 192.72" xmlns="http://www.w3.org/2000/svg" xmlns:xlink="http://www.w3.org/1999/xlink">
<g id="graph0" class="graph" transform="scale(1 1) rotate(0) translate(4 188.72)">
<title>Effective Graph</title>
<polygon fill="white" stroke="none" points="-4,4 -4,-188.72 188.72,-188.72 188.72,4 -4,4"/>
<!-- 0 -->
<g id="node1" class="node"><title>0</title>
<ellipse fill="white" stroke="#00594c" stroke-width="4" cx="20" cy="-164.72" rx="20" ry="20"/>
</g>
<!-- 3 -->
<g id="node4" class="node"><title>3</title>
<ellipse fill="white" stroke="#00594c" stroke-width="4" cx="81.2" cy="-103.52" rx="20" ry="20"/>
</g>
<!-- 0&#45;&gt;3 -->
<g id="edge1" class="edge"><title>0&#45;&gt;3</title>
<path fill="none" stroke="black" stroke-width="2.5" d="M34.1943,-150.526C42.7219,-141.998 53.6628,-131.057 62.8432,-121.877"/>
<polygon fill="black" stroke="black" stroke-width="2.5" points="64.3595,-122.835 66.6577,-118.062 61.8847,-120.36 64.3595,-122.835"/>
</g>
<!-- 1 -->
<g id="node2" class="node"><title>1</title>
<ellipse fill="white" stroke="#00594c" stroke-width="4" cx="58.88" cy="-20" rx="20" ry="20"/>
</g>
<!-- 1&#45;&gt;3 -->
<g id="edge2" class="edge"><title>1&#45;&gt;3</title>
<path fill="none" stroke="black" stroke-width="2.5" d="M64.0568,-39.3711C67.2173,-51.1977 71.2868,-66.4256 74.6678,-79.0768"/>
<polygon fill="black" stroke="black" stroke-width="2.5" points="72.9924,-79.586 75.974,-83.9646 76.3737,-78.6823 72.9924,-79.586"/>
</g>
<!-- 2 -->
<g id="node3" class="node"><title>2</title>
<ellipse fill="white" stroke="#00594c" stroke-width="4" cx="164.72" cy="-125.84" rx="20" ry="20"/>
</g>
<!-- 2&#45;&gt;3 -->
<g id="edge3" class="edge"><title>2&#45;&gt;3</title>
<path fill="none" stroke="#a90533" stroke-width="4" stroke-dasharray="5,2" d="M145.349,-120.663C133.522,-117.503 118.294,-113.433 105.643,-110.052"/>
<polygon fill="#a90533" stroke="#a90533" stroke-width="4" points="106.038,-108.346 100.755,-108.746 105.134,-111.728 106.038,-108.346"/>
</g>
</g>
</svg>
