<?xml version="1.0" encoding="UTF-8" standalone="no"?>
<!DOCTYPE svg PUBLIC "-//W3C//DTD SVG 1.1//EN"
 "http://www.w3.org/Graphics/SVG/1.1/DTD/svg11.dtd">
<!-- Generated by graphviz version 2.40.1 (20161225.0304)
 -->
<!-- Title: Structural Graph Pages: 1 -->
<svg width="360pt" height="282pt"
 viewBox="0.00 0.00 360.00 281.59" xmlns="http://www.w3.org/2000/svg" xmlns:xlink="http://www.w3.org/1999/xlink">
<g id="graph0" class="graph" transform="scale(.8431 .8431) rotate(0) translate(4 330)">
<title>Structural Graph</title>
<polygon fill="#ffffff" stroke="transparent" points="-4,4 -4,-330 423,-330 423,4 -4,4"/>
<!-- 0 -->
<g id="node1" class="node">
<title>0</title>
<ellipse fill="#f8dbdc" stroke="#ff9896" stroke-width="4" cx="291.56" cy="-236" rx="29" ry="29"/>
<text text-anchor="middle" x="291.56" y="-232.4" font-family="Helvetica,sans-Serif" font-size="12.00" fill="#000000">AP3</text>
</g>
<!-- 0&#45;&gt;0 -->
<g id="edge1" class="edge">
<title>0&#45;&gt;0</title>
<path fill="none" stroke="#000000" stroke-width="1.12" d="M320.0115,-242.7434C330.2294,-242.8884 338.56,-240.6406 338.56,-236 338.56,-232.157 332.847,-229.9549 325.0801,-229.3939"/>
<polygon fill="#000000" stroke="#000000" stroke-width="1.12" points="325.057,-227.6427 320.0115,-229.2566 324.9622,-231.1414 325.057,-227.6427"/>
</g>
<!-- 13 -->
<g id="node14" class="node">
<title>13</title>
<ellipse fill="#f8dbdc" stroke="#ff9896" stroke-width="4" cx="239" cy="-288.56" rx="28.5" ry="28.5"/>
<text text-anchor="middle" x="239" y="-284.96" font-family="Helvetica,sans-Serif" font-size="12.00" fill="#000000">PI</text>
</g>
<!-- 0&#45;&gt;13 -->
<g id="edge2" class="edge">
<title>0&#45;&gt;13</title>
<path fill="none" stroke="#000000" stroke-width="2.06" d="M266.7328,-251.5143C263.6203,-254.3944 260.4826,-257.4735 257.4874,-260.584"/>
<polygon fill="#000000" stroke="#000000" stroke-width="2.06" points="256.1992,-259.3993 254.0468,-264.2397 258.748,-261.798 256.1992,-259.3993"/>
</g>
<!-- 1 -->
<g id="node2" class="node">
<title>1</title>
<ellipse fill="#f8dbdc" stroke="#ff9896" stroke-width="4" cx="383" cy="-272" rx="18" ry="18"/>
<text text-anchor="middle" x="383" y="-268.4" font-family="Helvetica,sans-Serif" font-size="12.00" fill="#000000">UFO</text>
</g>
<!-- 1&#45;&gt;0 -->
<g id="edge3" class="edge">
<title>1&#45;&gt;0</title>
<path fill="none" stroke="#000000" stroke-width="2.31" d="M366.2285,-265.397C354.2774,-260.6919 337.8432,-254.2217 323.4347,-248.5491"/>
<polygon fill="#000000" stroke="#000000" stroke-width="2.31" points="323.929,-246.863 318.6354,-246.6596 322.6468,-250.1197 323.929,-246.863"/>
</g>
<!-- 1&#45;&gt;1 -->
<g id="edge4" class="edge">
<title>1&#45;&gt;1</title>
<path fill="none" stroke="#000000" stroke-width="4" d="M400.0373,-278.3792C409.8579,-279.6811 419,-277.5547 419,-272 419,-267.4868 412.9648,-265.2368 405.434,-265.25"/>
<polygon fill="#000000" stroke="#000000" stroke-width="4" points="404.9056,-263.5321 400.0373,-265.6208 405.1455,-267.0239 404.9056,-263.5321"/>
</g>
<!-- 2 -->
<g id="node3" class="node">
<title>2</title>
<ellipse fill="#ffffff" stroke="#ff9896" stroke-width="4" cx="42.44" cy="-236" rx="20" ry="20"/>
<text text-anchor="middle" x="42.44" y="-232.4" font-family="Helvetica,sans-Serif" font-size="12.00" fill="#000000">FUL</text>
</g>
<!-- 6 -->
<g id="node7" class="node">
<title>6</title>
<ellipse fill="#d62728" stroke="#ff9896" stroke-width="4" cx="167" cy="-20" rx="20" ry="20"/>
<text text-anchor="middle" x="167" y="-16.4" font-family="Helvetica,sans-Serif" font-size="12.00" fill="#000000">LFY</text>
</g>
<!-- 2&#45;&gt;6 -->
<g id="edge5" class="edge">
<title>2&#45;&gt;6</title>
<path fill="none" stroke="#d62728" stroke-width="4" stroke-dasharray="5,2" d="M52.6333,-218.3238C75.2254,-179.1466 129.4634,-85.0923 154.2512,-42.1077"/>
<polygon fill="#d62728" stroke="#d62728" stroke-width="4" points="155.8587,-42.8232 156.8406,-37.6175 152.8267,-41.0747 155.8587,-42.8232"/>
</g>
<!-- 3 -->
<g id="node4" class="node">
<title>3</title>
<ellipse fill="#ffffff" stroke="#ff9896" stroke-width="4" cx="42.44" cy="-92" rx="18" ry="18"/>
<text text-anchor="middle" x="42.44" y="-88.4" font-family="Helvetica,sans-Serif" font-size="12.00" fill="#000000">FT</text>
</g>
<!-- 4 -->
<g id="node5" class="node">
<title>4</title>
<ellipse fill="#dd4b4b" stroke="#ff9896" stroke-width="4" cx="23" cy="-164" rx="23" ry="23"/>
<text text-anchor="middle" x="23" y="-160.4" font-family="Helvetica,sans-Serif" font-size="12.00" fill="#000000">AP1</text>
</g>
<!-- 3&#45;&gt;4 -->
<g id="edge6" class="edge">
<title>3&#45;&gt;4</title>
<path fill="none" stroke="#000000" stroke-width=".96" d="M37.7341,-109.4292C35.5345,-117.576 32.8631,-127.4701 30.4022,-136.5845"/>
<polygon fill="#000000" stroke="#000000" stroke-width=".96" points="28.6749,-136.2685 29.061,-141.5519 32.0539,-137.1809 28.6749,-136.2685"/>
</g>
<!-- 4&#45;&gt;0 -->
<g id="edge7" class="edge">
<title>4&#45;&gt;0</title>
<path fill="none" stroke="#000000" stroke-width=".52" d="M45.4354,-170.0148C92.7935,-182.7114 203.1551,-212.2989 258.5723,-227.1561"/>
<polygon fill="#000000" stroke="#000000" stroke-width=".52" points="258.1539,-228.8557 263.4365,-228.4602 259.0603,-225.475 258.1539,-228.8557"/>
</g>
<!-- 4&#45;&gt;2 -->
<g id="edge8" class="edge">
<title>4&#45;&gt;2</title>
<path fill="none" stroke="#000000" stroke-width="2.5" d="M29.0444,-186.3866C31.1858,-194.3176 33.6063,-203.2825 35.7949,-211.3886"/>
<polygon fill="#000000" stroke="#000000" stroke-width="2.5" points="34.1302,-211.9369 37.1231,-216.3078 37.5092,-211.0245 34.1302,-211.9369"/>
</g>
<!-- 4&#45;&gt;6 -->
<g id="edge9" class="edge">
<title>4&#45;&gt;6</title>
<path fill="none" stroke="#d62728" stroke-width="4" stroke-dasharray="5,2" d="M42.095,-151.1736C71.4307,-126.1269 126.5678,-71.0691 152.7261,-40.7805"/>
<polygon fill="#d62728" stroke="#d62728" stroke-width="4" points="154.1593,-41.7967 156.0693,-36.8555 151.4948,-39.5271 154.1593,-41.7967"/>
</g>
<!-- 9 -->
<g id="node10" class="node">
<title>9</title>
<ellipse fill="#e46f70" stroke="#ff9896" stroke-width="4" cx="311" cy="-164" rx="27.5" ry="27.5"/>
<text text-anchor="middle" x="311" y="-160.4" font-family="Helvetica,sans-Serif" font-size="12.00" fill="#000000">AG</text>
</g>
<!-- 4&#45;&gt;9 -->
<g id="edge10" class="edge">
<title>4&#45;&gt;9</title>
<path fill="none" stroke="#000000" stroke-width=".41" d="M46.0814,-167.8775C97.1314,-171.5008 219.7357,-171.6963 278.5088,-168.4641"/>
<polygon fill="#000000" stroke="#000000" stroke-width=".41" points="278.7633,-170.2023 283.6521,-168.1621 278.5581,-166.7083 278.7633,-170.2023"/>
</g>
<!-- 12 -->
<g id="node13" class="node">
<title>12</title>
<ellipse fill="#e46f70" stroke="#ff9896" stroke-width="4" cx="95" cy="-288.56" rx="20" ry="20"/>
<text text-anchor="middle" x="95" y="-284.96" font-family="Helvetica,sans-Serif" font-size="12.00" fill="#000000">TFL1</text>
</g>
<!-- 4&#45;&gt;12 -->
<g id="edge11" class="edge">
<title>4&#45;&gt;12</title>
<path fill="none" stroke="#000000" stroke-width="1.67" d="M29.867,-185.996C41.099,-209.7986 62.6805,-247.2559 78.067,-269.7453"/>
<polygon fill="#000000" stroke="#000000" stroke-width="1.67" points="76.7621,-270.9337 81.0568,-274.0351 79.6336,-268.9325 76.7621,-270.9337"/>
</g>
<!-- 4&#45;&gt;13 -->
<g id="edge12" class="edge">
<title>4&#45;&gt;13</title>
<path fill="none" stroke="#000000" stroke-width=".35" d="M42.9336,-175.495C81.2016,-197.5629 165.1143,-245.9526 209.7403,-271.6869"/>
<polygon fill="#000000" stroke="#000000" stroke-width=".35" points="208.99,-273.2744 214.1957,-274.2562 210.7385,-270.2424 208.99,-273.2744"/>
</g>
<!-- 5 -->
<g id="node6" class="node">
<title>5</title>
<ellipse fill="#f1b7b7" stroke="#ff9896" stroke-width="4" cx="95" cy="-39.44" rx="18" ry="18"/>
<text text-anchor="middle" x="95" y="-35.84" font-family="Helvetica,sans-Serif" font-size="12.00" fill="#000000">EMF1</text>
</g>
<!-- 5&#45;&gt;3 -->
<g id="edge13" class="edge">
<title>5&#45;&gt;3</title>
<path fill="none" stroke="#000000" stroke-width="4" d="M82.0076,-52.4324C75.0063,-59.4337 66.2974,-68.1426 58.8338,-75.6061"/>
<polygon fill="#000000" stroke="#000000" stroke-width="4" points="57.581,-74.3841 55.2829,-79.1571 60.0559,-76.859 57.581,-74.3841"/>
</g>
<!-- 5&#45;&gt;6 -->
<g id="edge14" class="edge">
<title>5&#45;&gt;6</title>
<path fill="none" stroke="#000000" stroke-width="2.5" d="M113.2113,-40.5314C122.9041,-38.9794 134.8851,-35.9443 145.0827,-32.5256"/>
<polygon fill="#000000" stroke="#000000" stroke-width="2.5" points="145.7918,-34.1314 149.9278,-30.8213 144.6304,-30.8297 145.7918,-34.1314"/>
</g>
<!-- 5&#45;&gt;12 -->
<g id="edge15" class="edge">
<title>5&#45;&gt;12</title>
<path fill="none" stroke="#000000" stroke-width="1.67" d="M95,-57.7584C95,-101.6666 95,-212.991 95,-263.2508"/>
<polygon fill="#000000" stroke="#000000" stroke-width="1.67" points="93.2501,-263.4954 95,-268.4954 96.7501,-263.4954 93.2501,-263.4954"/>
</g>
<!-- 6&#45;&gt;0 -->
<g id="edge16" class="edge">
<title>6&#45;&gt;0</title>
<path fill="none" stroke="#000000" stroke-width="2.31" d="M177.1933,-37.6762C198.483,-74.5948 247.875,-160.2457 274.2423,-205.9693"/>
<polygon fill="#000000" stroke="#000000" stroke-width="2.31" points="272.8615,-207.0781 276.8754,-210.5353 275.8935,-205.3297 272.8615,-207.0781"/>
</g>
<!-- 6&#45;&gt;4 -->
<g id="edge17" class="edge">
<title>6&#45;&gt;4</title>
<path fill="none" stroke="#000000" stroke-width=".96" d="M149.9527,-31.0917C121.9795,-54.5925 67.1046,-109.1734 39.497,-140.6651"/>
<polygon fill="#000000" stroke="#000000" stroke-width=".96" points="37.899,-139.8371 35.9483,-144.7623 40.5446,-142.1286 37.899,-139.8371"/>
</g>
<!-- 6&#45;&gt;5 -->
<g id="edge18" class="edge">
<title>6&#45;&gt;5</title>
<path fill="none" stroke="#000000" stroke-width="4" d="M146.8973,-19.2251C136.9175,-20.9646 124.9064,-24.1195 114.9481,-27.5871"/>
<polygon fill="#000000" stroke="#000000" stroke-width="4" points="114.336,-25.9475 110.2422,-29.3097 115.5391,-29.2343 114.336,-25.9475"/>
</g>
<!-- 6&#45;&gt;9 -->
<g id="edge19" class="edge">
<title>6&#45;&gt;9</title>
<path fill="none" stroke="#000000" stroke-width="3.3" d="M181.3337,-34.3337C206.2168,-59.2168 257.6187,-110.6187 287.6925,-140.6925"/>
<polygon fill="#000000" stroke="#000000" stroke-width="3.3" points="286.4781,-141.953 291.2511,-144.2511 288.953,-139.4781 286.4781,-141.953"/>
</g>
<!-- 6&#45;&gt;12 -->
<g id="edge20" class="edge">
<title>6&#45;&gt;12</title>
<path fill="none" stroke="#000000" stroke-width="1.67" d="M158.2453,-38.3553C141.5699,-85.3378 108.0437,-209.9323 97.5143,-263.5077"/>
<polygon fill="#000000" stroke="#000000" stroke-width="1.67" points="95.7865,-263.2263 96.5684,-268.4657 99.2245,-263.8822 95.7865,-263.2263"/>
</g>
<!-- 6&#45;&gt;13 -->
<g id="edge21" class="edge">
<title>6&#45;&gt;13</title>
<path fill="none" stroke="#000000" stroke-width="3.08" d="M172.2943,-39.7479C184.5888,-85.6061 215.1712,-199.6786 230.2757,-256.0183"/>
<polygon fill="#000000" stroke="#000000" stroke-width="3.08" points="228.6149,-256.582 231.6001,-260.9582 231.9955,-255.6756 228.6149,-256.582"/>
</g>
<!-- 14 -->
<g id="node15" class="node">
<title>14</title>
<ellipse fill="#ea9393" stroke="#ff9896" stroke-width="4" cx="239" cy="-39.44" rx="18" ry="18"/>
<text text-anchor="middle" x="239" y="-35.84" font-family="Helvetica,sans-Serif" font-size="12.00" fill="#000000">SEP</text>
</g>
<!-- 6&#45;&gt;14 -->
<g id="edge22" class="edge">
<title>6&#45;&gt;14</title>
<path fill="none" stroke="#000000" stroke-width="4" d="M186.6743,-25.3121C195.8929,-27.8011 206.9235,-30.7793 216.475,-33.3583"/>
<polygon fill="#000000" stroke="#000000" stroke-width="4" points="216.0343,-35.0519 221.3177,-34.6658 216.9467,-31.6729 216.0343,-35.0519"/>
</g>
<!-- 7 -->
<g id="node8" class="node">
<title>7</title>
<ellipse fill="#f8dbdc" stroke="#ff9896" stroke-width="4" cx="167" cy="-308" rx="18" ry="18"/>
<text text-anchor="middle" x="167" y="-304.4" font-family="Helvetica,sans-Serif" font-size="12.00" fill="#000000">AP2</text>
</g>
<!-- 7&#45;&gt;9 -->
<g id="edge23" class="edge">
<title>7&#45;&gt;9</title>
<path fill="none" stroke="#000000" stroke-width="1.73" d="M179.779,-295.221C203.9876,-271.0124 256.8553,-218.1447 287.586,-187.414"/>
<polygon fill="#000000" stroke="#000000" stroke-width="1.73" points="288.9224,-188.5525 291.2205,-183.7795 286.4475,-186.0776 288.9224,-188.5525"/>
</g>
<!-- 7&#45;&gt;12 -->
<g id="edge24" class="edge">
<title>7&#45;&gt;12</title>
<path fill="none" stroke="#d62728" stroke-width="4" stroke-dasharray="5,2" d="M151.8128,-297.891C142.656,-294.3536 130.7756,-290.9461 120.2431,-288.7677"/>
<polygon fill="#d62728" stroke="#d62728" stroke-width="4" points="120.4386,-287.0234 115.1986,-287.8018 119.7803,-290.461 120.4386,-287.0234"/>
</g>
<!-- 8 -->
<g id="node9" class="node">
<title>8</title>
<ellipse fill="#f8dbdc" stroke="#ff9896" stroke-width="4" cx="291.56" cy="-92" rx="22.5" ry="22.5"/>
<text text-anchor="middle" x="291.56" y="-88.4" font-family="Helvetica,sans-Serif" font-size="12.00" fill="#000000">WUS</text>
</g>
<!-- 8&#45;&gt;8 -->
<g id="edge25" class="edge">
<title>8&#45;&gt;8</title>
<path fill="none" stroke="#000000" stroke-width="3.25" d="M313.2269,-98.6165C323.2781,-99.3383 332.06,-97.1328 332.06,-92 332.06,-87.7494 326.0374,-85.5063 318.2589,-85.2707"/>
<polygon fill="#000000" stroke="#000000" stroke-width="3.25" points="318.1864,-83.5218 313.2269,-85.3835 318.2649,-87.0209 318.1864,-83.5218"/>
</g>
<!-- 8&#45;&gt;9 -->
<g id="edge26" class="edge">
<title>8&#45;&gt;9</title>
<path fill="none" stroke="#000000" stroke-width=".41" d="M291.2863,-114.8333C292.5061,-121.1713 294.2233,-128.1384 296.1819,-134.7862"/>
<polygon fill="#000000" stroke="#000000" stroke-width=".41" points="294.579,-135.5278 297.7224,-139.7919 297.9242,-134.4983 294.579,-135.5278"/>
</g>
<!-- 9&#45;&gt;0 -->
<g id="edge27" class="edge">
<title>9&#45;&gt;0</title>
<path fill="none" stroke="#000000" stroke-width=".52" d="M303.7613,-190.8101C302.6986,-194.7458 301.5936,-198.8386 300.5017,-202.8825"/>
<polygon fill="#000000" stroke="#000000" stroke-width=".52" points="298.7438,-202.6799 299.1299,-207.9632 302.1228,-203.5922 298.7438,-202.6799"/>
</g>
<!-- 9&#45;&gt;4 -->
<g id="edge28" class="edge">
<title>9&#45;&gt;4</title>
<path fill="none" stroke="#000000" stroke-width="3.62" d="M283.646,-159.8375C228.8293,-156.3977 106.0633,-156.3875 50.8442,-159.8069"/>
<polygon fill="#000000" stroke="#000000" stroke-width="3.62" points="50.5884,-158.07 45.7158,-160.1486 50.8211,-161.5623 50.5884,-158.07"/>
</g>
<!-- 9&#45;&gt;8 -->
<g id="edge29" class="edge">
<title>9&#45;&gt;8</title>
<path fill="none" stroke="#000000" stroke-width="1.5" d="M310.2693,-136.3087C308.8084,-129.6777 306.9092,-122.6503 304.8322,-116.1913"/>
<polygon fill="#000000" stroke="#000000" stroke-width="1.5" points="306.4663,-115.56 303.2135,-111.3788 303.1489,-116.6758 306.4663,-115.56"/>
</g>
<!-- 9&#45;&gt;9 -->
<g id="edge30" class="edge">
<title>9&#45;&gt;9</title>
<path fill="none" stroke="#000000" stroke-width=".19" d="M338.0926,-170.7352C348.1891,-170.956 356.5,-168.7109 356.5,-164 356.5,-160.0987 350.8004,-157.8886 343.1072,-157.3695"/>
<polygon fill="#000000" stroke="#000000" stroke-width=".19" points="343.128,-155.6196 338.0926,-157.2648 343.0549,-159.1189 343.128,-155.6196"/>
</g>
<!-- 9&#45;&gt;13 -->
<g id="edge31" class="edge">
<title>9&#45;&gt;13</title>
<path fill="none" stroke="#000000" stroke-width="1.72" d="M297.1177,-188.0164C285.3674,-208.3445 268.4844,-237.552 255.9401,-259.2537"/>
<polygon fill="#000000" stroke="#000000" stroke-width="1.72" points="254.3197,-258.5601 253.3325,-263.7647 257.3499,-260.3117 254.3197,-258.5601"/>
</g>
<!-- 10 -->
<g id="node11" class="node">
<title>10</title>
<ellipse fill="#ffffff" stroke="#ff9896" stroke-width="4" cx="383" cy="-128" rx="18" ry="18"/>
<text text-anchor="middle" x="383" y="-124.4" font-family="Helvetica,sans-Serif" font-size="12.00" fill="#000000">LUG</text>
</g>
<!-- 10&#45;&gt;9 -->
<g id="edge32" class="edge">
<title>10&#45;&gt;9</title>
<path fill="none" stroke="#000000" stroke-width=".41" d="M366.6621,-136.1689C358.9605,-140.0198 349.5269,-144.7365 340.6296,-149.1852"/>
<polygon fill="#000000" stroke="#000000" stroke-width=".41" points="339.4458,-147.8205 335.7563,-151.6219 341.0111,-150.951 339.4458,-147.8205"/>
</g>
<!-- 11 -->
<g id="node12" class="node">
<title>11</title>
<ellipse fill="#ffffff" stroke="#ff9896" stroke-width="4" cx="383" cy="-200" rx="18" ry="18"/>
<text text-anchor="middle" x="383" y="-196.4" font-family="Helvetica,sans-Serif" font-size="12.00" fill="#000000">CLF</text>
</g>
<!-- 11&#45;&gt;9 -->
<g id="edge33" class="edge">
<title>11&#45;&gt;9</title>
<path fill="none" stroke="#000000" stroke-width=".41" d="M366.6621,-191.831C358.9605,-187.9802 349.5269,-183.2635 340.6296,-178.8148"/>
<polygon fill="#000000" stroke="#000000" stroke-width=".41" points="341.0111,-177.049 335.7563,-176.3781 339.4458,-180.1795 341.0111,-177.049"/>
</g>
<!-- 12&#45;&gt;2 -->
<g id="edge34" class="edge">
<title>12&#45;&gt;2</title>
<path fill="none" stroke="#000000" stroke-width="2.5" d="M80.6377,-274.1977C74.3803,-267.9402 66.9791,-260.5391 60.3657,-253.9257"/>
<polygon fill="#000000" stroke="#000000" stroke-width="2.5" points="61.5579,-252.643 56.7849,-250.3449 59.083,-255.1179 61.5579,-252.643"/>
</g>
<!-- 12&#45;&gt;4 -->
<g id="edge35" class="edge">
<title>12&#45;&gt;4</title>
<path fill="none" stroke="#000000" stroke-width=".96" d="M89.3099,-269.0911C78.862,-246.3436 57.4953,-208.9456 41.6887,-185.4055"/>
<polygon fill="#000000" stroke="#000000" stroke-width=".96" points="43.0687,-184.323 38.8058,-181.178 40.177,-186.2949 43.0687,-184.323"/>
</g>
<!-- 12&#45;&gt;6 -->
<g id="edge36" class="edge">
<title>12&#45;&gt;6</title>
<path fill="none" stroke="#000000" stroke-width="2.5" d="M103.7547,-270.2047C120.4301,-223.2222 153.9563,-98.6277 164.4857,-45.0523"/>
<polygon fill="#000000" stroke="#000000" stroke-width="2.5" points="166.2135,-45.3337 165.4316,-40.0943 162.7755,-44.6778 166.2135,-45.3337"/>
</g>
<!-- 12&#45;&gt;7 -->
<g id="edge37" class="edge">
<title>12&#45;&gt;7</title>
<path fill="none" stroke="#000000" stroke-width="4" d="M111.9809,-299.3475C121.48,-302.8673 133.4467,-306.1864 143.7971,-308.2021"/>
<polygon fill="#000000" stroke="#000000" stroke-width="4" points="143.5008,-309.9268 148.7304,-309.0821 144.1155,-306.4812 143.5008,-309.9268"/>
</g>
<!-- 12&#45;&gt;9 -->
<g id="edge38" class="edge">
<title>12&#45;&gt;9</title>
<path fill="none" stroke="#000000" stroke-width="1.37" d="M112.6762,-278.3667C149.9845,-256.8523 237.059,-206.6393 282.4035,-180.4906"/>
<polygon fill="#000000" stroke="#000000" stroke-width="1.37" points="283.4669,-181.8976 286.924,-177.8838 281.7184,-178.8656 283.4669,-181.8976"/>
</g>
<!-- 13&#45;&gt;0 -->
<g id="edge39" class="edge">
<title>13&#45;&gt;0</title>
<path fill="none" stroke="#000000" stroke-width="1.12" d="M263.5152,-273.3338C266.4274,-270.65 269.3668,-267.7868 272.1954,-264.8819"/>
<polygon fill="#000000" stroke="#000000" stroke-width="1.12" points="273.796,-265.7379 275.9712,-260.9077 271.2586,-263.3272 273.796,-265.7379"/>
</g>
<!-- 13&#45;&gt;13 -->
<g id="edge40" class="edge">
<title>13&#45;&gt;13</title>
<path fill="none" stroke="#000000" stroke-width=".77" d="M267.1488,-295.3034C277.2581,-295.4484 285.5,-293.2006 285.5,-288.56 285.5,-284.717 279.8477,-282.5149 272.1635,-281.9539"/>
<polygon fill="#000000" stroke="#000000" stroke-width=".77" points="272.1948,-280.2042 267.1488,-281.8166 272.099,-283.7029 272.1948,-280.2042"/>
</g>
<!-- 14&#45;&gt;0 -->
<g id="edge41" class="edge">
<title>14&#45;&gt;0</title>
<path fill="none" stroke="#000000" stroke-width="1.12" d="M243.6643,-56.8834C252.4039,-89.5669 271.3766,-160.5198 282.6433,-202.6538"/>
<polygon fill="#000000" stroke="#000000" stroke-width="1.12" points="280.9955,-203.2666 283.9778,-207.6448 284.3767,-202.3624 280.9955,-203.2666"/>
</g>
<!-- 14&#45;&gt;8 -->
<g id="edge42" class="edge">
<title>14&#45;&gt;8</title>
<path fill="none" stroke="#000000" stroke-width="1.5" d="M251.9924,-52.4324C257.943,-58.383 265.1272,-65.5672 271.7319,-72.1719"/>
<polygon fill="#000000" stroke="#000000" stroke-width="1.5" points="270.557,-73.4719 275.33,-75.77 273.0319,-70.997 270.557,-73.4719"/>
</g>
<!-- 14&#45;&gt;9 -->
<g id="edge43" class="edge">
<title>14&#45;&gt;9</title>
<path fill="none" stroke="#000000" stroke-width=".19" d="M248.1188,-55.2156C259.7319,-75.3063 280.0158,-110.3973 294.4032,-135.2875"/>
<polygon fill="#000000" stroke="#000000" stroke-width=".19" points="293.0002,-136.3574 297.0176,-139.8105 296.0304,-134.6058 293.0002,-136.3574"/>
</g>
<!-- 14&#45;&gt;13 -->
<g id="edge44" class="edge">
<title>14&#45;&gt;13</title>
<path fill="none" stroke="#000000" stroke-width=".77" d="M239,-57.7584C239,-99.3407 239,-201.3861 239,-254.7689"/>
<polygon fill="#000000" stroke="#000000" stroke-width=".77" points="237.2501,-254.7793 239,-259.7794 240.7501,-254.7794 237.2501,-254.7793"/>
</g>
</g>
</svg>
