<?xml version="1.0" encoding="UTF-8" standalone="no"?>
<!DOCTYPE svg PUBLIC "-//W3C//DTD SVG 1.1//EN"
 "http://www.w3.org/Graphics/SVG/1.1/DTD/svg11.dtd">
<!-- Generated by graphviz version 2.40.1 (20161225.0304)
 -->
<!-- Title: Structural Graph Pages: 1 -->
<svg width="360pt" height="284pt"
 viewBox="0.00 0.00 360.00 284.48" xmlns="http://www.w3.org/2000/svg" xmlns:xlink="http://www.w3.org/1999/xlink">
<g id="graph0" class="graph" transform="scale(.8392 .8392) rotate(0) translate(4 335)">
<title>Structural Graph</title>
<polygon fill="#ffffff" stroke="transparent" points="-4,4 -4,-335 425,-335 425,4 -4,4"/>
<!-- 0 -->
<g id="node1" class="node">
<title>0</title>
<ellipse fill="#1f77b4" stroke="#aec7e8" stroke-width="4" cx="290.06" cy="-237.5" rx="21.5" ry="21.5"/>
<text text-anchor="middle" x="290.06" y="-233.9" font-family="Helvetica,sans-Serif" font-size="12.00" fill="#ffffff">AP3</text>
</g>
<!-- 0&#45;&gt;0 -->
<g id="edge1" class="edge">
<title>0&#45;&gt;0</title>
<path fill="none" stroke="#000000" stroke-width="4" d="M310.7884,-244.0852C320.7586,-244.8982 329.56,-242.7031 329.56,-237.5 329.56,-233.1912 323.5241,-230.9452 315.7869,-230.7622"/>
<polygon fill="#000000" stroke="#000000" stroke-width="4" points="315.7326,-229.0129 310.7884,-230.9148 315.8395,-232.5113 315.7326,-229.0129"/>
</g>
<!-- 13 -->
<g id="node14" class="node">
<title>13</title>
<ellipse fill="#1f77b4" stroke="#aec7e8" stroke-width="4" cx="237.5" cy="-290.06" rx="21.5" ry="21.5"/>
<text text-anchor="middle" x="237.5" y="-286.46" font-family="Helvetica,sans-Serif" font-size="12.00" fill="#ffffff">PI</text>
</g>
<!-- 0&#45;&gt;13 -->
<g id="edge2" class="edge">
<title>0&#45;&gt;13</title>
<path fill="none" stroke="#000000" stroke-width="4" d="M271.0892,-247.811C264.67,-253.2646 257.6523,-260.1058 251.6593,-266.7115"/>
<polygon fill="#000000" stroke="#000000" stroke-width="4" points="250.0673,-265.8712 248.0747,-270.7796 252.6934,-268.1851 250.0673,-265.8712"/>
</g>
<!-- 1 -->
<g id="node2" class="node">
<title>1</title>
<ellipse fill="#1f77b4" stroke="#aec7e8" stroke-width="4" cx="381.5" cy="-273.5" rx="21.5" ry="21.5"/>
<text text-anchor="middle" x="381.5" y="-269.9" font-family="Helvetica,sans-Serif" font-size="12.00" fill="#ffffff">UFO</text>
</g>
<!-- 1&#45;&gt;0 -->
<g id="edge3" class="edge">
<title>1&#45;&gt;0</title>
<path fill="none" stroke="#000000" stroke-width="4" d="M361.2065,-265.5104C347.5923,-260.1505 329.5678,-253.0542 315.0676,-247.3455"/>
<polygon fill="#000000" stroke="#000000" stroke-width="4" points="315.5903,-245.6706 310.2968,-245.4672 314.3081,-248.9273 315.5903,-245.6706"/>
</g>
<!-- 1&#45;&gt;1 -->
<g id="edge4" class="edge">
<title>1&#45;&gt;1</title>
<path fill="none" stroke="#000000" stroke-width="4" d="M402.2284,-280.0852C412.1986,-280.8982 421,-278.7031 421,-273.5 421,-269.1912 414.9641,-266.9452 407.2269,-266.7622"/>
<polygon fill="#000000" stroke="#000000" stroke-width="4" points="407.1726,-265.0129 402.2284,-266.9148 407.2795,-268.5113 407.1726,-265.0129"/>
</g>
<!-- 2 -->
<g id="node3" class="node">
<title>2</title>
<ellipse fill="#1f77b4" stroke="#aec7e8" stroke-width="4" cx="40.94" cy="-237.5" rx="21.5" ry="21.5"/>
<text text-anchor="middle" x="40.94" y="-233.9" font-family="Helvetica,sans-Serif" font-size="12.00" fill="#ffffff">FUL</text>
</g>
<!-- 6 -->
<g id="node7" class="node">
<title>6</title>
<ellipse fill="#1f77b4" stroke="#aec7e8" stroke-width="4" cx="165.5" cy="-21.5" rx="21.5" ry="21.5"/>
<text text-anchor="middle" x="165.5" y="-17.9" font-family="Helvetica,sans-Serif" font-size="12.00" fill="#ffffff">LFY</text>
</g>
<!-- 2&#45;&gt;6 -->
<g id="edge5" class="edge">
<title>2&#45;&gt;6</title>
<path fill="none" stroke="#000000" stroke-width="4" d="M51.776,-218.7093C74.505,-179.2949 127.1121,-88.0685 151.9937,-44.9213"/>
<polygon fill="#000000" stroke="#000000" stroke-width="4" points="153.6185,-45.6068 154.6004,-40.4011 150.5865,-43.8583 153.6185,-45.6068"/>
</g>
<!-- 3 -->
<g id="node4" class="node">
<title>3</title>
<ellipse fill="#1f77b4" stroke="#aec7e8" stroke-width="4" cx="40.94" cy="-93.5" rx="21.5" ry="21.5"/>
<text text-anchor="middle" x="40.94" y="-89.9" font-family="Helvetica,sans-Serif" font-size="12.00" fill="#ffffff">FT</text>
</g>
<!-- 4 -->
<g id="node5" class="node">
<title>4</title>
<ellipse fill="#1f77b4" stroke="#aec7e8" stroke-width="4" cx="21.5" cy="-165.5" rx="21.5" ry="21.5"/>
<text text-anchor="middle" x="21.5" y="-161.9" font-family="Helvetica,sans-Serif" font-size="12.00" fill="#ffffff">AP1</text>
</g>
<!-- 3&#45;&gt;4 -->
<g id="edge6" class="edge">
<title>3&#45;&gt;4</title>
<path fill="none" stroke="#000000" stroke-width="4" d="M35.3171,-114.3254C33.1999,-122.1671 30.7651,-131.1847 28.535,-139.4444"/>
<polygon fill="#000000" stroke="#000000" stroke-width="4" points="26.7915,-139.1886 27.1776,-144.472 30.1705,-140.101 26.7915,-139.1886"/>
</g>
<!-- 4&#45;&gt;0 -->
<g id="edge7" class="edge">
<title>4&#45;&gt;0</title>
<path fill="none" stroke="#000000" stroke-width="4" d="M42.5735,-171.1497C91.2079,-184.1884 211.1666,-216.349 264.1689,-230.5587"/>
<polygon fill="#000000" stroke="#000000" stroke-width="4" points="263.8018,-232.272 269.0844,-231.8765 264.7082,-228.8914 263.8018,-232.272"/>
</g>
<!-- 4&#45;&gt;2 -->
<g id="edge8" class="edge">
<title>4&#45;&gt;2</title>
<path fill="none" stroke="#000000" stroke-width="4" d="M27.1229,-186.3254C29.2401,-194.1671 31.6749,-203.1847 33.905,-211.4444"/>
<polygon fill="#000000" stroke="#000000" stroke-width="4" points="32.2695,-212.101 35.2624,-216.472 35.6485,-211.1886 32.2695,-212.101"/>
</g>
<!-- 4&#45;&gt;6 -->
<g id="edge9" class="edge">
<title>4&#45;&gt;6</title>
<path fill="none" stroke="#000000" stroke-width="4" d="M39.7065,-153.4297C68.4244,-129.0734 123.3442,-74.3308 150.1764,-43.4913"/>
<polygon fill="#000000" stroke="#000000" stroke-width="4" points="151.6856,-44.4201 153.6158,-39.4869 149.0304,-42.1397 151.6856,-44.4201"/>
</g>
<!-- 9 -->
<g id="node10" class="node">
<title>9</title>
<ellipse fill="#1f77b4" stroke="#aec7e8" stroke-width="4" cx="309.5" cy="-165.5" rx="21.5" ry="21.5"/>
<text text-anchor="middle" x="309.5" y="-161.9" font-family="Helvetica,sans-Serif" font-size="12.00" fill="#ffffff">AG</text>
</g>
<!-- 4&#45;&gt;9 -->
<g id="edge10" class="edge">
<title>4&#45;&gt;9</title>
<path fill="none" stroke="#000000" stroke-width="4" d="M42.6773,-169.2383C94.273,-173.1277 226.3908,-173.2499 283.0493,-169.6051"/>
<polygon fill="#000000" stroke="#000000" stroke-width="4" points="283.4251,-171.3333 288.2916,-169.2406 283.1823,-167.8417 283.4251,-171.3333"/>
</g>
<!-- 12 -->
<g id="node13" class="node">
<title>12</title>
<ellipse fill="#1f77b4" stroke="#aec7e8" stroke-width="4" cx="93.5" cy="-290.06" rx="21.5" ry="21.5"/>
<text text-anchor="middle" x="93.5" y="-286.46" font-family="Helvetica,sans-Serif" font-size="12.00" fill="#ffffff">TFL1</text>
</g>
<!-- 4&#45;&gt;12 -->
<g id="edge11" class="edge">
<title>4&#45;&gt;12</title>
<path fill="none" stroke="#000000" stroke-width="4" d="M27.8336,-186.3591C38.6555,-209.5588 59.951,-246.6843 75.5061,-269.6855"/>
<polygon fill="#000000" stroke="#000000" stroke-width="4" points="74.2599,-270.9617 78.5357,-274.089 77.1434,-268.9779 74.2599,-270.9617"/>
</g>
<!-- 4&#45;&gt;13 -->
<g id="edge12" class="edge">
<title>4&#45;&gt;13</title>
<path fill="none" stroke="#000000" stroke-width="4" d="M40.2907,-176.336C79.7051,-199.065 170.9315,-251.6721 214.0787,-276.5537"/>
<polygon fill="#000000" stroke="#000000" stroke-width="4" points="213.3932,-278.1785 218.5989,-279.1604 215.1417,-275.1465 213.3932,-278.1785"/>
</g>
<!-- 5 -->
<g id="node6" class="node">
<title>5</title>
<ellipse fill="#1f77b4" stroke="#aec7e8" stroke-width="4" cx="93.5" cy="-40.94" rx="21.5" ry="21.5"/>
<text text-anchor="middle" x="93.5" y="-37.34" font-family="Helvetica,sans-Serif" font-size="12.00" fill="#ffffff">EMF1</text>
</g>
<!-- 5&#45;&gt;3 -->
<g id="edge13" class="edge">
<title>5&#45;&gt;3</title>
<path fill="none" stroke="#000000" stroke-width="4" d="M78.0145,-56.4254C72.3974,-62.0426 65.9839,-68.4561 60.0885,-74.3515"/>
<polygon fill="#000000" stroke="#000000" stroke-width="4" points="58.7945,-73.1706 56.4964,-77.9436 61.2694,-75.6455 58.7945,-73.1706"/>
</g>
<!-- 5&#45;&gt;6 -->
<g id="edge14" class="edge">
<title>5&#45;&gt;6</title>
<path fill="none" stroke="#000000" stroke-width="4" d="M115.1522,-41.4365C123.6031,-39.8741 133.3104,-37.3746 141.9356,-34.5694"/>
<polygon fill="#000000" stroke="#000000" stroke-width="4" points="142.9799,-36.062 147.1453,-32.789 141.848,-32.7501 142.9799,-36.062"/>
</g>
<!-- 5&#45;&gt;12 -->
<g id="edge15" class="edge">
<title>5&#45;&gt;12</title>
<path fill="none" stroke="#000000" stroke-width="4" d="M93.5,-62.612C93.5,-108.0699 93.5,-213.2843 93.5,-263.0475"/>
<polygon fill="#000000" stroke="#000000" stroke-width="4" points="91.7501,-263.2607 93.5,-268.2607 95.2501,-263.2608 91.7501,-263.2607"/>
</g>
<!-- 6&#45;&gt;0 -->
<g id="edge16" class="edge">
<title>6&#45;&gt;0</title>
<path fill="none" stroke="#000000" stroke-width="4" d="M176.336,-40.2907C199.0649,-79.7051 251.6721,-170.9314 276.5537,-214.0787"/>
<polygon fill="#000000" stroke="#000000" stroke-width="4" points="275.1465,-215.1417 279.1604,-218.5989 278.1785,-213.3932 275.1465,-215.1417"/>
</g>
<!-- 6&#45;&gt;4 -->
<g id="edge17" class="edge">
<title>6&#45;&gt;4</title>
<path fill="none" stroke="#000000" stroke-width="4" d="M147.2935,-33.5703C118.5756,-57.9266 63.6558,-112.6692 36.8235,-143.5087"/>
<polygon fill="#000000" stroke="#000000" stroke-width="4" points="35.3144,-142.5799 33.3842,-147.5131 37.9695,-144.8603 35.3144,-142.5799"/>
</g>
<!-- 6&#45;&gt;5 -->
<g id="edge18" class="edge">
<title>6&#45;&gt;5</title>
<path fill="none" stroke="#000000" stroke-width="4" d="M143.8478,-21.0034C135.3969,-22.5659 125.6896,-25.0654 117.0644,-27.8705"/>
<polygon fill="#000000" stroke="#000000" stroke-width="4" points="116.02,-26.378 111.8547,-29.651 117.1519,-29.6899 116.02,-26.378"/>
</g>
<!-- 6&#45;&gt;9 -->
<g id="edge19" class="edge">
<title>6&#45;&gt;9</title>
<path fill="none" stroke="#000000" stroke-width="4" d="M180.9105,-36.9105C207.4355,-63.4355 261.6418,-117.6418 290.4749,-146.4749"/>
<polygon fill="#000000" stroke="#000000" stroke-width="4" points="289.4273,-147.9022 294.2003,-150.2003 291.9022,-145.4273 289.4273,-147.9022"/>
</g>
<!-- 6&#45;&gt;12 -->
<g id="edge20" class="edge">
<title>6&#45;&gt;12</title>
<path fill="none" stroke="#000000" stroke-width="4" d="M156.2914,-41.1414C139.6397,-88.5857 107.1183,-209.4256 96.3393,-263.3679"/>
<polygon fill="#000000" stroke="#000000" stroke-width="4" points="94.6024,-263.1324 95.3653,-268.3746 98.0379,-263.8008 94.6024,-263.1324"/>
</g>
<!-- 6&#45;&gt;13 -->
<g id="edge21" class="edge">
<title>6&#45;&gt;13</title>
<path fill="none" stroke="#000000" stroke-width="4" d="M171.1497,-42.5735C184.1884,-91.2079 216.349,-211.1666 230.5587,-264.1689"/>
<polygon fill="#000000" stroke="#000000" stroke-width="4" points="228.8914,-264.7082 231.8765,-269.0844 232.272,-263.8018 228.8914,-264.7082"/>
</g>
<!-- 14 -->
<g id="node15" class="node">
<title>14</title>
<ellipse fill="#1f77b4" stroke="#aec7e8" stroke-width="4" cx="237.5" cy="-40.94" rx="21.5" ry="21.5"/>
<text text-anchor="middle" x="237.5" y="-37.34" font-family="Helvetica,sans-Serif" font-size="12.00" fill="#ffffff">SEP</text>
</g>
<!-- 6&#45;&gt;14 -->
<g id="edge22" class="edge">
<title>6&#45;&gt;14</title>
<path fill="none" stroke="#000000" stroke-width="4" d="M186.3254,-27.1229C194.1671,-29.2401 203.1847,-31.6749 211.4444,-33.905"/>
<polygon fill="#000000" stroke="#000000" stroke-width="4" points="211.1886,-35.6485 216.472,-35.2624 212.101,-32.2695 211.1886,-35.6485"/>
</g>
<!-- 7 -->
<g id="node8" class="node">
<title>7</title>
<ellipse fill="#1f77b4" stroke="#aec7e8" stroke-width="4" cx="165.5" cy="-309.5" rx="21.5" ry="21.5"/>
<text text-anchor="middle" x="165.5" y="-305.9" font-family="Helvetica,sans-Serif" font-size="12.00" fill="#ffffff">AP2</text>
</g>
<!-- 7&#45;&gt;9 -->
<g id="edge23" class="edge">
<title>7&#45;&gt;9</title>
<path fill="none" stroke="#000000" stroke-width="4" d="M180.9105,-294.0895C207.4355,-267.5644 261.6418,-213.3582 290.4749,-184.5251"/>
<polygon fill="#000000" stroke="#000000" stroke-width="4" points="291.9022,-185.5727 294.2003,-180.7997 289.4273,-183.0978 291.9022,-185.5727"/>
</g>
<!-- 7&#45;&gt;12 -->
<g id="edge24" class="edge">
<title>7&#45;&gt;12</title>
<path fill="none" stroke="#000000" stroke-width="4" d="M147.0401,-298.1732C138.8749,-295.2425 129.1229,-292.4926 120.1894,-290.5727"/>
<polygon fill="#000000" stroke="#000000" stroke-width="4" points="120.2884,-288.8079 115.0422,-289.5432 119.6019,-292.2399 120.2884,-288.8079"/>
</g>
<!-- 8 -->
<g id="node9" class="node">
<title>8</title>
<ellipse fill="#1f77b4" stroke="#aec7e8" stroke-width="4" cx="290.06" cy="-93.5" rx="21.5" ry="21.5"/>
<text text-anchor="middle" x="290.06" y="-89.9" font-family="Helvetica,sans-Serif" font-size="12.00" fill="#ffffff">WUS</text>
</g>
<!-- 8&#45;&gt;8 -->
<g id="edge25" class="edge">
<title>8&#45;&gt;8</title>
<path fill="none" stroke="#000000" stroke-width="4" d="M310.7884,-100.0852C320.7586,-100.8982 329.56,-98.7031 329.56,-93.5 329.56,-89.1912 323.5241,-86.9452 315.7869,-86.7622"/>
<polygon fill="#000000" stroke="#000000" stroke-width="4" points="315.7326,-85.0129 310.7884,-86.9148 315.8395,-88.5113 315.7326,-85.0129"/>
</g>
<!-- 8&#45;&gt;9 -->
<g id="edge26" class="edge">
<title>8&#45;&gt;9</title>
<path fill="none" stroke="#000000" stroke-width="4" d="M289.5634,-115.1522C291.1259,-123.6031 293.6254,-133.3104 296.4305,-141.9356"/>
<polygon fill="#000000" stroke="#000000" stroke-width="4" points="294.938,-142.9799 298.211,-147.1453 298.2499,-141.848 294.938,-142.9799"/>
</g>
<!-- 9&#45;&gt;0 -->
<g id="edge27" class="edge">
<title>9&#45;&gt;0</title>
<path fill="none" stroke="#000000" stroke-width="4" d="M303.8771,-186.3254C301.7599,-194.1671 299.3251,-203.1847 297.095,-211.4444"/>
<polygon fill="#000000" stroke="#000000" stroke-width="4" points="295.3515,-211.1886 295.7376,-216.472 298.7305,-212.101 295.3515,-211.1886"/>
</g>
<!-- 9&#45;&gt;4 -->
<g id="edge28" class="edge">
<title>9&#45;&gt;4</title>
<path fill="none" stroke="#000000" stroke-width="4" d="M288.3227,-161.7617C236.727,-157.8723 104.6092,-157.7501 47.9507,-161.3949"/>
<polygon fill="#000000" stroke="#000000" stroke-width="4" points="47.5749,-159.6667 42.7084,-161.7594 47.8177,-163.1583 47.5749,-159.6667"/>
</g>
<!-- 9&#45;&gt;8 -->
<g id="edge29" class="edge">
<title>9&#45;&gt;8</title>
<path fill="none" stroke="#000000" stroke-width="4" d="M309.9965,-143.8478C308.4341,-135.3969 305.9346,-125.6896 303.1294,-117.0644"/>
<polygon fill="#000000" stroke="#000000" stroke-width="4" points="304.622,-116.02 301.349,-111.8547 301.31,-117.1519 304.622,-116.02"/>
</g>
<!-- 9&#45;&gt;9 -->
<g id="edge30" class="edge">
<title>9&#45;&gt;9</title>
<path fill="none" stroke="#000000" stroke-width="4" d="M330.2284,-172.0852C340.1986,-172.8982 349,-170.7031 349,-165.5 349,-161.1912 342.9641,-158.9452 335.2269,-158.7622"/>
<polygon fill="#000000" stroke="#000000" stroke-width="4" points="335.1726,-157.0129 330.2284,-158.9148 335.2795,-160.5113 335.1726,-157.0129"/>
</g>
<!-- 9&#45;&gt;13 -->
<g id="edge31" class="edge">
<title>9&#45;&gt;13</title>
<path fill="none" stroke="#000000" stroke-width="4" d="M298.7209,-184.1479C285.9957,-206.1623 264.8217,-242.7934 251.0119,-266.6844"/>
<polygon fill="#000000" stroke="#000000" stroke-width="4" points="249.34,-266.08 248.3528,-271.2846 252.3702,-267.8316 249.34,-266.08"/>
</g>
<!-- 10 -->
<g id="node11" class="node">
<title>10</title>
<ellipse fill="#1f77b4" stroke="#aec7e8" stroke-width="4" cx="381.5" cy="-129.5" rx="21.5" ry="21.5"/>
<text text-anchor="middle" x="381.5" y="-125.9" font-family="Helvetica,sans-Serif" font-size="12.00" fill="#ffffff">LUG</text>
</g>
<!-- 10&#45;&gt;9 -->
<g id="edge32" class="edge">
<title>10&#45;&gt;9</title>
<path fill="none" stroke="#000000" stroke-width="4" d="M362.2053,-139.1473C353.3276,-143.5862 342.7084,-148.8958 333.3358,-153.5821"/>
<polygon fill="#000000" stroke="#000000" stroke-width="4" points="332.5374,-152.0246 328.8479,-155.826 334.1027,-155.1552 332.5374,-152.0246"/>
</g>
<!-- 11 -->
<g id="node12" class="node">
<title>11</title>
<ellipse fill="#1f77b4" stroke="#aec7e8" stroke-width="4" cx="381.5" cy="-201.5" rx="21.5" ry="21.5"/>
<text text-anchor="middle" x="381.5" y="-197.9" font-family="Helvetica,sans-Serif" font-size="12.00" fill="#ffffff">CLF</text>
</g>
<!-- 11&#45;&gt;9 -->
<g id="edge33" class="edge">
<title>11&#45;&gt;9</title>
<path fill="none" stroke="#000000" stroke-width="4" d="M362.2053,-191.8527C353.3276,-187.4138 342.7084,-182.1042 333.3358,-177.4179"/>
<polygon fill="#000000" stroke="#000000" stroke-width="4" points="334.1027,-175.8448 328.8479,-175.174 332.5374,-178.9753 334.1027,-175.8448"/>
</g>
<!-- 12&#45;&gt;2 -->
<g id="edge34" class="edge">
<title>12&#45;&gt;2</title>
<path fill="none" stroke="#000000" stroke-width="4" d="M78.0145,-274.5745C72.3974,-268.9574 65.9839,-262.5439 60.0885,-256.6485"/>
<polygon fill="#000000" stroke="#000000" stroke-width="4" points="61.2694,-255.3545 56.4964,-253.0564 58.7945,-257.8294 61.2694,-255.3545"/>
</g>
<!-- 12&#45;&gt;4 -->
<g id="edge35" class="edge">
<title>12&#45;&gt;4</title>
<path fill="none" stroke="#000000" stroke-width="4" d="M87.1664,-269.2008C76.3445,-246.0012 55.049,-208.8757 39.4939,-185.8745"/>
<polygon fill="#000000" stroke="#000000" stroke-width="4" points="40.7401,-184.5983 36.4643,-181.4709 37.8566,-186.5821 40.7401,-184.5983"/>
</g>
<!-- 12&#45;&gt;6 -->
<g id="edge36" class="edge">
<title>12&#45;&gt;6</title>
<path fill="none" stroke="#000000" stroke-width="4" d="M102.7086,-270.4186C119.3603,-222.9743 151.8817,-102.1344 162.6607,-48.1921"/>
<polygon fill="#000000" stroke="#000000" stroke-width="4" points="164.3976,-48.4276 163.6347,-43.1854 160.962,-47.7592 164.3976,-48.4276"/>
</g>
<!-- 12&#45;&gt;7 -->
<g id="edge37" class="edge">
<title>12&#45;&gt;7</title>
<path fill="none" stroke="#000000" stroke-width="4" d="M111.9599,-301.3868C120.1251,-304.3175 129.8771,-307.0674 138.8106,-308.9873"/>
<polygon fill="#000000" stroke="#000000" stroke-width="4" points="138.7116,-310.7521 143.9577,-310.0168 139.3981,-307.3201 138.7116,-310.7521"/>
</g>
<!-- 12&#45;&gt;9 -->
<g id="edge38" class="edge">
<title>12&#45;&gt;9</title>
<path fill="none" stroke="#000000" stroke-width="4" d="M112.2907,-279.224C151.7051,-256.495 242.9314,-203.8879 286.0787,-179.0063"/>
<polygon fill="#000000" stroke="#000000" stroke-width="4" points="287.1417,-180.4134 290.5989,-176.3996 285.3932,-177.3815 287.1417,-180.4134"/>
</g>
<!-- 13&#45;&gt;0 -->
<g id="edge39" class="edge">
<title>13&#45;&gt;0</title>
<path fill="none" stroke="#000000" stroke-width="4" d="M256.4708,-279.749C262.89,-274.2954 269.9077,-267.4542 275.9007,-260.8485"/>
<polygon fill="#000000" stroke="#000000" stroke-width="4" points="277.4927,-261.6888 279.4852,-256.7804 274.8666,-259.3749 277.4927,-261.6888"/>
</g>
<!-- 13&#45;&gt;13 -->
<g id="edge40" class="edge">
<title>13&#45;&gt;13</title>
<path fill="none" stroke="#000000" stroke-width="4" d="M258.2284,-296.6452C268.1986,-297.4582 277,-295.2631 277,-290.06 277,-285.7512 270.9641,-283.5052 263.2269,-283.3222"/>
<polygon fill="#000000" stroke="#000000" stroke-width="4" points="263.1726,-281.5729 258.2284,-283.4748 263.2795,-285.0713 263.1726,-281.5729"/>
</g>
<!-- 14&#45;&gt;0 -->
<g id="edge41" class="edge">
<title>14&#45;&gt;0</title>
<path fill="none" stroke="#000000" stroke-width="4" d="M243.1248,-61.9754C252.8065,-98.182 272.5918,-172.1736 283.1158,-211.5307"/>
<polygon fill="#000000" stroke="#000000" stroke-width="4" points="281.4933,-212.2377 284.4756,-216.6159 284.8745,-211.3335 281.4933,-212.2377"/>
</g>
<!-- 14&#45;&gt;8 -->
<g id="edge42" class="edge">
<title>14&#45;&gt;8</title>
<path fill="none" stroke="#000000" stroke-width="4" d="M252.9854,-56.4254C258.6026,-62.0426 265.0161,-68.4561 270.9115,-74.3515"/>
<polygon fill="#000000" stroke="#000000" stroke-width="4" points="269.7306,-75.6455 274.5036,-77.9436 272.2055,-73.1706 269.7306,-75.6455"/>
</g>
<!-- 14&#45;&gt;9 -->
<g id="edge43" class="edge">
<title>14&#45;&gt;9</title>
<path fill="none" stroke="#000000" stroke-width="4" d="M248.2791,-59.5879C261.0042,-81.6023 282.1783,-118.2334 295.9881,-142.1244"/>
<polygon fill="#000000" stroke="#000000" stroke-width="4" points="294.6298,-143.2716 298.6472,-146.7246 297.66,-141.52 294.6298,-143.2716"/>
</g>
<!-- 14&#45;&gt;13 -->
<g id="edge44" class="edge">
<title>14&#45;&gt;13</title>
<path fill="none" stroke="#000000" stroke-width="4" d="M237.5,-62.612C237.5,-108.0699 237.5,-213.2843 237.5,-263.0475"/>
<polygon fill="#000000" stroke="#000000" stroke-width="4" points="235.7501,-263.2607 237.5,-268.2607 239.2501,-263.2608 235.7501,-263.2607"/>
</g>
</g>
</svg>
